<svg width="396" height="387" viewBox="0 0 396 387" fill="none" xmlns="http://www.w3.org/2000/svg">
<path d="M251.77 338.778C295.177 330.273 334.068 310.444 361.218 275.994C404.468 221.138 412.868 118.257 354.745 58.3954C328.088 30.9626 288.431 15.9002 253.037 7.45775C214.994 -1.62368 171.944 -4.48323 137.818 10.8724C82.7529 35.6133 58.1063 124.72 22.7862 162.01C-12.534 199.299 -7.59 278.685 56.4723 308.014C90.3469 323.527 126.233 334.829 162.265 340.349C178.781 343.053 195.525 344.106 212.25 343.491C225.521 342.897 238.731 341.321 251.77 338.778Z" fill="#5AD2E1"/>
<path opacity="0.7" d="M251.77 338.778C295.177 330.273 334.068 310.444 361.218 275.994C404.468 221.138 412.868 118.257 354.745 58.3954C328.088 30.9626 288.431 15.9002 253.037 7.45775C214.994 -1.62368 171.944 -4.48323 137.818 10.8724C82.7529 35.6133 58.1063 124.72 22.7862 162.01C-12.534 199.299 -7.59 278.685 56.4723 308.014C90.3469 323.527 126.233 334.829 162.265 340.349C178.781 343.053 195.525 344.106 212.25 343.491C225.521 342.897 238.731 341.321 251.77 338.778Z" fill="white"/>
<path d="M325.217 57.6832H159.206V303.594H325.217V57.6832Z" fill="white" stroke="#263238" stroke-linecap="round" stroke-linejoin="round"/>
<path d="M325.217 57.6832H319.97V303.594H325.217V57.6832Z" fill="#5AD2E1" stroke="#263238" stroke-linecap="round" stroke-linejoin="round"/>
<path d="M325.217 159.14H319.97V207.343H325.217V159.14Z" fill="white" stroke="#263238" stroke-linecap="round" stroke-linejoin="round"/>
<path d="M325.217 57.6832H159.206V76.6526H325.217V57.6832Z" fill="#5AD2E1" stroke="#263238" stroke-linecap="round" stroke-linejoin="round"/>
<path d="M176.228 63.2556H312.124C312.991 63.2556 313.822 63.5999 314.435 64.2127C315.048 64.8256 315.392 65.6569 315.392 66.5236V68.1681C315.392 69.0349 315.048 69.8661 314.435 70.479C313.822 71.0919 312.991 71.4362 312.124 71.4362H176.228C175.362 71.4334 174.532 71.0882 173.92 70.4759C173.307 69.8636 172.962 69.034 172.959 68.1681V66.5236C172.962 65.6559 173.309 64.8247 173.923 64.2121C174.538 63.5995 175.37 63.2555 176.238 63.2556H176.228Z" fill="white" stroke="#263238" stroke-linecap="round" stroke-linejoin="round"/>
<path d="M238.122 120.227H168.047V195.863H238.122V120.227Z" fill="#5AD2E1" stroke="#263238" stroke-linecap="round" stroke-linejoin="round"/>
<path d="M238.122 214.529H168.047V290.166H238.122V214.529Z" fill="#5AD2E1" stroke="#263238" stroke-linecap="round" stroke-linejoin="round"/>
<path d="M252.199 120.227H301.639" stroke="#263238" stroke-linecap="round" stroke-linejoin="round"/>
<path d="M252.199 140.526H301.639" stroke="#263238" stroke-linecap="round" stroke-linejoin="round"/>
<path d="M252.199 146.099H301.639" stroke="#263238" stroke-linecap="round" stroke-linejoin="round"/>
<path d="M252.199 151.661H301.639" stroke="#263238" stroke-linecap="round" stroke-linejoin="round"/>
<path d="M252.199 157.233H301.639" stroke="#263238" stroke-linecap="round" stroke-linejoin="round"/>
<path d="M252.199 162.795H301.639" stroke="#263238" stroke-linecap="round" stroke-linejoin="round"/>
<path d="M252.199 168.357H301.639" stroke="#263238" stroke-linecap="round" stroke-linejoin="round"/>
<path d="M252.199 173.93H301.639" stroke="#263238" stroke-linecap="round" stroke-linejoin="round"/>
<path d="M252.199 179.492H301.639" stroke="#263238" stroke-linecap="round" stroke-linejoin="round"/>
<path d="M252.199 185.064H301.639" stroke="#263238" stroke-linecap="round" stroke-linejoin="round"/>
<path d="M252.199 190.626H301.639" stroke="#263238" stroke-linecap="round" stroke-linejoin="round"/>
<path d="M252.199 125.799H280.68" stroke="#263238" stroke-linecap="round" stroke-linejoin="round"/>
<path d="M252.199 214.529H301.639" stroke="#263238" stroke-linecap="round" stroke-linejoin="round"/>
<path d="M252.199 234.829H301.639" stroke="#263238" stroke-linecap="round" stroke-linejoin="round"/>
<path d="M252.199 240.401H301.639" stroke="#263238" stroke-linecap="round" stroke-linejoin="round"/>
<path d="M252.199 245.963H301.639" stroke="#263238" stroke-linecap="round" stroke-linejoin="round"/>
<path d="M252.199 251.535H301.639" stroke="#263238" stroke-linecap="round" stroke-linejoin="round"/>
<path d="M252.199 257.097H301.639" stroke="#263238" stroke-linecap="round" stroke-linejoin="round"/>
<path d="M252.199 262.67H301.639" stroke="#263238" stroke-linecap="round" stroke-linejoin="round"/>
<path d="M252.199 268.232H301.639" stroke="#263238" stroke-linecap="round" stroke-linejoin="round"/>
<path d="M252.199 273.794H301.639" stroke="#263238" stroke-linecap="round" stroke-linejoin="round"/>
<path d="M252.199 279.366H301.639" stroke="#263238" stroke-linecap="round" stroke-linejoin="round"/>
<path d="M252.199 284.928H301.639" stroke="#263238" stroke-linecap="round" stroke-linejoin="round"/>
<path d="M252.199 220.101H280.68" stroke="#263238" stroke-linecap="round" stroke-linejoin="round"/>
<path d="M191.871 79.977V106.672H188.743L174.197 85.7122H173.936V106.672H170.703V79.977H173.832L188.43 100.989H188.691V79.977H191.871ZM198.34 106.672V79.977H214.45V82.8446H201.572V91.8645H213.616V94.7321H201.572V103.804H214.659V106.672H198.34ZM225.126 106.672L217.826 79.977H221.111L226.69 101.719H226.951L232.634 79.977H236.283L241.966 101.719H242.227L247.806 79.977H251.091L243.791 106.672H240.454L234.563 85.3994H234.354L228.463 106.672H225.126ZM269.717 86.6507C269.56 85.3298 268.926 84.3045 267.814 83.5745C266.702 82.8446 265.337 82.4796 263.721 82.4796C262.539 82.4796 261.505 82.6708 260.619 83.0531C259.741 83.4355 259.055 83.9612 258.559 84.6303C258.073 85.2994 257.829 86.0598 257.829 86.9114C257.829 87.6239 257.999 88.2365 258.338 88.7492C258.685 89.2532 259.128 89.6747 259.667 90.0136C260.206 90.3438 260.771 90.6175 261.362 90.8348C261.953 91.0433 262.496 91.2128 262.991 91.3431L265.702 92.073C266.397 92.2555 267.171 92.5075 268.022 92.829C268.883 93.1506 269.704 93.5894 270.486 94.1455C271.277 94.693 271.928 95.3968 272.441 96.2571C272.954 97.1174 273.21 98.1732 273.21 99.4245C273.21 100.867 272.832 102.17 272.076 103.335C271.329 104.499 270.234 105.425 268.791 106.111C267.358 106.798 265.615 107.141 263.565 107.141C261.653 107.141 259.997 106.832 258.598 106.215C257.208 105.599 256.113 104.738 255.314 103.635C254.523 102.531 254.075 101.249 253.971 99.7895H257.308C257.395 100.797 257.734 101.632 258.325 102.292C258.924 102.944 259.68 103.43 260.593 103.752C261.514 104.065 262.504 104.221 263.565 104.221C264.798 104.221 265.906 104.021 266.888 103.622C267.87 103.213 268.648 102.648 269.222 101.927C269.795 101.197 270.082 100.346 270.082 99.3724C270.082 98.486 269.834 97.7648 269.339 97.2086C268.844 96.6525 268.192 96.2006 267.384 95.853C266.576 95.5055 265.702 95.2013 264.764 94.9406L261.479 94.0021C259.393 93.4026 257.742 92.5466 256.526 91.4343C255.309 90.3221 254.701 88.8665 254.701 87.0678C254.701 85.5732 255.105 84.2697 255.913 83.1574C256.73 82.0365 257.825 81.1675 259.198 80.5505C260.58 79.9249 262.122 79.612 263.825 79.612C265.546 79.612 267.075 79.9205 268.413 80.5375C269.752 81.1458 270.812 81.98 271.594 83.0401C272.385 84.1003 272.802 85.3038 272.845 86.6507H269.717Z" fill="#263238"/>
<path d="M302.729 105.457H236.32V109.532H302.729V105.457Z" fill="#5AD2E1"/>
<path d="M340.144 369.28C356.191 369.28 369.2 365.809 369.2 361.528C369.2 357.248 356.191 353.777 340.144 353.777C324.096 353.777 311.088 357.248 311.088 361.528C311.088 365.809 324.096 369.28 340.144 369.28Z" fill="#5AD2E1"/>
<path opacity="0.5" d="M340.144 369.28C356.191 369.28 369.2 365.809 369.2 361.528C369.2 357.248 356.191 353.777 340.144 353.777C324.096 353.777 311.088 357.248 311.088 361.528C311.088 365.809 324.096 369.28 340.144 369.28Z" fill="white"/>
<path d="M296.674 194.313C296.517 193.738 296.482 193.136 296.572 192.547C296.662 191.958 296.875 191.394 297.197 190.892C297.519 190.39 297.943 189.962 298.441 189.635C298.939 189.307 299.501 189.088 300.089 188.992C303.64 188.51 308.008 193.287 309.391 196.178C309.516 196.429 310.93 200.556 310.868 200.556C310.805 200.556 304.583 200.692 301.985 199.571C299.796 198.608 297.272 196.785 296.674 194.313ZM388.044 183.357C387.52 185.839 385.048 187.735 382.88 188.751C380.712 189.767 375.548 189.945 374.322 189.966C373.641 190.783 372.919 191.653 372.133 192.637C370.782 194.376 369.263 196.356 367.765 198.618C367.367 199.215 366.959 199.886 366.55 200.514C367.461 199.592 368.718 198.335 368.855 198.22C371.358 196.23 377.381 193.842 380.377 195.821C380.866 196.164 381.277 196.607 381.584 197.119C381.89 197.632 382.085 198.204 382.155 198.797C382.225 199.391 382.17 199.992 381.991 200.562C381.813 201.133 381.516 201.659 381.12 202.106C379.518 204.065 376.438 204.61 374.05 204.515C371.662 204.421 366.875 202.148 365.848 201.635C364.979 203.059 364.11 204.536 363.293 206.128C361.774 209.015 360.512 212.029 359.522 215.137L359.71 215.231C360.443 214.267 362.025 212.287 362.172 212.088C364.445 209.826 370.164 206.851 373.348 208.443C373.876 208.724 374.338 209.114 374.703 209.588C375.068 210.062 375.327 210.609 375.463 211.191C375.599 211.774 375.609 212.379 375.491 212.965C375.374 213.552 375.133 214.106 374.783 214.592C373.4 216.687 370.405 217.598 368.017 217.734C365.262 217.923 359.574 215.775 359.354 215.692C358.452 218.803 357.753 221.969 357.259 225.171C356.893 227.538 356.61 229.958 356.358 232.378C356.851 231.686 358.935 229.089 359.103 228.921C361.376 226.658 367.095 223.631 370.279 225.276C370.8 225.563 371.255 225.958 371.614 226.433C371.973 226.907 372.228 227.453 372.362 228.033C372.497 228.612 372.507 229.214 372.394 229.799C372.28 230.383 372.045 230.937 371.704 231.424C370.321 233.519 367.325 234.431 364.937 234.567C362.256 234.755 356.798 232.723 356.337 232.545C356.222 233.645 356.097 234.745 355.992 235.855C355.636 239.458 355.301 243.072 354.861 246.633C354.714 247.859 354.515 249.074 354.326 250.289C355.101 249.242 356.547 247.471 356.683 247.335C358.956 245.073 364.675 242.035 367.87 243.68C368.391 243.968 368.846 244.363 369.205 244.839C369.564 245.315 369.819 245.861 369.954 246.442C370.088 247.023 370.099 247.625 369.985 248.21C369.872 248.796 369.636 249.35 369.294 249.839C367.912 251.934 364.916 252.845 362.528 252.981C360.14 253.117 355.5 251.536 354.201 251.064C353.865 253.075 353.499 255.065 353.038 257.014C352.818 257.841 352.65 258.711 352.399 259.496C352.148 260.282 351.917 261.088 351.687 261.874C351.142 263.477 350.639 264.964 350.105 266.441C349.833 267.195 349.56 267.897 349.288 268.62C349.927 267.488 350.954 265.697 351.069 265.55C352.975 262.963 358.16 259.109 361.543 260.25C362.108 260.448 362.625 260.764 363.057 261.178C363.49 261.592 363.829 262.094 364.051 262.649C364.273 263.205 364.374 263.802 364.346 264.4C364.318 264.998 364.163 265.583 363.89 266.116C362.842 268.42 360.014 269.74 357.678 270.306C355.112 270.882 349.581 269.761 348.911 269.625C348.241 271.395 347.57 273.113 346.91 274.705C344.815 279.764 342.93 283.902 341.547 286.782L341.327 287.243H351.383L347.958 355.087C347.831 357.567 346.756 359.905 344.955 361.614C343.153 363.324 340.763 364.276 338.279 364.273C335.797 364.274 333.41 363.32 331.611 361.611C329.811 359.901 328.738 357.566 328.611 355.087L325.092 287.348H335.891C335.891 286.877 335.786 286.374 335.724 285.819C335.367 282.676 334.781 278.214 333.849 272.893C333.576 271.353 333.273 269.751 332.937 268.054C332.236 268.148 326.653 268.86 324.139 268.054C321.855 267.352 319.132 265.823 318.263 263.445C318.03 262.893 317.918 262.298 317.934 261.7C317.951 261.101 318.095 260.513 318.358 259.975C318.621 259.437 318.997 258.961 319.459 258.581C319.921 258.2 320.46 257.923 321.038 257.768C324.516 256.878 329.418 261.12 331.104 263.833C331.22 264.011 332.277 266.21 332.791 267.342C332.581 266.294 332.382 265.331 332.152 264.294C331.827 262.785 331.439 261.151 331.104 259.674L330.444 257.286C330.235 256.469 329.931 255.715 329.68 254.919C329.282 253.756 328.81 252.583 328.349 251.399C326.841 251.818 322.379 252.981 320.085 252.646C317.791 252.311 314.795 251.2 313.58 248.98C313.266 248.47 313.065 247.899 312.989 247.305C312.914 246.711 312.967 246.108 313.145 245.536C313.323 244.965 313.621 244.438 314.019 243.991C314.418 243.544 314.908 243.188 315.455 242.946C318.765 241.543 324.233 244.989 326.328 247.419C326.401 247.492 326.789 248.058 327.25 248.718C326.757 247.587 326.276 246.455 325.741 245.314C324.233 242.108 322.599 238.872 320.965 235.635L319.917 233.603C318.65 233.959 313.832 235.258 311.423 234.902C309.014 234.546 306.133 233.467 304.918 231.246C304.604 230.736 304.403 230.165 304.329 229.57C304.254 228.976 304.308 228.372 304.487 227.8C304.666 227.229 304.965 226.702 305.364 226.255C305.764 225.809 306.255 225.454 306.803 225.213C310.103 223.809 315.581 227.256 317.676 229.686C317.749 229.769 318.21 230.44 318.723 231.183C317.864 229.413 317.027 227.633 316.262 225.841C314.915 222.779 313.774 219.629 312.847 216.414C312.407 216.54 306.782 218.174 304.111 217.787C301.744 217.441 298.874 216.341 297.596 214.12C297.292 213.608 297.1 213.037 297.031 212.445C296.962 211.853 297.018 211.253 297.196 210.684C297.373 210.115 297.669 209.59 298.063 209.143C298.456 208.695 298.94 208.336 299.482 208.087C302.781 206.684 308.259 210.13 310.354 212.56C310.501 212.727 312.166 215.157 312.732 216.048V215.933C311.898 212.751 311.351 209.502 311.098 206.223C310.855 203.297 310.785 200.358 310.888 197.424C310.951 194.701 311.182 192.187 311.391 190.008C311.527 188.824 311.664 187.735 311.8 186.719H311.737C311.737 186.719 310.48 182.529 310.438 182.299C309.904 179.156 310.742 172.715 313.937 171.07C314.473 170.812 315.058 170.67 315.654 170.653C316.249 170.635 316.842 170.743 317.393 170.969C317.944 171.195 318.441 171.535 318.852 171.965C319.264 172.396 319.58 172.908 319.781 173.469C320.714 175.826 319.687 178.779 318.441 180.801C317.194 182.823 313.015 185.818 311.978 186.541C311.852 187.588 311.737 188.72 311.632 189.966C311.454 192.166 311.286 194.648 311.276 197.372C311.276 198.094 311.276 198.87 311.276 199.624C311.517 198.346 311.873 196.597 311.936 196.481C312.921 193.433 316.618 188.102 320.211 188.102C320.806 188.121 321.391 188.266 321.928 188.525C322.464 188.785 322.94 189.154 323.325 189.609C323.71 190.064 323.996 190.595 324.163 191.167C324.33 191.739 324.375 192.34 324.296 192.93C324.034 195.455 321.771 197.602 319.718 198.838C317.665 200.074 312.386 200.818 311.339 200.933C311.391 202.609 311.475 204.316 311.685 206.107C312.018 209.381 312.649 212.617 313.57 215.775H313.769C313.853 214.571 314.083 212.047 314.125 211.847C314.774 208.705 317.864 203.017 321.457 202.63C322.051 202.584 322.648 202.664 323.209 202.863C323.77 203.062 324.283 203.376 324.715 203.786C325.147 204.195 325.489 204.691 325.718 205.241C325.947 205.79 326.059 206.382 326.045 206.977C326.045 209.512 324.044 211.9 322.149 213.356C319.959 215.032 314.031 216.383 313.769 216.435C314.736 219.522 315.905 222.541 317.267 225.475C318.263 227.654 319.362 229.822 320.483 231.99C320.483 231.142 320.818 227.8 320.871 227.591C321.52 224.448 324.61 218.761 328.203 218.373C328.797 218.328 329.395 218.407 329.957 218.607C330.519 218.807 331.032 219.122 331.465 219.533C331.897 219.943 332.239 220.44 332.467 220.991C332.695 221.542 332.806 222.134 332.791 222.731C332.791 225.255 330.79 227.643 328.894 229.099C326.799 230.744 321.08 232.053 320.598 232.168C321.112 233.142 321.646 234.127 322.138 235.111C323.835 238.306 325.553 241.511 327.145 244.727C327.7 245.837 328.192 246.948 328.706 248.068C328.8 246.801 329.009 244.497 329.051 244.298C329.701 241.155 332.801 235.478 336.383 235.091C336.98 235.033 337.581 235.104 338.148 235.299C338.714 235.494 339.232 235.808 339.667 236.22C340.102 236.632 340.443 237.132 340.668 237.687C340.893 238.242 340.997 238.839 340.971 239.437C340.971 241.972 338.971 244.36 337.075 245.816C335.179 247.272 330.423 248.487 329.072 248.812C329.91 250.677 330.696 252.541 331.387 254.416C331.659 255.233 331.995 256.04 332.225 256.836C332.456 257.632 332.707 258.428 332.937 259.213C333.367 260.847 333.775 262.356 334.142 263.906C334.33 264.681 334.498 265.414 334.666 266.168C334.571 264.87 334.446 262.806 334.456 262.618C334.624 259.423 336.813 253.337 340.29 252.405C340.87 252.27 341.471 252.258 342.056 252.369C342.641 252.481 343.195 252.715 343.684 253.054C344.172 253.394 344.584 253.832 344.893 254.341C345.202 254.85 345.4 255.418 345.475 256.008C345.528 256.32 345.549 256.635 345.538 256.951C346.952 259.391 347.713 262.154 347.748 264.974C347.748 265.173 347.413 267.593 347.225 268.829C347.602 267.876 347.989 266.923 348.366 265.928C348.932 264.493 349.477 262.963 350.021 261.486C350.273 260.701 350.524 259.915 350.786 259.119C351.048 258.323 351.226 257.537 351.456 256.731C351.76 255.547 352.022 254.301 352.284 253.065C350.786 252.583 346.429 251.085 344.7 249.545C342.972 248.006 341.087 245.418 341.296 242.894C341.324 242.298 341.477 241.715 341.746 241.182C342.015 240.65 342.393 240.18 342.855 239.803C343.318 239.427 343.855 239.152 344.431 238.997C345.007 238.842 345.609 238.81 346.198 238.903C349.718 239.553 352.389 245.45 352.797 248.624C352.797 248.728 352.797 249.409 352.797 250.216C353.017 249.001 353.237 247.796 353.426 246.55C353.939 243.041 354.347 239.448 354.777 235.845C354.871 235.091 354.976 234.347 355.06 233.593C353.803 233.195 349.068 231.613 347.256 229.989C345.444 228.366 343.642 225.873 343.852 223.349C343.88 222.753 344.033 222.169 344.302 221.637C344.57 221.104 344.948 220.634 345.411 220.258C345.874 219.881 346.411 219.606 346.987 219.451C347.563 219.296 348.165 219.264 348.754 219.358C352.273 220.007 354.944 225.904 355.353 229.078C355.353 229.193 355.353 230.01 355.353 230.922C355.615 228.963 355.908 227.015 356.243 225.098C356.816 221.802 357.607 218.548 358.61 215.356C358.16 215.21 352.577 213.471 350.566 211.68C348.775 210.077 346.942 207.553 347.151 205.029C347.181 204.433 347.335 203.851 347.604 203.319C347.874 202.787 348.252 202.318 348.714 201.942C349.176 201.565 349.712 201.291 350.288 201.135C350.863 200.979 351.464 200.946 352.053 201.038C355.583 201.687 358.244 207.584 358.652 210.758C358.652 210.989 358.736 213.901 358.715 214.948V214.833C359.781 211.723 361.116 208.712 362.706 205.835C364.121 203.264 365.684 200.777 367.388 198.388C368.949 196.146 370.53 194.198 371.903 192.48C372.667 191.558 373.38 190.731 374.06 189.966H373.977C373.914 189.966 375.223 185.776 375.338 185.556C376.637 182.624 380.879 177.732 384.441 178.119C385.041 178.184 385.62 178.377 386.139 178.686C386.657 178.996 387.103 179.413 387.445 179.911C387.787 180.408 388.018 180.973 388.121 181.568C388.225 182.163 388.198 182.773 388.044 183.357ZM346.9 269.457C346.292 269.164 341.579 266.828 339.746 264.849C338.154 265.711 336.514 266.48 334.833 267.153C335.252 268.997 335.64 270.798 335.975 272.495C337.022 277.858 337.724 282.362 338.164 285.525C338.258 286.196 338.332 286.793 338.405 287.348H338.646C338.876 286.877 339.138 286.384 339.432 285.808C340.856 283.001 342.836 278.947 344.994 273.982C345.622 272.558 346.261 271.029 346.9 269.457ZM365.702 200.954C365.754 200.954 366.843 196.764 366.885 196.492C367.325 193.349 366.309 186.929 363.083 185.368C362.539 185.124 361.95 184.997 361.354 184.995C360.758 184.994 360.168 185.117 359.623 185.358C359.078 185.599 358.589 185.952 358.189 186.394C357.789 186.836 357.487 187.357 357.301 187.924C356.432 190.312 357.532 193.224 358.83 195.256C360.36 197.592 365.691 200.954 365.702 200.954Z" fill="#263238"/>
<path d="M147.318 386.72C204.056 386.72 250.052 378.044 250.052 367.342C250.052 356.64 204.056 347.964 147.318 347.964C90.5792 347.964 44.5835 356.64 44.5835 367.342C44.5835 378.044 90.5792 386.72 147.318 386.72Z" fill="#5AD2E1"/>
<path opacity="0.5" d="M147.318 386.72C204.056 386.72 250.052 378.044 250.052 367.342C250.052 356.64 204.056 347.964 147.318 347.964C90.5792 347.964 44.5835 356.64 44.5835 367.342C44.5835 378.044 90.5792 386.72 147.318 386.72Z" fill="white"/>
<path d="M109.096 286.133H102.77V316.698H109.096V286.133Z" fill="#263238"/>
<mask id="mask0_20_1244" style="mask-type:luminance" maskUnits="userSpaceOnUse" x="102" y="286" width="8" height="31">
<path d="M109.096 286.133H102.77V316.698H109.096V286.133Z" fill="white"/>
</mask>
<g mask="url(#mask0_20_1244)">
<path opacity="0.4" d="M109.096 286.133H102.77V316.698H109.096V286.133Z" fill="white"/>
</g>
<path d="M109.096 286.133H102.77V316.698H109.096V286.133Z" stroke="#263238" stroke-linecap="round" stroke-linejoin="round"/>
<path d="M101.68 151.661C101.68 151.661 54.9639 154.939 52.7852 157.998C50.6065 161.056 52.1253 167.812 53.8326 173.49C55.54 179.167 72.3935 282.645 76.9709 287.222C81.5483 291.8 89.8546 290.721 99.6797 290.721C109.505 290.721 161.689 288.751 161.689 288.751C161.689 288.751 165.879 289.621 171.954 287.442C178.029 285.263 185.927 281.765 187.016 278.497C188.106 275.229 187.236 269.541 186.137 269.541C185.037 269.541 119.791 264.744 119.791 264.744L101.68 151.661Z" fill="#263238"/>
<mask id="mask1_20_1244" style="mask-type:luminance" maskUnits="userSpaceOnUse" x="51" y="151" width="137" height="140">
<path d="M101.68 151.661C101.68 151.661 54.9639 154.939 52.7852 157.998C50.6065 161.056 52.1253 167.812 53.8326 173.49C55.54 179.167 72.3935 282.645 76.9709 287.222C81.5483 291.8 89.8546 290.721 99.6797 290.721C109.505 290.721 161.689 288.751 161.689 288.751C161.689 288.751 165.879 289.621 171.954 287.442C178.029 285.263 185.927 281.765 187.016 278.497C188.106 275.229 187.236 269.541 186.137 269.541C185.037 269.541 119.791 264.744 119.791 264.744L101.68 151.661Z" fill="white"/>
</mask>
<g mask="url(#mask1_20_1244)">
<path opacity="0.4" d="M101.68 151.661C101.68 151.661 54.9639 154.939 52.7852 157.998C50.6065 161.056 52.1253 167.812 53.8326 173.49C55.54 179.167 72.3935 282.645 76.9709 287.222C81.5483 291.8 89.8546 290.721 99.6797 290.721C109.505 290.721 161.689 288.751 161.689 288.751C161.689 288.751 165.879 289.621 171.954 287.442C178.029 285.263 185.927 281.765 187.016 278.497C188.106 275.229 187.236 269.541 186.137 269.541C185.037 269.541 119.791 264.744 119.791 264.744L101.68 151.661Z" fill="white"/>
</g>
<path d="M101.68 151.661C101.68 151.661 54.9639 154.939 52.7852 157.998C50.6065 161.056 52.1253 167.812 53.8326 173.49C55.54 179.167 72.3935 282.645 76.9709 287.222C81.5483 291.8 89.8546 290.721 99.6797 290.721C109.505 290.721 161.689 288.751 161.689 288.751C161.689 288.751 165.879 289.621 171.954 287.442C178.029 285.263 185.927 281.765 187.016 278.497C188.106 275.229 187.236 269.541 186.137 269.541C185.037 269.541 119.791 264.744 119.791 264.744L101.68 151.661Z" stroke="#263238" stroke-linecap="round" stroke-linejoin="round"/>
<path d="M101.031 283.074C90.7658 283.074 83.3498 283.734 81.6006 278.884C79.8513 274.035 64.1395 189.599 61.5209 177.376C58.9023 165.152 58.4623 159.695 55.4038 158.165C54.8667 157.954 54.2777 157.912 53.716 158.045C53.1543 158.178 52.6467 158.479 52.2614 158.909C50.8788 162.261 52.2614 168.336 53.8535 173.448C55.6028 179.125 72.4144 282.603 76.9918 287.18C81.5692 291.758 89.8755 290.679 99.7006 290.679C109.526 290.679 161.689 288.751 161.689 288.751C164.398 289.122 167.156 288.908 169.775 288.123C170.756 287.184 171.427 285.967 171.699 284.637C171.97 283.306 171.829 281.924 171.294 280.676C170.006 277.188 111.285 283.074 101.031 283.074Z" fill="#263238" stroke="#263238" stroke-linecap="round" stroke-linejoin="round"/>
<path d="M157.918 119.912C154.514 108.788 144.752 95.7371 131.878 95.5172C120.775 95.3391 115.119 97.3397 109.494 112.633C103.869 127.925 84.5439 161.486 84.5439 161.486C84.5439 161.486 85.1723 161.591 86.2512 161.737C84.9524 163.235 84.2192 164.104 84.2192 164.104C84.2192 164.104 77.6726 177.208 72.1001 188.667C66.5277 200.126 69.8062 217.147 77.9973 227.633C86.1884 238.118 93.3844 235.813 101.24 225.988C109.096 216.163 136.938 145.114 136.938 145.114L146.113 127.632C146.825 128.46 147.391 128.931 147.716 128.837C148.994 128.47 159.919 126.469 157.918 119.912Z" fill="#263238" stroke="#263238" stroke-linecap="round" stroke-linejoin="round"/>
<path d="M133.984 97.2559C133.984 97.2559 149.015 107.73 145.705 111.973" stroke="white" stroke-width="0.75" stroke-linecap="round" stroke-linejoin="round"/>
<path d="M139.986 110.506C136.407 115.922 132.393 121.037 127.982 125.799C116.261 138.714 92.5254 150.739 91.0171 157.045" stroke="white" stroke-width="0.75" stroke-linecap="round" stroke-linejoin="round"/>
<path d="M142.699 105.667C142.299 106.553 141.852 107.417 141.358 108.254" stroke="white" stroke-width="0.75" stroke-linecap="round" stroke-linejoin="round"/>
<path d="M92.1903 151.106C89.5193 154.185 87.7177 157.045 87.4139 159.15" stroke="white" stroke-width="0.75" stroke-linecap="round" stroke-linejoin="round"/>
<path d="M127.374 98.4605C127.374 98.4605 125.279 97.2664 121.969 108.076C118.659 118.886 109.651 135.718 102.141 141.731C99.8573 143.548 97.6687 145.481 95.584 147.523" stroke="white" stroke-width="0.75" stroke-linecap="round" stroke-linejoin="round"/>
<path d="M78.1335 193.779C76.3947 201.624 74.9911 212.078 77.505 219.274C82.0091 232.189 87.7177 230.084 88.6185 224.082C89.5193 218.08 84.4287 217.797 82.9099 219.892C81.391 221.987 85.0048 224.7 85.0048 224.7" stroke="white" stroke-width="0.75" stroke-linecap="round" stroke-linejoin="round"/>
<path d="M81.1081 182.885C81.1081 182.885 80.2597 185.347 79.2542 189.107" stroke="white" stroke-width="0.75" stroke-linecap="round" stroke-linejoin="round"/>
<path d="M162.464 233.697C162.464 233.697 181.758 229.874 184.859 232.419C187.959 234.965 186.493 251.357 178.124 255.725C169.754 260.093 150.816 254.269 150.816 254.269L162.464 233.697Z" fill="white" stroke="#263238" stroke-linecap="round" stroke-linejoin="round"/>
<path d="M151.361 251.871C151.361 251.871 171.933 258.972 174.845 263.393C177.757 267.813 176.123 291.611 175.39 301.991C174.656 312.372 174.478 344.225 177.39 353.872C180.302 363.519 182.125 368.986 183.947 371.354C185.77 373.721 195.05 378.633 194.328 380.089C193.605 381.545 185.581 381.545 181.214 380.268C176.846 378.99 172.3 373.899 168.476 370.62C164.653 367.342 163.742 367.342 163.742 367.342L165.198 378.864L163.009 378.497C163.009 378.497 162.653 371.039 161.186 367.028C159.72 363.016 157.73 362.482 159.186 359.203C160.642 355.925 166.654 352.101 166.654 352.101C166.215 343.993 164.994 335.946 163.009 328.073C159.73 315.147 155.362 308.59 154.818 293.664C154.273 278.738 157.552 274.003 157.552 274.003L135.702 274.37L151.361 251.871Z" fill="white" stroke="#263238" stroke-linecap="round" stroke-linejoin="round"/>
<path d="M181.213 380.226C185.581 381.504 193.594 381.504 194.328 380.048C194.956 378.78 188.043 374.894 185.005 372.349C184.236 372.504 183.454 372.581 182.669 372.579C179.401 372.579 173.567 369.489 167.199 362.566C163.993 359.088 163.187 356.396 163.176 354.573C161.55 355.797 160.192 357.341 159.185 359.109C157.73 362.387 159.73 362.932 161.186 366.933C162.642 370.935 163.009 378.403 163.009 378.403L165.198 378.77L163.742 367.248C163.742 367.248 164.653 367.248 168.476 370.526C172.3 373.805 176.846 378.948 181.213 380.226Z" fill="#263238" stroke="#263238" stroke-linecap="round" stroke-linejoin="round"/>
<path d="M173.211 232.419C182.125 230.785 185.581 231.508 187.226 233.875C188.87 236.243 191.772 260.638 191.96 273.752C192.149 286.866 198.507 303.238 199.785 313.618C200.929 321.787 203.387 329.718 207.065 337.102C209.254 341.648 212.71 341.648 213.988 343.659C215.266 345.67 209.254 346.016 205.975 346.016C202.697 346.016 195.595 341.103 193.594 337.102C193.074 335.97 192.318 334.962 191.377 334.146C190.436 333.329 189.331 332.723 188.137 332.367C188.137 332.367 187.592 341.794 186.859 342.203C186.126 342.611 185.581 341.648 185.581 341.648C185.581 341.648 185.581 335.646 185.403 332.912C185.225 330.178 183.581 325.81 183.403 323.632C183.225 321.453 189.593 318.531 189.593 318.531C189.593 318.531 186.451 303.06 183.947 296.534C181.444 290.008 173.211 277.02 169.021 267.017C164.831 257.014 167.974 242.255 167.974 242.255" fill="white"/>
<path d="M173.211 232.419C182.125 230.785 185.581 231.508 187.226 233.875C188.87 236.243 191.772 260.638 191.96 273.752C192.149 286.866 198.507 303.238 199.785 313.618C200.929 321.787 203.387 329.718 207.065 337.102C209.254 341.648 212.71 341.648 213.988 343.659C215.266 345.67 209.254 346.016 205.975 346.016C202.697 346.016 195.595 341.103 193.594 337.102C193.074 335.97 192.318 334.962 191.377 334.146C190.436 333.329 189.331 332.723 188.137 332.367C188.137 332.367 187.592 341.794 186.859 342.203C186.126 342.611 185.581 341.648 185.581 341.648C185.581 341.648 185.581 335.646 185.403 332.912C185.225 330.178 183.581 325.81 183.403 323.632C183.225 321.453 189.593 318.531 189.593 318.531C189.593 318.531 186.451 303.06 183.947 296.534C181.444 290.008 173.211 277.02 169.021 267.017C164.831 257.014 167.974 242.255 167.974 242.255" stroke="#263238" stroke-linecap="round" stroke-linejoin="round"/>
<path d="M208.709 339.553C207.827 340.322 206.73 340.801 205.567 340.925C203.021 341.103 197.92 338.191 192.641 330.367C188.797 324.658 188.336 320.793 188.367 319.117C186.534 320.081 183.224 322.04 183.361 323.632C183.539 325.81 185.183 330.178 185.361 332.912C185.539 335.646 185.539 341.648 185.539 341.648C185.539 341.648 186.094 342.559 186.817 342.203C187.54 341.847 188.095 332.367 188.095 332.367C189.29 332.721 190.396 333.326 191.337 334.143C192.279 334.959 193.034 335.968 193.552 337.102C195.553 341.103 202.655 346.016 205.933 346.016C209.212 346.016 215.214 345.66 213.946 343.659C213.014 342.109 210.71 341.742 208.709 339.553Z" fill="#263238" stroke="#263238" stroke-linecap="round" stroke-linejoin="round"/>
<path d="M137.346 160.334C138.551 160.987 139.599 161.895 140.416 162.995C141.234 164.095 141.802 165.36 142.081 166.702C142.981 171.259 144.804 217.671 145.349 218.582C145.893 219.494 158.966 230.241 158.966 230.241L154.776 235.153C154.776 235.153 141.306 228.596 137.116 225.14C132.926 221.683 131.292 220.227 132.025 214.215C132.758 208.202 134.748 178.35 134.748 173.804C134.748 169.258 134.612 158.165 137.346 160.334Z" fill="#5AD2E1" stroke="#263238" stroke-linecap="round" stroke-linejoin="round"/>
<path d="M117.696 150.833C117.696 150.833 100.402 157.202 93.8452 159.569C87.2882 161.936 80.7311 161.392 80.375 163.392C80.0188 165.393 84.7428 191.066 88.1994 201.802C91.656 212.539 93.8452 219.284 93.3006 222.751C92.7559 226.219 78.0077 244.968 82.1975 262.073C86.3874 279.178 113.873 278.455 130.255 278.277C146.637 278.099 145.967 277.366 145.967 277.366L166.717 233.132L139.221 237.133C139.221 237.133 127.94 228.753 129.029 224.207C130.119 219.661 135.408 210.371 136.676 205.458C137.943 200.545 139.954 189.442 138.132 182.341C136.309 175.239 140.687 162.313 137.409 160.344C134.13 158.375 121.32 150.833 117.696 150.833Z" fill="#5AD2E1" stroke="#263238" stroke-linecap="round" stroke-linejoin="round"/>
<path d="M92.9551 247.063C92.9551 247.063 101.031 240.946 110.846 242.255C120.66 243.564 144.469 251.682 144.469 251.682" stroke="#263238" stroke-linecap="round" stroke-linejoin="round"/>
<path d="M87.9271 246.843C87.9271 246.843 90.1163 242.035 97.3542 240.076" stroke="#263238" stroke-linecap="round" stroke-linejoin="round"/>
<path d="M159.007 230.241C161.323 229.693 163.699 229.439 166.078 229.486C168.166 229.57 170.213 230.097 172.083 231.032C173.952 231.968 175.6 233.29 176.919 234.912C176.919 234.912 177.83 237.248 176.322 237.395C174.814 237.541 171.692 235.761 168.822 235.614C166.93 235.488 165.051 235.201 163.208 234.755C163.208 234.755 166.675 237.625 165.617 237.898C164.559 238.17 161.427 236.546 160.202 236.096C158.976 235.646 156.284 235.195 155.079 234.001C153.875 232.807 159.007 230.241 159.007 230.241Z" fill="white" stroke="#263238" stroke-linecap="round" stroke-linejoin="round"/>
<path d="M176.238 236.724C174.969 235.839 173.631 235.058 172.237 234.389C170.896 233.896 166.654 233.121 166.654 233.121" stroke="#263238" stroke-width="0.5" stroke-linecap="round" stroke-linejoin="round"/>
<path d="M168.56 231.76C168.56 231.76 172.237 232.922 173.735 233.593C174.931 234.291 175.995 235.195 176.877 236.264" stroke="#263238" stroke-width="0.5" stroke-linecap="round" stroke-linejoin="round"/>
<path d="M111.044 153.075C111.044 153.075 106.855 156.091 111.495 171.259C114.155 179.89 124.42 206.757 124.599 205.301C124.777 203.845 127.332 186.908 127.144 177.627C127.11 170.076 125.883 162.578 123.509 155.411C121.687 150.498 114.69 149.44 111.044 153.075Z" fill="white" stroke="#263238" stroke-linecap="round" stroke-linejoin="round"/>
<path d="M108.939 157.6C109.162 160.742 109.713 163.853 110.584 166.88C111.851 170.703 113.674 174.715 113.674 174.715C113.674 174.715 119.864 169.614 120.409 169.614C120.953 169.614 127.144 172.893 127.144 172.159C126.509 166.975 125.415 161.857 123.876 156.867C121.687 149.953 115.894 148.016 112.626 150.582C109.358 153.148 108.939 157.6 108.939 157.6Z" fill="white" stroke="#263238" stroke-linecap="round" stroke-linejoin="round"/>
<path d="M119.34 141.951L114.941 154.52C115.245 155.505 115.622 156.72 115.988 158.312C117.444 163.769 120.356 171.049 121.226 171.416C122.095 171.782 120.681 165.225 122.137 159.768C123.593 154.311 126.693 146.287 126.872 145.743L120.859 141.668L119.34 141.951Z" fill="white" stroke="#263238" stroke-linecap="round" stroke-linejoin="round"/>
<path d="M143.757 113.774C139.703 119.012 134.204 125.768 129.333 130.837C120.231 140.264 118.534 141.312 120.147 142.223C122.504 144.318 129.637 150.729 132.245 151.954C135.387 153.41 136.613 150.498 141.347 146.13C146.082 141.762 150.45 128.47 149.538 124.28C148.612 120.314 146.612 116.679 143.757 113.774Z" fill="white" stroke="#263238" stroke-linecap="round" stroke-linejoin="round"/>
<path d="M143.348 131.204C143.348 131.204 141.347 135.572 141.347 138.117C141.347 140.662 141.892 140.484 141.347 140.673C140.803 140.861 137.157 139.028 137.157 139.028" stroke="#263238" stroke-linecap="round" stroke-linejoin="round"/>
<path d="M134.612 143.04C134.612 143.04 130.967 142.485 130.422 139.028" stroke="#263238" stroke-linecap="round" stroke-linejoin="round"/>
<path d="M137.482 131.979C137.179 132.723 136.665 133.226 136.341 133.089C136.016 132.953 135.995 132.241 136.341 131.497C136.686 130.754 137.147 130.261 137.472 130.387C137.797 130.513 137.776 131.246 137.482 131.979Z" fill="#263238"/>
<path d="M145.402 134.367C145.704 133.622 145.683 132.91 145.356 132.778C145.029 132.645 144.519 133.142 144.218 133.888C143.916 134.633 143.936 135.345 144.264 135.477C144.591 135.609 145.1 135.113 145.402 134.367Z" fill="#263238"/>
<path d="M134.455 126.469C134.455 126.469 138.09 123.557 140.457 125.013" stroke="#263238" stroke-linecap="round" stroke-linejoin="round"/>
<path d="M145.715 127.014C145.715 127.014 148.449 126.648 148.627 129.926" stroke="#263238" stroke-linecap="round" stroke-linejoin="round"/>
<path d="M169.943 181.566L173.41 164.995L181.968 163.717L178.7 179.135L169.943 181.566Z" fill="#263238" stroke="#263238" stroke-linecap="round" stroke-linejoin="round"/>
<path d="M148.816 197.969L161.951 190.637L166.141 179.282C167.163 178.719 168.36 178.562 169.492 178.842C170.422 179.202 171.407 179.401 172.404 179.429L180.407 177.093C180.407 177.093 181.14 176.653 181.14 178.14C181.14 179.628 180.7 180.172 179.684 181.482C178.668 182.791 178.637 184.687 178.228 186.719C177.82 188.751 175.316 190.218 173.42 190.794C171.524 191.37 165.261 195.308 164.391 195.895C163.522 196.481 150.408 203.897 150.408 203.897L148.816 197.969Z" fill="white" stroke="#263238" stroke-linecap="round" stroke-linejoin="round"/>
<path d="M172.446 179.387L167.492 181.419" stroke="#263238" stroke-linecap="round" stroke-linejoin="round"/>
<path d="M84.1774 176.349C84.1774 176.349 104.749 226.627 106.75 228.418C108.751 230.209 152.995 204.253 152.995 204.253L148.449 195.696L115.13 206.809L98.7475 168.755" fill="#5AD2E1"/>
<path d="M84.1774 176.349C84.1774 176.349 104.749 226.627 106.75 228.418C108.751 230.209 152.995 204.253 152.995 204.253L148.449 195.696L115.13 206.809L98.7475 168.755" stroke="#263238" stroke-linecap="round" stroke-linejoin="round"/>
<path d="M151.015 368.871L121.456 357.883C128.055 356.574 145.37 353.149 146.427 353.149C147.747 353.149 146.647 349.661 146.647 349.661L111.945 351.861V314.948H99.5015V351.557L68.9368 350.97L68.4969 353.589L91.5094 358.229L57.3729 372.579V375.847L108.017 363.466L151.235 372.893L151.015 368.871Z" fill="#263238" stroke="#263238" stroke-linecap="round" stroke-linejoin="round"/>
<path d="M63.9195 377.712C63.9195 378.296 63.7462 378.867 63.4217 379.353C63.0971 379.838 62.6358 380.217 62.096 380.441C61.5563 380.664 60.9624 380.723 60.3894 380.609C59.8164 380.495 59.2901 380.213 58.877 379.8C58.4639 379.387 58.1826 378.861 58.0686 378.288C57.9546 377.715 58.0131 377.121 58.2367 376.581C58.4603 376.042 58.8389 375.58 59.3246 375.256C59.8104 374.931 60.3814 374.758 60.9657 374.758C61.3539 374.756 61.7387 374.832 62.0977 374.98C62.4567 375.128 62.7829 375.345 63.0574 375.62C63.332 375.894 63.5495 376.221 63.6975 376.58C63.8454 376.939 63.9209 377.323 63.9195 377.712Z" fill="#263238" stroke="#263238" stroke-linecap="round" stroke-linejoin="round"/>
<path d="M151.675 374.873C151.675 375.457 151.502 376.029 151.177 376.514C150.853 377 150.392 377.379 149.852 377.602C149.312 377.826 148.718 377.884 148.145 377.77C147.572 377.656 147.046 377.375 146.633 376.962C146.22 376.549 145.938 376.023 145.824 375.45C145.71 374.877 145.769 374.283 145.992 373.743C146.216 373.203 146.595 372.742 147.08 372.417C147.566 372.093 148.137 371.919 148.721 371.919C149.11 371.918 149.494 371.994 149.853 372.141C150.212 372.289 150.539 372.507 150.813 372.782C151.088 373.056 151.305 373.382 151.453 373.741C151.601 374.1 151.677 374.485 151.675 374.873Z" fill="#263238" stroke="#263238" stroke-linecap="round" stroke-linejoin="round"/>
<path d="M73.5247 355.988C73.5268 356.421 73.4001 356.845 73.1609 357.207C72.9216 357.568 72.5804 357.85 72.1806 358.018C71.7807 358.185 71.3402 358.23 70.9149 358.146C70.4895 358.063 70.0985 357.855 69.7913 357.55C69.4841 357.244 69.2745 356.854 69.1892 356.429C69.1039 356.004 69.1466 355.563 69.312 355.163C69.4774 354.762 69.758 354.42 70.1182 354.179C70.4784 353.938 70.9021 353.809 71.3355 353.809C71.9143 353.809 72.4696 354.038 72.8798 354.446C73.2901 354.855 73.5219 355.409 73.5247 355.988Z" fill="#263238" stroke="#263238" stroke-linecap="round" stroke-linejoin="round"/>
<path d="M147.087 355.328C147.09 355.762 146.963 356.186 146.723 356.548C146.483 356.909 146.141 357.192 145.741 357.359C145.34 357.526 144.899 357.57 144.474 357.486C144.048 357.402 143.657 357.193 143.35 356.886C143.044 356.579 142.835 356.188 142.751 355.763C142.667 355.337 142.711 354.896 142.878 354.496C143.045 354.095 143.327 353.753 143.689 353.514C144.05 353.274 144.475 353.147 144.909 353.149C145.487 353.149 146.041 353.378 146.449 353.787C146.858 354.196 147.087 354.75 147.087 355.328Z" fill="#263238" stroke="#263238" stroke-linecap="round" stroke-linejoin="round"/>
</svg>
