<svg width="391" height="366" viewBox="0 0 391 366" fill="none" xmlns="http://www.w3.org/2000/svg">
<path d="M356.77 64.1511C347.155 51.3977 335.133 40.6517 321.386 32.5205C298.556 18.9551 272.792 10.7926 246.722 6.27632C164.227 -8.00179 119.006 7.105 84.8979 31.6587C62.3081 47.9588 55.2064 82.6141 48.5355 107.814C44.7899 121.96 41.4503 136.254 36.7931 150.135C29.5588 171.68 13.1261 189.083 7.64856 211.299C1.84782 234.743 2.30359 259.437 10.3335 282.325C26.2027 327.538 53.1678 353.741 115.045 362.442C148.192 367.116 174.834 353.418 202.338 336.935C219.293 326.776 236.869 317.619 256.326 313.475C276.878 309.108 298.017 308.503 318.626 304.443C364.726 295.369 379.518 251.739 385.509 210.413C392.76 160.377 388.219 105.693 356.77 64.1511Z" fill="#D5B9DB"/>
<path opacity="0.7" d="M356.77 64.1511C347.155 51.3977 335.133 40.6517 321.386 32.5205C298.556 18.9551 272.792 10.7926 246.722 6.27632C164.227 -8.00179 119.006 7.105 84.8979 31.6587C62.3081 47.9588 55.2064 82.6141 48.5355 107.814C44.7899 121.96 41.4503 136.254 36.7931 150.135C29.5588 171.68 13.1261 189.083 7.64856 211.299C1.84782 234.743 2.30359 259.437 10.3335 282.325C26.2027 327.538 53.1678 353.741 115.045 362.442C148.192 367.116 174.834 353.418 202.338 336.935C219.293 326.776 236.869 317.619 256.326 313.475C276.878 309.108 298.017 308.503 318.626 304.443C364.726 295.369 379.518 251.739 385.509 210.413C392.76 160.377 388.219 105.693 356.77 64.1511Z" fill="white"/>
<g opacity="0.2">
<path d="M386.47 26.5043H228.392L222.782 39.9537H386.47V26.5043Z" stroke="black" stroke-linejoin="round"/>
<path d="M386.47 39.9537H228.392L222.782 53.4115H386.47V39.9537Z" stroke="black" stroke-linejoin="round"/>
<path d="M386.47 53.4114H228.392L222.782 66.8609H386.47V53.4114Z" stroke="black" stroke-linejoin="round"/>
<path d="M386.47 66.8609H228.392L222.782 80.3186H386.47V66.8609Z" stroke="black" stroke-linejoin="round"/>
<path d="M386.47 80.3186H228.392L222.782 93.768H386.47V80.3186Z" stroke="black" stroke-linejoin="round"/>
<path d="M386.47 93.768H228.392L222.782 107.226H386.47V93.768Z" stroke="black" stroke-linejoin="round"/>
<path d="M386.47 107.226H228.392L222.782 120.675H386.47V107.226Z" stroke="black" stroke-linejoin="round"/>
<path d="M386.47 120.675H228.392L222.782 134.133H386.47V120.675Z" stroke="black" stroke-linejoin="round"/>
<path d="M386.47 134.133H228.392L222.782 147.582H386.47V134.133Z" stroke="black" stroke-linejoin="round"/>
<path d="M386.47 147.582H228.392L222.782 161.04H386.47V147.582Z" stroke="black" stroke-linejoin="round"/>
<path d="M386.47 161.04H228.392L222.782 174.489H386.47V161.04Z" stroke="black" stroke-linejoin="round"/>
<path d="M386.47 174.489H228.392L222.782 187.947H386.47V174.489Z" stroke="black" stroke-linejoin="round"/>
<path d="M386.47 187.947H228.392L222.782 201.397H386.47V187.947Z" stroke="black" stroke-linejoin="round"/>
<path d="M386.47 201.397H228.392L222.782 214.854H386.47V201.397Z" stroke="black" stroke-linejoin="round"/>
<path d="M386.47 214.854H228.392L222.782 228.304H386.47V214.854Z" stroke="black" stroke-linejoin="round"/>
<path d="M386.47 228.304H228.392L222.782 241.762H386.47V228.304Z" stroke="black" stroke-linejoin="round"/>
<path d="M389.826 22.0211H221.099V246.245H389.826V22.0211Z" stroke="black" stroke-linejoin="round"/>
</g>
<g opacity="0.2">
<path d="M78.343 327.115H21.6449V357.039H78.343V327.115Z" stroke="black" stroke-linejoin="round"/>
<path d="M54.5931 338.576H45.3865V343.034H54.5931V338.576Z" stroke="black" stroke-linejoin="round"/>
<path d="M81.2433 288.226H18.7362V364.787H81.2433V288.226Z" stroke="black" stroke-linejoin="round"/>
<path d="M78.343 292.104H21.6449V322.027H78.343V292.104Z" stroke="black" stroke-linejoin="round"/>
<path d="M54.5931 303.564H45.3865V308.023H54.5931V303.564Z" stroke="black" stroke-linejoin="round"/>
<path d="M56.209 283.378H33.9176V288.225H56.209V283.378Z" stroke="black" stroke-linejoin="round"/>
<path d="M46.0329 268.362H42.1547V283.386H46.0329V268.362Z" stroke="black" stroke-linejoin="round"/>
<path d="M64.4459 233.467H22.7717V268.354H64.4459V233.467Z" stroke="black" stroke-linejoin="round"/>
</g>
<g opacity="0.2">
<path d="M313.016 328.541V264.567C313.017 263.358 312.78 262.162 312.318 261.045C311.856 259.929 311.179 258.914 310.324 258.06C309.47 257.206 308.456 256.528 307.339 256.066C306.223 255.604 305.026 255.367 303.818 255.368H219.773V329.179" stroke="black" stroke-linejoin="round"/>
<path d="M220.478 255.368H134.867C133.66 255.368 132.464 255.606 131.348 256.069C130.233 256.531 129.219 257.209 128.366 258.063C127.513 258.917 126.836 259.931 126.374 261.047C125.913 262.163 125.676 263.359 125.677 264.567V328.541" stroke="black" stroke-linejoin="round"/>
<path d="M321.32 334.681V356.227H219.815V328.541H315.204C316.009 328.539 316.807 328.698 317.551 329.006C318.295 329.315 318.971 329.767 319.54 330.338C320.108 330.909 320.558 331.586 320.863 332.332C321.169 333.077 321.324 333.876 321.32 334.681Z" stroke="black" stroke-linejoin="round"/>
<path d="M220.586 328.541H123.481C122.678 328.541 121.884 328.699 121.142 329.006C120.401 329.314 119.727 329.764 119.16 330.332C118.592 330.9 118.143 331.575 117.836 332.316C117.53 333.058 117.373 333.853 117.374 334.656V356.202H220.586" stroke="black" stroke-linejoin="round"/>
<path d="M117.374 365.21V356.169H321.494V365.21" stroke="black" stroke-linejoin="round"/>
<path d="M125.677 291.83C125.101 291.231 124.41 290.753 123.646 290.427C122.881 290.101 122.058 289.933 121.227 289.933H102.739C101.93 289.931 101.129 290.09 100.381 290.399C99.6326 290.708 98.9529 291.161 98.3803 291.733C97.8076 292.305 97.3534 292.984 97.0435 293.731C96.7335 294.479 96.574 295.28 96.574 296.09V364.77" stroke="black" stroke-linejoin="round"/>
<path d="M339.973 364.323V296.089C339.973 294.457 339.325 292.89 338.17 291.736C337.015 290.581 335.449 289.932 333.816 289.932H315.328C314.535 289.929 313.749 290.084 313.016 290.388" stroke="black" stroke-linejoin="round"/>
</g>
<path d="M354.086 20.6621V220.373C354.086 222.791 353.125 225.11 351.416 226.819C349.706 228.528 347.388 229.489 344.97 229.489H56.5904C54.1729 229.489 51.8543 228.528 50.1448 226.819C48.4354 225.11 47.475 222.791 47.475 220.373V20.6621C47.475 18.4643 48.348 16.3565 49.9021 14.8025C51.4562 13.2484 53.564 12.3753 55.7618 12.3753H345.799C347.997 12.3753 350.104 13.2484 351.659 14.8025C353.213 16.3565 354.086 18.4643 354.086 20.6621Z" fill="#D5B9DB" stroke="#263238" stroke-miterlimit="10"/>
<path d="M354.086 20.6621V37.8986H47.475V20.6621C47.475 18.4643 48.348 16.3565 49.9021 14.8025C51.4562 13.2484 53.564 12.3753 55.7618 12.3753H345.799C347.997 12.3753 350.104 13.2484 351.659 14.8025C353.213 16.3565 354.086 18.4643 354.086 20.6621Z" fill="white" stroke="#263238" stroke-miterlimit="10"/>
<path d="M245.081 34.559H81.517C80.78 34.5568 80.0739 34.2625 79.5536 33.7406C79.0332 33.2187 78.741 32.5117 78.741 31.7747C78.741 31.0377 79.0332 30.3307 79.5536 29.8088C80.0739 29.2868 80.78 28.9925 81.517 28.9903H245.081C245.82 28.9903 246.528 29.2837 247.05 29.8058C247.572 30.328 247.866 31.0362 247.866 31.7747C247.866 32.5131 247.572 33.2214 247.05 33.7435C246.528 34.2657 245.82 34.559 245.081 34.559Z" fill="white" stroke="#263238" stroke-miterlimit="10"/>
<path d="M338.548 29.5455H349.122" stroke="#263238" stroke-miterlimit="10"/>
<path d="M338.548 31.7747H349.122" stroke="#263238" stroke-miterlimit="10"/>
<path d="M338.548 34.0038H349.122" stroke="#263238" stroke-miterlimit="10"/>
<path d="M354.086 20.6621V25.6342H47.475V20.6621C47.475 18.4643 48.348 16.3565 49.9021 14.8025C51.4562 13.2484 53.564 12.3753 55.7618 12.3753H345.799C347.997 12.3753 350.104 13.2484 351.659 14.8025C353.213 16.3565 354.086 18.4643 354.086 20.6621Z" fill="#263238" stroke="#263238" stroke-miterlimit="10"/>
<path d="M323.541 19.2782C323.551 18.7743 323.41 18.2789 323.137 17.8552C322.864 17.4316 322.471 17.0988 322.008 16.8995C321.546 16.7002 321.034 16.6433 320.538 16.7361C320.043 16.8289 319.587 17.0673 319.227 17.4207C318.868 17.7741 318.622 18.2265 318.521 18.7203C318.42 19.214 318.469 19.7267 318.66 20.1928C318.852 20.6589 319.178 21.0573 319.597 21.3372C320.016 21.6171 320.509 21.7658 321.013 21.7642C321.343 21.7697 321.671 21.7095 321.977 21.587C322.284 21.4645 322.563 21.2823 322.798 21.0509C323.033 20.8195 323.22 20.5436 323.348 20.2392C323.475 19.9349 323.541 19.6082 323.541 19.2782Z" fill="white" stroke="#263238" stroke-miterlimit="10"/>
<path d="M334.015 19.2782C334.023 18.7766 333.882 18.284 333.609 17.8629C333.337 17.4418 332.945 17.1115 332.484 16.9138C332.023 16.7161 331.513 16.6601 331.02 16.7529C330.527 16.8457 330.073 17.0831 329.716 17.4349C329.358 17.7866 329.113 18.2369 329.012 18.7282C328.911 19.2196 328.959 19.7299 329.149 20.1942C329.339 20.6584 329.663 21.0556 330.079 21.3352C330.496 21.6148 330.986 21.7642 331.488 21.7642C331.818 21.7697 332.145 21.7095 332.452 21.587C332.758 21.4645 333.037 21.2823 333.272 21.0509C333.508 20.8195 333.694 20.5436 333.822 20.2392C333.949 19.9349 334.015 19.6082 334.015 19.2782Z" fill="white" stroke="#263238" stroke-miterlimit="10"/>
<path d="M344.489 19.2782C344.498 18.7766 344.356 18.284 344.084 17.8629C343.811 17.4418 343.419 17.1115 342.958 16.9138C342.497 16.7161 341.988 16.6601 341.495 16.7529C341.002 16.8457 340.548 17.0831 340.19 17.4349C339.832 17.7866 339.587 18.2369 339.487 18.7282C339.386 19.2196 339.433 19.7299 339.623 20.1942C339.813 20.6584 340.137 21.0556 340.554 21.3352C340.97 21.6148 341.46 21.7642 341.962 21.7642C342.292 21.7697 342.62 21.7095 342.926 21.587C343.232 21.4645 343.511 21.2823 343.747 21.0509C343.982 20.8195 344.169 20.5436 344.296 20.2392C344.424 19.9349 344.489 19.6082 344.489 19.2782Z" fill="white" stroke="#263238" stroke-miterlimit="10"/>
<path d="M337.562 46.4091H64.8357V217.084H337.562V46.4091Z" fill="white" stroke="#263238" stroke-miterlimit="10"/>
<path d="M330.601 53.4778H71.7883V209.998H330.601V53.4778Z" stroke="#D5B9DB" stroke-width="5" stroke-miterlimit="10"/>
<path d="M323.988 61.3087H78.4012V202.184H323.988V61.3087Z" stroke="#D5B9DB" stroke-miterlimit="10"/>
<path d="M140.941 98.9473H264.307" stroke="#263238" stroke-miterlimit="10"/>
<path d="M307.381 114.684H315.917" stroke="#263238" stroke-miterlimit="10"/>
<path d="M234.35 114.684H302.873" stroke="#263238" stroke-miterlimit="10"/>
<path d="M194.681 114.684H230.439" stroke="#263238" stroke-miterlimit="10"/>
<path d="M141.48 114.684H191.068" stroke="#263238" stroke-miterlimit="10"/>
<path d="M109.319 114.684H136.367" stroke="#263238" stroke-miterlimit="10"/>
<path d="M89.3315 114.684H105.416" stroke="#263238" stroke-miterlimit="10"/>
<path d="M191.971 122.233H315.917" stroke="#263238" stroke-miterlimit="10"/>
<path d="M95.7952 122.233H188.068" stroke="#263238" stroke-miterlimit="10"/>
<path d="M89.3315 122.233H92.1905" stroke="#263238" stroke-miterlimit="10"/>
<path d="M306.478 129.782H315.917" stroke="#263238" stroke-miterlimit="10"/>
<path d="M255.688 129.782H301.97" stroke="#263238" stroke-miterlimit="10"/>
<path d="M185.657 129.782H252.084" stroke="#263238" stroke-miterlimit="10"/>
<path d="M175.439 129.782H181.754" stroke="#263238" stroke-miterlimit="10"/>
<path d="M89.3315 129.782H170.028" stroke="#263238" stroke-miterlimit="10"/>
<path d="M278.228 137.34H315.917" stroke="#263238" stroke-miterlimit="10"/>
<path d="M143.585 137.34H274.624" stroke="#263238" stroke-miterlimit="10"/>
<path d="M131.561 137.34H138.779" stroke="#263238" stroke-miterlimit="10"/>
<path d="M89.3315 137.34H127.658" stroke="#263238" stroke-miterlimit="10"/>
<path d="M292.357 144.889H315.917" stroke="#263238" stroke-miterlimit="10"/>
<path d="M191.673 144.889H287.551" stroke="#263238" stroke-miterlimit="10"/>
<path d="M153.198 144.889H187.165" stroke="#263238" stroke-miterlimit="10"/>
<path d="M99.3998 144.889H148.69" stroke="#263238" stroke-miterlimit="10"/>
<path d="M89.3315 144.889H96.4002" stroke="#263238" stroke-miterlimit="10"/>
<path d="M98.4883 178.152L106.261 198.347L110.023 189.215L119.164 192.936L110.231 173.976L98.4883 178.152Z" fill="#263238" stroke="#263238" stroke-linecap="round" stroke-linejoin="round"/>
<path d="M95.7123 173.76L86.3068 193.243L95.5382 189.754L99.0767 198.96L106.8 179.478L95.7123 173.76Z" fill="#263238" stroke="#263238" stroke-linecap="round" stroke-linejoin="round"/>
<path d="M119.139 168.855C119.139 168.117 120.738 167.272 120.639 166.559C120.539 165.846 118.766 165.474 118.559 164.786C118.352 164.098 119.644 162.822 119.346 162.167C119.048 161.512 117.241 161.662 116.86 161.048C116.479 160.435 117.349 158.861 116.86 158.314C116.371 157.767 114.697 158.421 114.15 157.941C113.603 157.46 114.018 155.712 113.405 155.314C112.791 154.916 111.366 156.027 110.695 155.72C110.024 155.413 109.941 153.615 109.236 153.408C108.532 153.201 107.488 154.668 106.75 154.568C106.013 154.469 105.433 152.762 104.695 152.762C103.958 152.762 103.353 154.469 102.64 154.568C101.927 154.668 100.85 153.209 100.154 153.408C99.4579 153.607 99.3253 155.422 98.6872 155.72C98.0492 156.018 96.599 154.891 95.9858 155.314C95.3725 155.737 95.7869 157.468 95.2399 157.949C94.693 158.43 93.0025 157.767 92.5302 158.314C92.0578 158.861 92.9362 160.435 92.5302 161.048C92.1241 161.662 90.3342 161.504 90.0441 162.167C89.7541 162.83 91.0385 164.081 90.8314 164.786C90.6242 165.49 88.8591 165.838 88.7514 166.559C88.6437 167.28 90.2513 168.117 90.2513 168.855C90.2513 169.592 88.652 170.429 88.7514 171.142C88.8508 171.854 90.6242 172.227 90.8314 172.923C91.0385 173.619 89.7375 174.879 90.0441 175.534C90.3507 176.188 92.149 176.047 92.5302 176.652C92.9114 177.257 92.033 178.84 92.5302 179.387C93.0274 179.934 94.6847 179.279 95.2399 179.76C95.7952 180.241 95.3725 181.989 95.9858 182.387C96.599 182.785 98.0243 181.674 98.6872 181.981C99.3502 182.287 99.4496 184.086 100.154 184.293C100.858 184.5 101.903 183.033 102.64 183.141C103.378 183.249 103.958 184.939 104.695 184.939C105.433 184.939 106.038 183.24 106.75 183.141C107.463 183.041 108.54 184.492 109.236 184.293C109.932 184.094 110.065 182.279 110.703 181.981C111.341 181.682 112.791 182.809 113.405 182.387C114.018 181.964 113.603 180.232 114.15 179.76C114.697 179.288 116.388 179.934 116.86 179.387C117.332 178.84 116.454 177.266 116.86 176.652C117.266 176.039 119.056 176.197 119.346 175.534C119.636 174.871 118.352 173.619 118.559 172.915C118.766 172.211 120.531 171.871 120.639 171.142C120.747 170.412 119.139 169.592 119.139 168.855Z" fill="#D5B9DB" stroke="#263238" stroke-miterlimit="10"/>
<path d="M104.712 178.848C110.231 178.848 114.706 174.374 114.706 168.854C114.706 163.335 110.231 158.861 104.712 158.861C99.1923 158.861 94.7179 163.335 94.7179 168.854C94.7179 174.374 99.1923 178.848 104.712 178.848Z" fill="#263238" stroke="#263238" stroke-linecap="round" stroke-linejoin="round"/>
<path d="M104.712 161.985L106.253 166.733H111.242L107.206 169.658L108.747 174.407L104.712 171.473L100.676 174.407L102.217 169.658L98.1818 166.733H103.17L104.712 161.985Z" fill="#D5B9DB"/>
<path d="M130.898 164.065H169.017" stroke="#263238" stroke-miterlimit="10"/>
<path d="M130.898 173.172H169.017" stroke="#263238" stroke-miterlimit="10"/>
<path d="M294.612 185.685C302.438 185.685 308.782 179.341 308.782 171.515C308.782 163.688 302.438 157.344 294.612 157.344C286.785 157.344 280.441 163.688 280.441 171.515C280.441 179.341 286.785 185.685 294.612 185.685Z" stroke="#D5B9DB" stroke-miterlimit="10"/>
<path d="M296.663 180.925C301.849 179.789 305.133 174.665 303.997 169.478C302.862 164.292 297.737 161.009 292.551 162.144C287.365 163.28 284.081 168.404 285.217 173.59C286.352 178.776 291.477 182.06 296.663 180.925Z" fill="#D5B9DB"/>
<path d="M341.274 330.952C341.274 330.952 338.374 325.98 336.924 323.287C335.912 321.337 335.012 319.331 334.23 317.279C334.23 317.279 337.752 319.351 338.788 320.179C339.824 321.008 344.175 326.187 344.175 326.187L345.418 324.737L343.967 319.972L348.732 325.358L351.011 315.622L354.533 324.944L361.162 316.657L361.577 324.944L369.656 318.522L366.756 328.673L363.649 333.024H341.481L341.274 330.952Z" fill="#D5B9DB" stroke="#263238" stroke-miterlimit="10"/>
<path d="M340.031 330.952C340.031 330.952 338.167 330.123 335.059 326.394C333.075 323.978 331.274 321.415 329.673 318.729C329.673 318.729 336.717 322.665 339.203 324.53C341.324 326.343 343.266 328.354 345.003 330.538C345.003 330.538 342.932 325.359 342.725 322.873C342.517 320.386 342.31 315 342.31 315C342.31 315 348.318 321.008 348.732 322.665C349.147 324.323 351.426 329.916 351.426 329.916C352.113 327.392 352.666 324.834 353.083 322.251C353.497 319.143 356.812 314.171 356.812 314.171C356.812 314.171 357.226 317.693 357.434 321.215C357.641 324.737 355.569 331.366 355.569 331.366C355.569 331.366 358.262 324.944 360.955 321.837C363.07 319.527 365.355 317.38 367.792 315.414C367.792 315.414 365.72 321.837 364.892 324.737C364.117 326.995 363.074 329.151 361.784 331.159C363.728 328.702 365.803 326.351 367.999 324.116C370.021 322.498 372.169 321.043 374.421 319.765C374.421 319.765 372.143 324.116 370.485 326.602C368.939 328.76 367.279 330.834 365.513 332.817H340.031V330.952Z" fill="#D5B9DB" stroke="#263238" stroke-miterlimit="10"/>
<path d="M369.201 330.538L367.767 343.175L365.306 364.787H339.344L336.883 343.175L335.449 330.538H369.201Z" fill="white" stroke="#263238" stroke-miterlimit="10"/>
<path d="M367.767 343.175L365.306 364.787H339.343L336.882 343.175H367.767Z" fill="#D5B9DB" stroke="#263238" stroke-miterlimit="10"/>
<path d="M341.689 349.183C342.375 349.183 342.932 348.626 342.932 347.94C342.932 347.253 342.375 346.697 341.689 346.697C341.002 346.697 340.446 347.253 340.446 347.94C340.446 348.626 341.002 349.183 341.689 349.183Z" fill="#263238"/>
<path d="M350.804 349.183C351.49 349.183 352.047 348.626 352.047 347.94C352.047 347.253 351.49 346.697 350.804 346.697C350.117 346.697 349.561 347.253 349.561 347.94C349.561 348.626 350.117 349.183 350.804 349.183Z" fill="#263238"/>
<path d="M345.211 355.605C345.897 355.605 346.454 355.049 346.454 354.362C346.454 353.676 345.897 353.119 345.211 353.119C344.524 353.119 343.968 353.676 343.968 354.362C343.968 355.049 344.524 355.605 345.211 355.605Z" fill="#263238"/>
<path d="M356.191 355.605C356.877 355.605 357.434 355.049 357.434 354.362C357.434 353.676 356.877 353.119 356.191 353.119C355.504 353.119 354.948 353.676 354.948 354.362C354.948 355.049 355.504 355.605 356.191 355.605Z" fill="#263238"/>
<path d="M363.442 355.605C364.128 355.605 364.685 355.049 364.685 354.362C364.685 353.676 364.128 353.119 363.442 353.119C362.755 353.119 362.198 353.676 362.198 354.362C362.198 355.049 362.755 355.605 363.442 355.605Z" fill="#263238"/>
<path d="M359.92 349.183C360.606 349.183 361.163 348.626 361.163 347.94C361.163 347.253 360.606 346.697 359.92 346.697C359.233 346.697 358.677 347.253 358.677 347.94C358.677 348.626 359.233 349.183 359.92 349.183Z" fill="#263238"/>
<path d="M341.689 360.784C342.375 360.784 342.932 360.228 342.932 359.541C342.932 358.855 342.375 358.298 341.689 358.298C341.002 358.298 340.446 358.855 340.446 359.541C340.446 360.228 341.002 360.784 341.689 360.784Z" fill="#263238"/>
<path d="M350.804 360.784C351.49 360.784 352.047 360.228 352.047 359.541C352.047 358.855 351.49 358.298 350.804 358.298C350.117 358.298 349.561 358.855 349.561 359.541C349.561 360.228 350.117 360.784 350.804 360.784Z" fill="#263238"/>
<path d="M359.92 360.784C360.606 360.784 361.163 360.228 361.163 359.541C361.163 358.855 360.606 358.298 359.92 358.298C359.233 358.298 358.677 358.855 358.677 359.541C358.677 360.228 359.233 360.784 359.92 360.784Z" fill="#263238"/>
<path d="M215.464 224.767C215.479 218.451 212.142 213.323 208.009 213.313C203.876 213.303 200.514 218.414 200.498 224.73C200.483 231.046 203.82 236.174 207.953 236.184C212.086 236.194 215.449 231.083 215.464 224.767Z" fill="white" stroke="#263238" stroke-linecap="round" stroke-linejoin="round"/>
<path d="M217.379 196.118C217.379 196.118 213.343 198.43 209.498 195.927C205.653 193.425 208.346 192.281 209.117 190.74C209.887 189.199 207.965 188.817 207.575 186.704C207.186 184.591 208.537 182.859 209.307 182.669C210.078 182.478 209.887 180.357 209.887 178.243C209.887 176.13 212.373 174.208 213.534 174.208C214.694 174.208 215.456 172.675 216.227 170.752C216.997 168.83 218.539 167.098 221.199 168.266C223.859 169.435 225.234 169.418 226.585 167.495C227.936 165.573 231.193 165.192 232.386 166.153C233.579 167.114 234.11 169.037 236.422 167.114C238.734 165.192 241.609 165.581 242.952 166.924C244.294 168.266 244.103 169.807 246.266 169.037C248.429 168.266 251.835 169.418 252.606 171.73C253.376 174.042 257.578 176.536 259.144 175.956C260.71 175.376 263.37 175.956 262.019 178.84C260.669 181.724 262.218 183.646 263.37 183.646C264.522 183.646 267.025 184.417 265.674 186.911C264.323 189.406 263.37 191.337 264.903 192.099C266.436 192.861 268.939 193.06 267.025 196.333C265.11 199.607 263.561 199.408 264.141 201.306C264.721 203.203 265.865 203.792 264.141 205.151C262.417 206.51 260.296 207.073 260.296 208.225C260.296 209.377 262.6 209.949 259.906 210.91C258.353 211.477 256.741 211.866 255.1 212.07C255.1 212.07 251.263 201.687 240.3 198.231C229.336 194.776 223.005 195.148 220.503 196.499C218 197.85 217.379 196.118 217.379 196.118Z" fill="#263238" stroke="#263238" stroke-linecap="round" stroke-linejoin="round"/>
<path d="M221.249 266.589L207.161 273.086C207.161 273.086 199.877 313.409 200.399 324.596C200.921 335.783 207.161 363.619 207.161 363.619H241.004C241.004 363.619 235.8 329.535 238.402 317.312C241.004 305.089 247.253 271.528 247.253 271.528C247.253 271.528 236.844 268.669 233.72 268.147C230.596 267.625 221.249 266.589 221.249 266.589Z" fill="white" stroke="#263238" stroke-miterlimit="10"/>
<path d="M205.089 285.425L244.037 288.789C243.722 290.446 243.408 292.104 243.084 293.761L204.302 290.446C204.543 288.69 204.833 287.007 205.089 285.425ZM238.419 317.279C238.717 315.87 239.065 314.18 239.446 312.307L201.609 309.042C201.394 310.782 201.203 312.464 201.029 314.064L238.419 317.304V317.279ZM241.734 300.523L203.208 297.208C202.96 298.866 202.711 300.523 202.479 302.23L240.756 305.545C241.112 303.937 241.435 302.263 241.767 300.556L241.734 300.523ZM200.424 321.439C200.374 322.632 200.366 323.685 200.424 324.563C200.424 325.168 200.499 325.823 200.557 326.51L237.69 328.88C237.69 327.107 237.69 325.4 237.69 323.809L200.424 321.439ZM207.401 272.945L207.169 273.052C207.169 273.052 206.838 274.909 206.341 277.933L245.421 281.314C245.769 279.433 246.092 277.743 246.358 276.342L207.401 272.945ZM238.891 347.045L203.714 346.672C204.045 348.429 204.385 350.128 204.708 351.744L239.513 352.141C239.347 350.55 239.132 348.843 238.949 347.111L238.891 347.045ZM202.206 338.692L238.311 340.813C238.168 339.117 238.043 337.419 237.938 335.717L201.385 333.571C201.684 335.253 201.965 336.977 202.264 338.725L202.206 338.692Z" fill="#263238"/>
<path d="M219.169 259.271C219.169 259.271 216.31 270.193 216.053 275.92C215.796 281.646 221.771 286.319 230.356 285.541C238.941 284.762 240.499 275.398 240.499 273.052C240.499 270.707 241.004 250.985 241.004 250.985C238.126 253.447 235.08 255.707 231.889 257.747C226.975 260.863 219.169 259.271 219.169 259.271Z" fill="#B5B5B5" stroke="#263238" stroke-miterlimit="10"/>
<path d="M226.975 268.669C235.104 264.774 239.156 257.125 240.988 252.269C240.988 251.44 240.988 250.976 240.988 250.976C238.11 253.439 235.064 255.698 231.872 257.738C226.9 260.863 219.127 259.305 219.127 259.305C219.127 259.305 217.346 266.133 216.467 271.818C220.12 271.359 223.671 270.295 226.975 268.669Z" fill="#263238" stroke="#263238" stroke-miterlimit="10"/>
<path d="M254.835 217.539C254.835 217.539 254.504 206.004 250.219 199.408C245.935 192.812 236.902 188.776 226.817 190.491C214.304 192.646 208.686 202.026 206.705 209.94C204.725 217.854 207.037 229.389 207.037 237.287C207.037 245.184 216.268 259.371 218.904 261.683C221.539 263.995 225.608 264.757 230.256 262.404C234.524 260.233 241.543 252.849 245.827 248.565C250.112 244.281 252.664 231.536 253.327 228.569C253.99 225.602 254.835 217.539 254.835 217.539Z" fill="#B5B5B5" stroke="#263238" stroke-linecap="round" stroke-linejoin="round"/>
<path d="M219.881 239.947C219.881 239.947 219.492 242.433 225.259 242.06" stroke="#263238" stroke-linecap="round" stroke-linejoin="round"/>
<path d="M218.149 246.477C218.149 246.477 224.878 251.092 231.607 246.676" stroke="#263238" stroke-linecap="round" stroke-linejoin="round"/>
<path d="M231.607 231.096C231.607 231.096 233.331 228.213 238.336 230.707" stroke="#263238" stroke-width="2" stroke-linecap="round" stroke-linejoin="round"/>
<path d="M218.149 229.373C218.149 230.757 217.503 231.859 216.707 231.859C215.912 231.859 215.266 230.74 215.266 229.373C215.266 228.005 215.912 226.887 216.707 226.887C217.503 226.887 218.149 227.997 218.149 229.373Z" fill="#263238"/>
<path d="M212 221.492C212 221.492 213.732 217.647 219.459 219.57" stroke="#263238" stroke-linecap="round" stroke-linejoin="round"/>
<path d="M229.104 221.152C229.104 221.152 234.491 218.269 240.449 222.685" stroke="#263238" stroke-linecap="round" stroke-linejoin="round"/>
<path d="M226.817 190.491C214.304 192.646 208.686 202.026 206.705 209.94C206.291 211.697 206.047 213.49 205.976 215.294C206.622 213.28 209.979 204.446 219.492 202.035C230.265 199.35 239.678 202.805 242.943 207.421C246.208 212.037 245.429 217.995 246.598 220.879C247.327 222.702 250.99 225.453 253.584 227.227C254.18 223.688 254.835 217.498 254.835 217.498C254.835 217.498 254.503 205.963 250.219 199.366C245.935 192.77 236.902 188.776 226.817 190.491Z" fill="#263238" stroke="#263238" stroke-linecap="round" stroke-linejoin="round"/>
<path d="M251.595 219.57C251.595 219.57 252.556 209.385 249.672 202.656C246.789 195.927 243.333 193.044 243.333 193.044C243.333 193.044 251.404 197.278 254.288 201.33C257.172 205.383 257.553 215.169 256.774 221.898L250.816 220.937L251.595 219.57Z" fill="#D5B9DB" stroke="#263238" stroke-miterlimit="10"/>
<path d="M259.343 229.563C258.183 235.77 253.948 240.187 249.88 239.433C245.811 238.679 243.466 233.019 244.626 226.812C245.786 220.605 250.02 216.189 254.081 216.943C258.141 217.697 260.503 223.357 259.343 229.563Z" fill="white" stroke="#263238" stroke-linecap="round" stroke-linejoin="round"/>
<path d="M258.608 230.36C259.488 225.65 257.703 221.365 254.621 220.789C251.54 220.214 248.328 223.566 247.448 228.276C246.569 232.986 248.354 237.271 251.435 237.847C254.517 238.423 257.728 235.071 258.608 230.36Z" fill="#D5B9DB" stroke="#263238" stroke-miterlimit="10"/>
<path d="M211.628 338.261C213.567 352.017 215.953 364.356 215.953 364.356H201.742C201.742 364.356 198.104 345.62 193.679 335.22C191.193 329.303 190.588 326.933 190.546 325.963C188.615 330.563 176.583 358.978 174.428 359.939C172.083 360.975 163.498 359.111 160.341 358.116C157.184 357.122 156.968 352.655 157.49 350.832C158.012 349.009 179.864 296.197 181.936 292.825C183.878 289.388 185.366 285.714 186.361 281.894C186.618 280.336 186.096 276.69 188.441 275.398C189.858 274.61 199.819 272.307 207.501 270.6C212.523 269.481 216.558 268.627 216.558 268.627C216.558 268.627 210.343 291.772 209.283 308.163C208.827 315.431 210.111 327.298 211.628 338.253C211.636 338.253 211.636 338.253 211.628 338.261Z" fill="#D5B9DB" stroke="#263238" stroke-miterlimit="10"/>
<path d="M211.628 338.253C209.838 335.311 202.579 322.682 201.609 309.531C200.739 297.73 205.446 278.364 207.517 270.583C212.539 269.464 216.575 268.611 216.575 268.611C216.575 268.611 210.343 291.772 209.283 308.164C208.827 315.431 210.078 327.298 211.628 338.253Z" fill="#D5B9DB" stroke="#263238" stroke-miterlimit="10"/>
<path d="M192.552 298.7C193.198 295.891 193.679 294.374 193.679 294.374" stroke="#263238" stroke-miterlimit="10"/>
<path d="M190.82 325.334C190.82 325.334 189.253 319.864 190.555 309.987C190.903 307.376 191.275 305.056 191.648 303.059" stroke="#263238" stroke-miterlimit="10"/>
<path d="M305.277 327.613C299.294 327.347 269.378 308.71 269.378 308.71C269.378 308.71 260.006 327.074 259.749 330.803C259.492 334.532 267.033 364.356 267.033 364.356H235.038C235.038 364.356 234.068 353.89 233.869 342.413C233.778 337.117 233.869 331.64 234.259 326.809C235.56 311.636 240.756 268.801 240.756 268.801L245.968 269.332C245.968 269.332 247.443 269.829 249.755 270.633C255.912 272.771 267.986 277.146 273.281 280.245C280.557 284.505 290.684 291.432 295.656 294.631C300.628 297.83 312.304 305.014 314.641 314.602C316.978 324.19 311.26 327.878 305.277 327.613Z" fill="#D5B9DB" stroke="#263238" stroke-miterlimit="10"/>
<path d="M249.755 270.6C249.051 281.256 246.979 306.639 242.513 318.92C238.237 330.662 235.162 338.941 233.869 342.413C233.778 337.117 233.869 331.64 234.259 326.809C235.56 311.636 240.756 268.801 240.756 268.801L245.968 269.332C245.968 269.332 247.443 269.796 249.755 270.6Z" stroke="#263238" stroke-miterlimit="10"/>
<path d="M269.378 308.702L257.412 304.981" stroke="#263238" stroke-miterlimit="10"/>
<path d="M252.357 296.918C252.705 300.854 253.791 305.205 256.633 307.641" stroke="#263238" stroke-miterlimit="10"/>
<path d="M252.465 288.739C252.297 290.231 252.212 291.73 252.208 293.231" stroke="#263238" stroke-miterlimit="10"/>
<path d="M250.948 302.578C250.948 302.578 253.807 307.907 257.188 309.771" stroke="#263238" stroke-miterlimit="10"/>
<path d="M268.873 264.442C268.391 262.49 268.141 260.487 268.127 258.476C268.127 255.269 268.872 253.462 267.704 253.57C266.536 253.678 264.497 255.169 263.859 257.713C263.221 260.258 264.605 262.619 264.82 263.473C264.951 263.996 265.023 264.533 265.036 265.072C265.036 265.072 255.755 265.387 254.047 265.387C252.34 265.387 250.633 266.348 250.633 267.948C250.633 269.547 252.448 270.434 252.448 270.434L253.277 270.865C253.277 270.865 252.208 272.887 252.954 273.956C253.366 274.565 253.872 275.105 254.454 275.555C254.23 275.878 254.092 276.254 254.054 276.646C254.017 277.037 254.08 277.432 254.238 277.792C254.514 278.519 254.995 279.149 255.622 279.607C255.622 279.607 254.238 280.892 256.053 282.599C257.868 284.306 261.812 284.413 264.58 284.413C267.348 284.413 269.701 284.513 269.701 284.513L270.878 284.621L280.689 299.239L289.971 288.888C289.971 288.888 276.314 275.63 274.499 273.318C272.684 271.005 268.873 264.442 268.873 264.442Z" fill="#B5B5B5" stroke="#263238" stroke-miterlimit="10"/>
<path d="M289.664 287.654L276.919 299.62C276.919 299.62 288.628 315.232 294.868 323.08C301.108 330.927 312.561 332.195 317.5 328.275C322.438 324.356 322.969 315.53 318.544 310.045C314.119 304.559 289.664 287.654 289.664 287.654Z" fill="#D5B9DB" stroke="#263238" stroke-miterlimit="10"/>
<path d="M204.377 350.509C204.377 350.509 223.088 353.741 224.837 353.741C226.585 353.741 245.048 349.001 246.291 349.995C247.534 350.99 255.771 357.984 257.768 359.981C258.955 361.159 259.963 362.505 260.76 363.975H243.548L238.311 362.724C238.311 362.724 233.869 364.779 231.375 364.779C228.881 364.779 220.528 364.298 220.528 364.298L205.827 364.058C205.827 364.058 200.88 355.746 204.377 350.509Z" fill="#B5B5B5" stroke="#263238" stroke-miterlimit="10"/>
<path d="M248.785 363.983C248.785 363.983 244.543 359.243 242.802 357.992C241.748 357.23 240.582 356.634 239.347 356.227" stroke="#263238" stroke-miterlimit="10"/>
<path d="M254.528 364.232C254.528 364.232 246.291 355.249 245.297 354.495C244.196 353.857 243.022 353.356 241.8 353.003" stroke="#263238" stroke-miterlimit="10"/>
<path d="M163.457 342.023C163.457 342.023 155.999 348.014 154.722 351.967C153.446 355.92 155.22 360.702 159.214 362.201C163.208 363.701 207.758 364.513 207.758 364.513C207.029 364.853 203.764 361.795 205.62 357.71C206.879 354.942 210.36 350.973 210.36 350.973L173.185 341.493" fill="#D5B9DB"/>
<path d="M163.457 342.023C163.457 342.023 155.999 348.014 154.722 351.967C153.446 355.92 155.22 360.702 159.214 362.201C163.208 363.701 207.758 364.513 207.758 364.513C207.029 364.853 203.764 361.795 205.62 357.71C206.879 354.942 210.36 350.973 210.36 350.973L173.185 341.493" stroke="#263238" stroke-miterlimit="10"/>
<path d="M226.304 362.823H73.4126V364.787H226.304V362.823Z" fill="#263238" stroke="#263238" stroke-miterlimit="10"/>
<path d="M170.84 364.787H75.4842L66.6671 298.476H162.023L170.84 364.787Z" fill="white" stroke="#263238" stroke-miterlimit="10"/>
<path d="M168.901 364.787H73.5533L64.7362 298.476H160.084L168.901 364.787Z" fill="white" stroke="#263238" stroke-miterlimit="10"/>
<path d="M80.9203 364.787H168.611L161.982 314.735C150.247 322.193 135.953 331.847 120.374 343.739C108.499 352.922 95.1609 360.038 80.9203 364.787Z" fill="#263238" stroke="#263238" stroke-miterlimit="10"/>
<path d="M113.786 336.794C117.246 336.794 120.05 334.205 120.05 331.01C120.05 327.816 117.246 325.226 113.786 325.226C110.326 325.226 107.521 327.816 107.521 331.01C107.521 334.205 110.326 336.794 113.786 336.794Z" fill="white" stroke="#263238" stroke-miterlimit="10"/>
<path d="M0 364.787H382.708" stroke="#263238" stroke-miterlimit="10"/>
</svg>
