<svg width="342" height="321" viewBox="0 0 342 321" fill="none" xmlns="http://www.w3.org/2000/svg">
<path d="M222.915 15.99C222.915 15.99 170.049 -2.80922 118.162 27.1247C66.2755 57.0586 40.1157 116.472 17.6027 164.091C-4.91023 211.71 8.06682 260.081 47.672 282.159C87.2772 304.237 114.217 271.691 169.787 270.095C225.356 268.498 240.298 276.482 286.41 245.065C332.521 213.648 340.858 139.508 304.481 84.679C268.104 29.8498 222.915 15.99 222.915 15.99Z" fill="#CC7267"/>
<path opacity="0.7" d="M222.915 15.99C222.915 15.99 170.049 -2.80922 118.162 27.1247C66.2755 57.0586 40.1157 116.472 17.6027 164.091C-4.91023 211.71 8.06682 260.081 47.672 282.159C87.2772 304.237 114.217 271.691 169.787 270.095C225.356 268.498 240.298 276.482 286.41 245.065C332.521 213.648 340.858 139.508 304.481 84.679C268.104 29.8498 222.915 15.99 222.915 15.99Z" fill="white"/>
<path d="M334.111 0.944946H181.565V198.425H334.111V0.944946Z" stroke="#263238" stroke-linecap="round" stroke-linejoin="round"/>
<path d="M220.588 0.945068V198.425" stroke="#263238" stroke-linecap="round" stroke-linejoin="round"/>
<path d="M259.611 0.945068V198.425" stroke="#263238" stroke-linecap="round" stroke-linejoin="round"/>
<path d="M298.635 0.945068V198.425" stroke="#263238" stroke-linecap="round" stroke-linejoin="round"/>
<path d="M181.92 61.2528H333.401" stroke="#263238" stroke-linecap="round" stroke-linejoin="round"/>
<path d="M181.579 134.562H333.401" stroke="#263238" stroke-linecap="round" stroke-linejoin="round"/>
<path d="M318.828 162.253V116.146" stroke="#CC7267" stroke-linecap="round" stroke-linejoin="round"/>
<path d="M318.501 158.094C318.501 158.094 316.075 154.631 312.96 152.892C309.845 151.154 304.637 151.161 304.637 151.161C304.637 151.161 307.39 161.217 318.501 158.094Z" fill="#CC7267"/>
<path d="M318.828 158.094C318.828 158.094 321.254 154.631 324.376 152.892C327.498 151.154 332.692 151.161 332.692 151.161C332.692 151.161 329.918 161.217 318.828 158.094Z" fill="#CC7267"/>
<path d="M318.501 145.618C318.501 145.618 316.075 142.148 312.96 140.417C309.845 138.685 304.637 138.685 304.637 138.685C304.637 138.685 307.39 148.734 318.501 145.618Z" fill="#CC7267"/>
<path d="M318.828 145.618C318.828 145.618 321.254 142.148 324.376 140.417C327.498 138.685 332.692 138.685 332.692 138.685C332.692 138.685 329.918 148.734 318.828 145.618Z" fill="#CC7267"/>
<path d="M318.501 133.135C318.501 133.135 316.075 129.672 312.96 127.934C309.845 126.195 304.637 126.202 304.637 126.202C304.637 126.202 307.39 136.258 318.501 133.135Z" fill="#CC7267"/>
<path d="M318.828 133.135C318.828 133.135 321.254 129.672 324.376 127.934C327.498 126.195 332.692 126.202 332.692 126.202C332.692 126.202 329.918 136.258 318.828 133.135Z" fill="#CC7267"/>
<path d="M318.501 120.652C318.501 120.652 316.075 117.189 312.96 115.457C309.845 113.726 304.637 113.719 304.637 113.719C304.637 113.719 307.39 123.775 318.501 120.652Z" fill="#CC7267"/>
<path d="M318.828 120.652C318.828 120.652 321.254 117.189 324.376 115.457C327.498 113.726 332.692 113.719 332.692 113.719C332.692 113.719 329.918 123.775 318.828 120.652Z" fill="#CC7267"/>
<path d="M318.828 116.146C318.828 116.146 316.054 112.413 315.912 108.85C315.77 105.288 318.118 100.64 318.118 100.64C318.118 100.64 326.611 107.658 318.828 116.146Z" fill="#CC7267"/>
<path d="M311.889 161.394H325.334L321.971 198.184H315.252L311.889 161.394Z" fill="#263238" stroke="#263238" stroke-linecap="round" stroke-linejoin="round"/>
<path d="M117.659 51.7673L115.254 51.777L115.599 137.781L118.004 137.772L117.659 51.7673Z" fill="#A8A8A8" stroke="#263238" stroke-linecap="round" stroke-linejoin="round"/>
<path d="M118.588 138.784C118.591 138.815 118.591 138.846 118.588 138.877C118.521 139.089 118.413 139.285 118.269 139.455C118.125 139.625 117.949 139.764 117.751 139.864C117.552 139.965 117.336 140.025 117.114 140.04C116.893 140.056 116.67 140.027 116.459 139.955L102.397 135.392C100.056 134.622 97.9421 133.284 96.2453 131.496C94.7301 129.905 93.8887 127.789 93.8968 125.592L93.989 56.7535C93.9901 54.6348 94.7761 52.5917 96.1953 51.0189C97.6145 49.446 99.5661 48.4551 101.673 48.2374L117.282 46.6123C117.502 46.5894 117.725 46.6102 117.936 46.6732C118.148 46.7363 118.346 46.8405 118.517 46.9799C118.689 47.1193 118.831 47.2911 118.937 47.4855C119.042 47.68 119.108 47.8933 119.131 48.1132C119.154 48.3332 119.133 48.5555 119.07 48.7674C119.007 48.9793 118.903 49.1768 118.763 49.3484C118.624 49.5201 118.452 49.6626 118.258 49.7679C118.063 49.8732 117.85 49.9391 117.63 49.9619L102.021 51.5871C100.74 51.7188 99.5545 52.3206 98.6922 53.2762C97.8299 54.2318 97.3524 55.4733 97.3521 56.7606L97.2599 125.599C97.2541 126.934 97.7622 128.219 98.6789 129.19C99.9902 130.57 101.624 131.604 103.433 132.199L117.488 136.762C117.894 136.896 118.234 137.18 118.438 137.555C118.643 137.931 118.696 138.371 118.588 138.784Z" fill="#787878" stroke="#263238" stroke-linecap="round" stroke-linejoin="round"/>
<path d="M118.091 55.3197C117.969 55.6952 117.719 56.0159 117.385 56.2261C117.051 56.4364 116.653 56.5229 116.262 56.4706C115.871 56.4183 115.51 56.2305 115.243 55.9399C114.976 55.6492 114.819 55.2741 114.799 54.8797L114.593 48.9682C114.586 48.7473 114.622 48.5271 114.7 48.3202C114.777 48.1133 114.895 47.9237 115.046 47.7622C115.197 47.6008 115.378 47.4706 115.579 47.3792C115.78 47.2878 115.997 47.2369 116.218 47.2295C116.439 47.222 116.659 47.2581 116.866 47.3358C117.073 47.4134 117.262 47.531 117.424 47.682C117.585 47.8329 117.715 48.0141 117.807 48.2153C117.898 48.4165 117.949 48.6337 117.956 48.8546L118.162 54.7662C118.167 54.9532 118.143 55.1399 118.091 55.3197Z" fill="#A8A8A8" stroke="#263238" stroke-linecap="round" stroke-linejoin="round"/>
<path d="M110.315 25.1517C109.833 25.7762 109.669 26.7981 108.187 27.6852C106.704 28.5723 103.454 29.0052 101.801 30.5239C100.148 32.0426 97.9411 32.1774 97.2671 31.8936C96.593 31.6097 95.848 30.7723 95.6707 31.4748C95.4123 32.5437 95.5301 33.6691 96.0041 34.6613C96.6143 35.9955 98.2036 37.2729 98.7712 38.3799C99.0318 38.7809 99.19 39.2397 99.2321 39.716C99.2741 40.1924 99.1987 40.6717 99.0125 41.1122C98.8474 41.4339 98.7698 41.7933 98.7872 42.1545C98.8046 42.5156 98.9166 42.8659 99.1118 43.1702C99.4311 43.5747 99.6865 43.4328 99.5233 44.0289C99.3601 44.625 98.9344 45.0508 98.8493 45.7747C98.7641 46.4986 99.2892 51.0192 99.2892 51.0192C99.2888 51.0724 99.2998 51.125 99.3213 51.1737C99.3428 51.2223 99.3744 51.2659 99.4139 51.3014C99.4535 51.337 99.5001 51.3637 99.5508 51.3799C99.6014 51.3961 99.655 51.4013 99.7078 51.3953L111.401 50.0611C111.492 50.0508 111.576 50.0076 111.637 49.9396C111.698 49.8717 111.733 49.7837 111.734 49.6921L111.812 41.6018C112.264 40.8042 112.784 40.0468 113.366 39.338C114.386 38.2281 114.957 36.779 114.969 35.2716C114.983 33.6113 114.487 31.9867 113.55 30.6161C112.841 29.6794 111.997 28.8207 112.082 28.0897C112.167 27.3588 112.905 26.1736 112.188 25.6626C111.472 25.1517 110.798 24.5343 110.315 25.1517ZM112.99 33.6677C113.919 35.8322 112.28 37.5425 109.776 38.5857C107.271 39.629 105.207 41.3393 102.752 40.9064C100.297 40.4735 100.006 38.3657 101.219 37.4077C101.219 37.4077 105.27 36.2296 107.605 34.1787C109.939 32.1277 112.068 31.4607 112.99 33.6606V33.6677Z" fill="#CC7267" stroke="#263238" stroke-miterlimit="10"/>
<path d="M100.574 49.4084C100.647 49.428 100.716 49.4621 100.775 49.5087C100.835 49.5552 100.885 49.6133 100.922 49.6795C100.959 49.7456 100.983 49.8185 100.991 49.8939C101 49.9693 100.993 50.0455 100.971 50.1183C100.934 50.2623 100.84 50.3854 100.712 50.4606C100.583 50.5359 100.43 50.557 100.286 50.5193C100.142 50.4817 100.019 50.3883 99.9439 50.2599C99.8686 50.1314 99.8475 49.9783 99.8852 49.8343C99.901 49.7603 99.9316 49.6903 99.9751 49.6285C100.019 49.5667 100.074 49.5143 100.139 49.4745C100.203 49.4347 100.275 49.4083 100.349 49.397C100.424 49.3856 100.501 49.3895 100.574 49.4084Z" fill="white" stroke="#263238" stroke-linecap="round" stroke-linejoin="round"/>
<path d="M110.67 48.4929C110.814 48.5305 110.937 48.6238 111.012 48.7523C111.088 48.8808 111.109 49.0338 111.071 49.1778C111.033 49.3219 110.94 49.445 110.812 49.5202C110.683 49.5955 110.53 49.6166 110.386 49.5789C110.315 49.5603 110.248 49.5278 110.189 49.4832C110.13 49.4387 110.081 49.3831 110.044 49.3195C110.006 49.2559 109.982 49.1855 109.972 49.1125C109.962 49.0395 109.966 48.9652 109.985 48.8939C110.004 48.8226 110.036 48.7557 110.081 48.6969C110.125 48.6382 110.181 48.5888 110.244 48.5515C110.308 48.5143 110.378 48.4899 110.451 48.4799C110.524 48.4698 110.599 48.4742 110.67 48.4929Z" fill="white" stroke="#263238" stroke-linecap="round" stroke-linejoin="round"/>
<path d="M151.375 114.003L148.969 114.01L148.629 51.7787L151.034 51.7716L151.375 114.003Z" fill="#A8A8A8" stroke="#263238" stroke-linecap="round" stroke-linejoin="round"/>
<path d="M151.964 115.01V115.103C151.895 115.314 151.786 115.509 151.642 115.678C151.498 115.847 151.322 115.986 151.124 116.087C150.927 116.188 150.711 116.248 150.49 116.266C150.269 116.283 150.046 116.257 149.835 116.188L135.758 111.654C133.416 110.886 131.302 109.547 129.607 107.758C128.092 106.166 127.25 104.051 127.258 101.853L127.351 56.8032C127.352 54.6845 128.138 52.6414 129.557 51.0686C130.976 49.4957 132.928 48.5048 135.035 48.2871L150.679 46.662C151.124 46.6158 151.568 46.7481 151.914 47.0296C152.261 47.311 152.482 47.7187 152.528 48.1629C152.574 48.6071 152.442 49.0514 152.16 49.3981C151.879 49.7448 151.471 49.9655 151.027 50.0116L135.382 51.6368C134.102 51.7685 132.916 52.3703 132.054 53.3259C131.191 54.2815 130.714 55.523 130.714 56.8103L130.621 101.86C130.626 103.18 131.133 104.449 132.04 105.409C133.352 106.789 134.985 107.823 136.794 108.418L150.85 112.988C151.258 113.119 151.601 113.402 151.809 113.778C152.016 114.154 152.071 114.595 151.964 115.01Z" fill="#787878" stroke="#263238" stroke-linecap="round" stroke-linejoin="round"/>
<path d="M151.467 55.3197C151.344 55.6955 151.094 56.0164 150.759 56.2264C150.424 56.4365 150.026 56.5224 149.635 56.4692C149.243 56.416 148.882 56.2271 148.616 55.9354C148.349 55.6436 148.193 55.2676 148.175 54.8726L147.969 48.9611C147.962 48.7402 147.998 48.52 148.075 48.3131C148.153 48.1062 148.271 47.9166 148.421 47.7552C148.572 47.5937 148.754 47.4636 148.955 47.3721C149.156 47.2807 149.373 47.2298 149.594 47.2224C149.815 47.2149 150.035 47.2511 150.242 47.3287C150.449 47.4063 150.638 47.524 150.8 47.6749C150.961 47.8258 151.091 48.007 151.182 48.2082C151.274 48.4094 151.325 48.6267 151.332 48.8475L151.538 54.7591C151.547 54.9487 151.523 55.1383 151.467 55.3197Z" fill="#A8A8A8" stroke="#263238" stroke-linecap="round" stroke-linejoin="round"/>
<path d="M143.691 25.1517C143.208 25.7762 143.045 26.7981 141.562 27.6852C140.079 28.5723 136.83 29.0052 135.177 30.5239C133.524 32.0426 131.317 32.1774 130.65 31.8936C129.983 31.6097 129.231 30.7723 129.046 31.4748C128.787 32.5444 128.908 33.6707 129.387 34.6613C129.997 35.9955 131.579 37.2729 132.147 38.3799C132.408 38.7809 132.566 39.2397 132.608 39.716C132.65 40.1924 132.575 40.6717 132.388 41.1122C132.223 41.4339 132.146 41.7933 132.163 42.1545C132.18 42.5156 132.292 42.8659 132.488 43.1702C132.807 43.5747 133.062 43.4328 132.906 44.0289C132.75 44.625 132.31 45.0508 132.197 45.7747C132.083 46.4986 132.63 51.0192 132.63 51.0192C132.629 51.0724 132.64 51.125 132.662 51.1737C132.683 51.2223 132.715 51.2659 132.754 51.3014C132.794 51.337 132.84 51.3637 132.891 51.3799C132.942 51.3961 132.995 51.4013 133.048 51.3953L144.741 50.0611C144.832 50.0508 144.916 50.0076 144.977 49.9396C145.039 49.8717 145.073 49.7837 145.074 49.6921L145.152 41.6018C145.608 40.8061 146.128 40.049 146.706 39.338C147.726 38.2281 148.298 36.779 148.31 35.2716C148.32 33.6117 147.825 31.9881 146.891 30.6161C146.181 29.6794 145.33 28.8207 145.415 28.0897C145.5 27.3588 146.238 26.1736 145.521 25.6626C144.805 25.1517 144.18 24.5343 143.691 25.1517ZM146.373 33.6677C147.295 35.8322 145.663 37.5425 143.152 38.5857C140.64 39.629 138.582 41.3393 136.135 40.9064C133.687 40.4735 133.382 38.3657 134.595 37.4077C134.595 37.4077 138.646 36.2296 140.981 34.1787C143.315 32.1277 145.443 31.4607 146.373 33.6606V33.6677Z" fill="#CC7267" stroke="#263238" stroke-miterlimit="10"/>
<path d="M133.949 49.4083C134.021 49.4269 134.088 49.4594 134.146 49.5039C134.205 49.5484 134.254 49.6041 134.292 49.6677C134.329 49.7313 134.353 49.8016 134.363 49.8746C134.373 49.9477 134.369 50.0219 134.35 50.0933C134.332 50.1646 134.299 50.2315 134.255 50.2903C134.21 50.349 134.155 50.3984 134.091 50.4357C134.027 50.4729 133.957 50.4972 133.884 50.5073C133.811 50.5174 133.737 50.513 133.665 50.4943C133.521 50.4567 133.398 50.3633 133.323 50.2349C133.248 50.1064 133.227 49.9533 133.264 49.8093C133.302 49.6653 133.395 49.5421 133.524 49.4669C133.652 49.3917 133.805 49.3706 133.949 49.4083Z" fill="white" stroke="#263238" stroke-linecap="round" stroke-linejoin="round"/>
<path d="M144.046 48.4929C144.151 48.5254 144.244 48.5879 144.313 48.6727C144.383 48.7575 144.426 48.8608 144.437 48.9698C144.449 49.0789 144.428 49.1889 144.378 49.2863C144.327 49.3837 144.249 49.4641 144.154 49.5177C144.058 49.5713 143.949 49.5956 143.839 49.5877C143.73 49.5798 143.625 49.5401 143.538 49.4733C143.451 49.4066 143.386 49.3158 143.35 49.2121C143.314 49.1085 143.309 48.9967 143.336 48.8904C143.355 48.8166 143.388 48.7474 143.435 48.687C143.481 48.6267 143.539 48.5763 143.606 48.5391C143.672 48.502 143.745 48.4787 143.821 48.4707C143.897 48.4628 143.973 48.4703 144.046 48.4929Z" fill="white" stroke="#263238" stroke-linecap="round" stroke-linejoin="round"/>
<path d="M49.9495 87.9294H43.1382V43.9298C44.9447 43.9298 46.6772 44.6476 47.9545 45.9252C49.2319 47.2029 49.9495 48.9358 49.9495 50.7426V87.9294Z" fill="white" stroke="#263238" stroke-miterlimit="10"/>
<path d="M48.0764 87.9294H41.265V43.9298C43.0715 43.9298 44.804 44.6476 46.0814 45.9252C47.3587 47.2029 48.0764 48.9358 48.0764 50.7426V87.9294Z" fill="#A8A8A8" stroke="#263238" stroke-linecap="round" stroke-linejoin="round"/>
<path d="M23.1092 49.1245H21.6044V62.2605H23.1092V49.1245Z" fill="white" stroke="#263238" stroke-miterlimit="10"/>
<path d="M24.7972 51.1896H20.1073V40.0194C20.1073 39.3977 20.3538 38.8012 20.7926 38.3609C21.2315 37.9206 21.8271 37.6723 22.4487 37.6704C22.7571 37.6704 23.0625 37.7312 23.3474 37.8492C23.6324 37.9673 23.8913 38.1403 24.1093 38.3584C24.3274 38.5765 24.5004 38.8355 24.6184 39.1205C24.7365 39.4055 24.7972 39.7109 24.7972 40.0194V51.1896Z" fill="#CC7267" stroke="#263238" stroke-miterlimit="10"/>
<path d="M25.4285 50.6218H19.5396V52.2757H25.4285V50.6218Z" fill="white" stroke="#263238" stroke-miterlimit="10"/>
<path d="M31.9568 50.3308H30.4519V63.4668H31.9568V50.3308Z" fill="white" stroke="#263238" stroke-miterlimit="10"/>
<path d="M33.6377 52.3959H28.9478V41.2257C28.9496 40.6039 29.1979 40.0083 29.6381 39.5693C30.0783 39.1303 30.6746 38.8838 31.2962 38.8838C31.9172 38.8838 32.5128 39.1305 32.9519 39.5697C33.391 40.0089 33.6377 40.6046 33.6377 41.2257V52.3959Z" fill="#CC7267" stroke="#263238" stroke-miterlimit="10"/>
<path d="M34.2761 51.8353H28.3871V53.4892H34.2761V51.8353Z" fill="white" stroke="#263238" stroke-miterlimit="10"/>
<path d="M40.3221 51.3883H38.8173V64.5243H40.3221V51.3883Z" fill="white" stroke="#263238" stroke-miterlimit="10"/>
<path d="M42.01 53.4606H37.3201V42.2832C37.3294 41.6683 37.5802 41.0817 38.0183 40.6501C38.4564 40.2186 39.0466 39.9767 39.6615 39.9768C40.2831 39.9768 40.8794 40.2233 41.3196 40.6623C41.7598 41.1013 42.0081 41.697 42.01 42.3187V53.4606Z" fill="#CC7267" stroke="#263238" stroke-miterlimit="10"/>
<path d="M42.6415 52.8928H36.7526V54.5467H42.6415V52.8928Z" fill="white" stroke="#263238" stroke-miterlimit="10"/>
<path d="M49.6939 55.7245H10.9969V87.9294H49.6939V55.7245Z" fill="white" stroke="#263238" stroke-miterlimit="10"/>
<path d="M17.1911 87.9294H10.3798V43.9298C11.2742 43.9298 12.16 44.106 12.9864 44.4484C13.8127 44.7908 14.5636 45.2926 15.1961 45.9252C15.8286 46.5579 16.3303 47.3089 16.6726 48.1355C17.0149 48.9621 17.1911 49.848 17.1911 50.7426V87.9294Z" fill="white" stroke="#263238" stroke-miterlimit="10"/>
<path d="M15.8785 87.9294H9.06714V43.9298C10.8736 43.9298 12.6061 44.6476 13.8835 45.9252C15.1609 47.2029 15.8785 48.9358 15.8785 50.7426V87.9294Z" fill="#A8A8A8" stroke="#263238" stroke-linecap="round" stroke-linejoin="round"/>
<path d="M66.4599 114.386L83.6373 59.8903L67.0346 39.9343L63.6573 40.5517L60.9612 42.7375V42.7872L60.5426 42.7801L60.8618 43.2272L60.2375 44.0433L60.8477 44.8736L60.2233 45.6969L60.8264 46.5272L60.2091 47.3433L60.8122 48.1807L60.1949 48.9968L60.798 49.8271L60.1736 50.6433L60.7767 51.4736L60.1594 52.2968L60.7625 53.1271L60.1452 53.9432L60.7483 54.7735L60.1239 55.5968L60.727 56.4271L60.1098 57.2432L60.7128 58.0735L60.0956 58.8967L60.6987 59.727L60.0814 60.5432L60.6845 61.3806L60.0601 62.1967L60.6632 63.027L60.0459 63.8431L60.649 64.6805L60.0317 65.4967L60.6348 66.327L60.0175 67.1431L60.6135 67.9734L59.9962 68.7966L60.5993 69.627L59.982 70.4431L60.5851 71.2734L59.9679 72.0895L60.5709 72.9198L59.9466 73.743L60.5497 74.5734L59.9324 75.3895L60.5355 76.2198L59.9182 77.0359L60.5213 77.8662L59.904 78.6824L60.5071 79.5127L59.8827 80.3359L60.4858 81.1591L59.8685 81.9823L60.4716 82.8126L59.8543 83.6288L60.4574 84.4591L59.8401 85.2752L60.4361 86.1055L59.8189 86.9216L60.4219 87.752L59.8047 88.5681L60.4078 89.3984L59.7905 90.2145L60.3936 91.0448L59.7692 91.8609L60.2375 92.5067H60.2942L60.4219 92.6842L59.8047 93.5074L60.4078 94.3377L59.7905 95.1538L60.3936 95.9912L59.7692 96.8074L60.3723 97.6377L59.755 98.4538L60.3581 99.2841L59.7408 100.107L60.3439 100.938L59.7266 101.754L60.3297 102.584L59.7053 103.407L60.3084 104.238L59.6911 105.061L60.2942 105.891L59.677 106.707L60.28 107.538L59.6628 108.361L60.2588 109.191L59.6415 110.007L59.9395 110.412L61.0889 111.341V111.292L64.9699 114.492L66.4599 114.386Z" fill="#A8A8A8" stroke="#263238" stroke-linecap="round" stroke-linejoin="round"/>
<path d="M92.9319 36.0665C93.0099 35.4846 90.8033 35.8394 90.8033 35.8394C90.8033 35.8394 87.6034 37.7839 85.6097 36.8117C83.6159 35.8394 80.5154 32.0853 77.5212 30.6304C74.5271 29.1756 72.1786 25.9892 72.3205 24.4137C72.4624 22.8383 71.9657 22.1925 70.9795 22.5331C70.9795 22.5331 65.1331 44.3342 65.5659 45.9522C65.9987 47.5703 77.4573 59.1166 79.2099 60.5786C80.9624 62.0405 83.0412 63.2611 83.3605 62.594C83.6798 61.9269 92.8751 36.6414 92.9319 36.0665ZM82.9987 49.5503L70.7666 41.8291C70.1877 41.4637 69.7432 40.9201 69.5001 40.2801C69.2569 39.6401 69.2283 38.9384 69.4185 38.2807L70.1706 35.5556C70.2594 35.2425 70.4172 34.9533 70.6324 34.7092C70.8476 34.4651 71.1147 34.2723 71.4142 34.145C71.7136 34.0177 72.0377 33.9592 72.3628 33.9736C72.6878 33.988 73.0055 34.0751 73.2925 34.2285C75.2579 35.2646 77.3225 37.2517 80.2245 38.9478C82.1543 40.0762 83.9281 41.1691 85.2691 42.0207C86.0005 42.4806 86.5614 43.1671 86.8663 43.9756C87.1712 44.7842 87.2033 45.6702 86.9578 46.4987L86.4327 48.2729C86.3316 48.6103 86.1543 48.92 85.9145 49.1781C85.6746 49.4361 85.3788 49.6356 85.0496 49.7611C84.7205 49.8866 84.367 49.9348 84.0163 49.9019C83.6656 49.8691 83.3271 49.756 83.0271 49.5716L82.9987 49.5503Z" fill="#CC7267" stroke="#263238" stroke-miterlimit="10"/>
<path d="M322.049 313.874H77.9755V319.552H322.049V313.874Z" stroke="#263238" stroke-linecap="round" stroke-linejoin="round"/>
<path d="M325.433 308.296H81.3596V313.974H325.433V308.296Z" stroke="#263238" stroke-linecap="round" stroke-linejoin="round"/>
<path d="M319.345 302.548H75.272V308.225H319.345V302.548Z" stroke="#263238" stroke-linecap="round" stroke-linejoin="round"/>
<path d="M183.211 200.483H157.817V319.538H183.211V200.483Z" fill="#696969" stroke="#263238" stroke-linecap="round" stroke-linejoin="round"/>
<path d="M199.083 200.483H173.689V319.538H199.083V200.483Z" fill="#9C9C9C" stroke="#263238" stroke-linecap="round" stroke-linejoin="round"/>
<path d="M222.887 245.278H180.032V265.915H222.887V245.278Z" fill="#696969" stroke="#263238" stroke-linecap="round" stroke-linejoin="round"/>
<path d="M241.93 200.483H216.537V319.538H241.93V200.483Z" fill="#696969" stroke="#263238" stroke-linecap="round" stroke-linejoin="round"/>
<path d="M257.802 200.483H232.409V319.538H257.802V200.483Z" fill="#9C9C9C" stroke="#263238" stroke-linecap="round" stroke-linejoin="round"/>
<path d="M201.594 247.797H109.542V261.685H201.594V247.797Z" fill="#9C9C9C" stroke="#263238" stroke-linecap="round" stroke-linejoin="round"/>
<path d="M51.0847 200.483H25.6912V319.538H51.0847V200.483Z" fill="#696969" stroke="#263238" stroke-linecap="round" stroke-linejoin="round"/>
<path d="M66.9566 200.483H41.563V319.538H66.9566V200.483Z" fill="#9C9C9C" stroke="#263238" stroke-linecap="round" stroke-linejoin="round"/>
<path d="M68.5459 200.483H25.6912V212.193H68.5459V200.483Z" fill="#263238" stroke="#263238" stroke-miterlimit="10"/>
<path d="M90.7678 245.278H47.9131V265.915H90.7678V245.278Z" fill="#696969" stroke="#263238" stroke-linecap="round" stroke-linejoin="round"/>
<path d="M109.804 200.483H84.4105V319.538H109.804V200.483Z" fill="#696969" stroke="#263238" stroke-linecap="round" stroke-linejoin="round"/>
<path d="M125.676 200.483H100.283V319.538H125.676V200.483Z" fill="#9C9C9C" stroke="#263238" stroke-linecap="round" stroke-linejoin="round"/>
<path d="M125.513 200.483H84.3467V212.193H125.513V200.483Z" fill="#263238" stroke="#263238" stroke-miterlimit="10"/>
<path d="M198.827 200.483H157.661V212.193H198.827V200.483Z" fill="#263238" stroke="#263238" stroke-miterlimit="10"/>
<path d="M257.483 200.483H216.317V212.193H257.483V200.483Z" fill="#263238" stroke="#263238" stroke-miterlimit="10"/>
<path d="M167.424 156.299H67.4675V183.508H167.424V156.299Z" fill="#4F4F4F" stroke="#263238" stroke-linecap="round" stroke-linejoin="round"/>
<path d="M167.431 156.299H76.1093V183.508H167.431V156.299Z" fill="#707070" stroke="#263238" stroke-linecap="round" stroke-linejoin="round"/>
<path d="M133.531 178.753C133.531 178.718 133.531 178.682 133.531 178.647C133.449 175.063 131.969 171.654 129.406 169.149C126.844 166.643 123.403 165.241 119.819 165.241C116.236 165.241 112.795 166.643 110.232 169.149C107.67 171.654 106.189 175.063 106.108 178.647C106.108 178.682 106.108 178.718 106.108 178.753H133.531Z" fill="#263238" stroke="#263238" stroke-linecap="round" stroke-linejoin="round"/>
<path d="M127.223 172.083C125.685 170.392 123.613 169.284 121.353 168.944C119.094 168.603 116.787 169.053 114.821 170.216" stroke="white" stroke-width="0.5" stroke-linecap="round" stroke-linejoin="round"/>
<path d="M113.139 171.472C111.457 173.033 110.371 175.13 110.067 177.405H129.699C129.554 176.328 129.233 175.283 128.748 174.311" stroke="white" stroke-width="0.5" stroke-linecap="round" stroke-linejoin="round"/>
<path d="M125.215 172.728C124.142 171.775 122.834 171.127 121.426 170.851C120.019 170.576 118.563 170.682 117.21 171.159C115.857 171.637 114.657 172.468 113.734 173.566C112.811 174.664 112.199 175.99 111.961 177.405H127.805C127.59 176.132 127.071 174.929 126.293 173.899" stroke="white" stroke-width="0.5" stroke-linecap="round" stroke-linejoin="round"/>
<path d="M118.645 172.288C117.371 172.534 116.199 173.152 115.275 174.062C114.351 174.972 113.717 176.135 113.451 177.405H126.315C126.085 176.311 125.581 175.293 124.85 174.447C124.119 173.602 123.185 172.956 122.136 172.572" stroke="white" stroke-width="0.5" stroke-linecap="round" stroke-linejoin="round"/>
<path d="M215.082 175.609H63.2528V183.543H215.082V175.609Z" fill="#878787" stroke="#263238" stroke-linecap="round" stroke-linejoin="round"/>
<path d="M215.082 175.609H107.725V183.543H215.082V175.609Z" fill="#B5B5B5" stroke="#263238" stroke-linecap="round" stroke-linejoin="round"/>
<path d="M81.5016 183.288V175.73" stroke="#263238" stroke-miterlimit="10"/>
<path d="M67.4674 245.278H84.361C81.7003 225.456 75.8468 211.519 70.568 202.421H49.5947C51.4608 204.294 63.0755 216.855 67.4674 245.278Z" fill="#9C9C9C" stroke="#263238" stroke-linecap="round" stroke-linejoin="round"/>
<path d="M59.5278 245.278H76.4498C73.7962 225.456 67.9356 211.519 62.6568 202.421H41.6622C43.5495 204.294 55.1927 216.855 59.5278 245.278Z" fill="#696969" stroke="#263238" stroke-linecap="round" stroke-linejoin="round"/>
<path d="M233.068 183.373H17.2266V204.01H233.068V183.373Z" fill="#696969" stroke="#263238" stroke-linecap="round" stroke-linejoin="round"/>
<path d="M260.051 183.373H92.3501V204.01H260.051V183.373Z" fill="#9C9C9C" stroke="#263238" stroke-linecap="round" stroke-linejoin="round"/>
<path d="M136.262 183.373H88.6465V204.01H136.262V183.373Z" fill="#696969" stroke="#263238" stroke-linecap="round" stroke-linejoin="round"/>
<path d="M143.669 183.373H96.0537V204.01H143.669V183.373Z" fill="#9C9C9C" stroke="#263238" stroke-linecap="round" stroke-linejoin="round"/>
<path d="M115.58 226.4L111.564 200.27C111.465 199.768 111.175 199.323 110.756 199.028C110.336 198.734 109.819 198.613 109.313 198.691C108.807 198.769 108.35 199.04 108.038 199.446C107.727 199.853 107.584 200.364 107.64 200.873L111.663 227.011C110.867 227.585 110.287 228.412 110.018 229.356C109.749 230.301 109.805 231.308 110.178 232.217C110.552 233.125 111.22 233.882 112.075 234.364C112.931 234.846 113.924 235.026 114.894 234.875C115.864 234.724 116.755 234.25 117.423 233.53C118.092 232.811 118.498 231.887 118.577 230.908C118.657 229.929 118.404 228.952 117.86 228.134C117.316 227.316 116.513 226.706 115.58 226.4Z" fill="#B5B5B5" stroke="#263238" stroke-linecap="round" stroke-linejoin="round"/>
<path d="M107.548 199.703H111.557L110.847 195.04C110.739 194.333 110.381 193.688 109.838 193.222C109.295 192.756 108.604 192.5 107.889 192.499H102.922C102.644 192.499 102.37 192.557 102.116 192.669C101.862 192.782 101.635 192.947 101.449 193.153C101.263 193.359 101.122 193.602 101.036 193.866C100.95 194.13 100.921 194.409 100.949 194.685C101.017 195.187 101.268 195.646 101.652 195.974C102.037 196.303 102.53 196.478 103.035 196.466H107.065L107.548 199.703Z" fill="#263238" stroke="#263238" stroke-miterlimit="10"/>
<path d="M104.008 168.428C104.008 168.682 104.083 168.931 104.224 169.142C104.366 169.353 104.567 169.518 104.802 169.615C105.037 169.712 105.296 169.737 105.545 169.687C105.794 169.637 106.023 169.514 106.202 169.333C106.382 169.153 106.503 168.923 106.552 168.674C106.601 168.424 106.575 168.166 106.476 167.931C106.378 167.696 106.212 167.496 106 167.356C105.788 167.215 105.539 167.141 105.285 167.143C104.945 167.145 104.621 167.281 104.381 167.522C104.142 167.762 104.008 168.088 104.008 168.428Z" fill="white"/>
<path d="M101.447 166.1C101.87 166.1 102.213 165.757 102.213 165.333C102.213 164.91 101.87 164.567 101.447 164.567C101.023 164.567 100.68 164.91 100.68 165.333C100.68 165.757 101.023 166.1 101.447 166.1Z" fill="white"/>
<path d="M96.061 170.84C96.0595 170.968 96.0962 171.094 96.1663 171.201C96.2365 171.308 96.3368 171.392 96.4547 171.442C96.5726 171.492 96.7027 171.506 96.8285 171.482C96.9543 171.458 97.07 171.397 97.1611 171.307C97.2521 171.217 97.3144 171.102 97.3399 170.976C97.3654 170.851 97.353 170.72 97.3043 170.602C97.2556 170.484 97.1729 170.382 97.0665 170.311C96.9601 170.24 96.835 170.202 96.7069 170.202C96.6224 170.201 96.5386 170.216 96.4602 170.248C96.3819 170.28 96.3106 170.327 96.2506 170.386C96.1905 170.446 96.1428 170.516 96.1102 170.594C96.0777 170.672 96.0609 170.756 96.061 170.84Z" fill="white"/>
<path d="M99.5233 168.428C99.5233 168.554 99.5608 168.677 99.631 168.782C99.7012 168.888 99.801 168.969 99.9177 169.018C100.034 169.066 100.163 169.079 100.287 169.054C100.411 169.029 100.525 168.969 100.614 168.879C100.703 168.79 100.764 168.676 100.789 168.552C100.813 168.428 100.801 168.3 100.752 168.183C100.704 168.066 100.622 167.967 100.517 167.896C100.412 167.826 100.289 167.789 100.162 167.789C99.9927 167.789 99.8302 167.856 99.7104 167.976C99.5906 168.096 99.5233 168.258 99.5233 168.428Z" fill="white"/>
<path d="M83.765 164.815C83.765 164.942 83.8025 165.065 83.8727 165.17C83.9429 165.275 84.0426 165.357 84.1594 165.405C84.2761 165.454 84.4046 165.466 84.5285 165.442C84.6524 165.417 84.7663 165.356 84.8556 165.267C84.9449 165.178 85.0058 165.064 85.0304 164.94C85.0551 164.816 85.0424 164.688 84.9941 164.571C84.9457 164.454 84.8638 164.354 84.7588 164.284C84.6537 164.214 84.5302 164.176 84.4039 164.176C84.32 164.176 84.2369 164.193 84.1594 164.225C84.0819 164.257 84.0115 164.304 83.9521 164.364C83.8928 164.423 83.8457 164.493 83.8136 164.571C83.7815 164.648 83.765 164.731 83.765 164.815Z" fill="white"/>
<path d="M96.3164 164.815C96.3069 164.905 96.3165 164.996 96.3445 165.082C96.3724 165.169 96.4182 165.248 96.4787 165.315C96.5393 165.382 96.6134 165.436 96.6961 165.473C96.7788 165.51 96.8683 165.529 96.9588 165.529C97.0493 165.529 97.1389 165.51 97.2216 165.473C97.3043 165.436 97.3783 165.382 97.4389 165.315C97.4994 165.248 97.5452 165.169 97.5732 165.082C97.6011 164.996 97.6107 164.905 97.6012 164.815C97.5845 164.657 97.5096 164.51 97.391 164.403C97.2724 164.296 97.1184 164.237 96.9588 164.237C96.7992 164.237 96.6452 164.296 96.5266 164.403C96.408 164.51 96.3331 164.657 96.3164 164.815Z" fill="white"/>
<path d="M106.186 166.355C106.539 166.355 106.825 166.069 106.825 165.717C106.825 165.364 106.539 165.078 106.186 165.078C105.833 165.078 105.547 165.364 105.547 165.717C105.547 166.069 105.833 166.355 106.186 166.355Z" fill="white"/>
<path d="M85.4323 171.351C85.4323 171.478 85.4697 171.601 85.5399 171.706C85.6101 171.811 85.7099 171.893 85.8266 171.942C85.9434 171.99 86.0718 172.003 86.1957 171.978C86.3197 171.953 86.4335 171.892 86.5228 171.803C86.6122 171.714 86.673 171.6 86.6977 171.476C86.7223 171.352 86.7097 171.224 86.6613 171.107C86.613 170.99 86.5311 170.89 86.426 170.82C86.321 170.75 86.1975 170.713 86.0711 170.713C85.9017 170.713 85.7392 170.78 85.6194 170.9C85.4996 171.019 85.4323 171.182 85.4323 171.351Z" fill="white"/>
<path d="M105.029 162.126C105.382 162.126 105.668 161.84 105.668 161.487C105.668 161.134 105.382 160.848 105.029 160.848C104.677 160.848 104.391 161.134 104.391 161.487C104.391 161.84 104.677 162.126 105.029 162.126Z" fill="white"/>
<path d="M95.0395 159.308C95.3923 159.308 95.6783 159.022 95.6783 158.669C95.6783 158.317 95.3923 158.031 95.0395 158.031C94.6867 158.031 94.4006 158.317 94.4006 158.669C94.4006 159.022 94.6867 159.308 95.0395 159.308Z" fill="white"/>
<path d="M103.518 172.253C103.519 172.379 103.558 172.501 103.629 172.605C103.7 172.71 103.8 172.79 103.917 172.838C104.034 172.885 104.162 172.897 104.286 172.871C104.409 172.846 104.522 172.784 104.611 172.695C104.7 172.605 104.76 172.491 104.784 172.367C104.808 172.244 104.795 172.116 104.746 171.999C104.698 171.883 104.616 171.784 104.511 171.714C104.406 171.644 104.283 171.607 104.157 171.607C104.072 171.607 103.989 171.623 103.911 171.656C103.833 171.688 103.762 171.736 103.702 171.796C103.643 171.856 103.596 171.928 103.564 172.006C103.533 172.084 103.517 172.168 103.518 172.253Z" fill="white"/>
<path d="M89.9165 164.432C89.9165 164.609 89.9689 164.782 90.0672 164.929C90.1654 165.076 90.305 165.191 90.4684 165.258C90.6317 165.326 90.8115 165.344 90.9849 165.309C91.1583 165.275 91.3176 165.19 91.4426 165.064C91.5677 164.939 91.6528 164.78 91.6873 164.606C91.7218 164.433 91.7041 164.253 91.6364 164.09C91.5688 163.926 91.4542 163.787 91.3072 163.688C91.1602 163.59 90.9873 163.538 90.8105 163.538C90.5734 163.538 90.346 163.632 90.1784 163.8C90.0107 163.967 89.9165 164.195 89.9165 164.432Z" fill="white"/>
<path d="M87.9939 170.457C88.2056 170.457 88.3772 170.285 88.3772 170.074C88.3772 169.862 88.2056 169.69 87.9939 169.69C87.7822 169.69 87.6106 169.862 87.6106 170.074C87.6106 170.285 87.7822 170.457 87.9939 170.457Z" fill="white"/>
<path d="M98.8848 173.786C98.8848 173.937 98.9297 174.086 99.014 174.212C99.0982 174.338 99.2179 174.436 99.358 174.494C99.4981 174.552 99.6522 174.567 99.8009 174.538C99.9497 174.508 100.086 174.435 100.193 174.328C100.301 174.221 100.374 174.084 100.403 173.935C100.433 173.787 100.418 173.632 100.36 173.492C100.302 173.352 100.203 173.232 100.077 173.148C99.9512 173.064 99.803 173.019 99.6514 173.019C99.4481 173.019 99.2531 173.1 99.1093 173.244C98.9655 173.387 98.8848 173.582 98.8848 173.786Z" fill="white"/>
<path d="M91.3215 168.662C91.5332 168.662 91.7049 168.49 91.7049 168.278C91.7049 168.067 91.5332 167.895 91.3215 167.895C91.1098 167.895 90.9382 168.067 90.9382 168.278C90.9382 168.49 91.1098 168.662 91.3215 168.662Z" fill="white"/>
<path d="M335.104 319.537H341" stroke="#263238" stroke-linecap="round" stroke-linejoin="round"/>
<path d="M1 319.537H329.499" stroke="#263238" stroke-linecap="round" stroke-linejoin="round"/>
<path d="M270.474 304.457C270.063 304.457 262.428 308.005 263.379 309.638C264.33 311.27 269.105 310.049 273.192 308.545C277.278 307.04 278.101 306.366 278.101 306.366L270.474 304.457Z" fill="white" stroke="#263238" stroke-miterlimit="10"/>
<path d="M270.062 303.776C270.062 303.776 265.805 306.366 258.065 310.319C250.324 314.272 249.884 314.818 249.884 316.593C249.884 318.367 250.43 319.318 251.934 319.431C253.438 319.545 289.695 319.431 289.695 319.431C289.695 319.431 294.605 320.141 296.513 317.522C298.422 314.904 294.874 305.11 294.874 305.11L270.062 303.776Z" fill="white" stroke="#263238" stroke-miterlimit="10"/>
<path d="M276.746 313.321C275.377 311.682 262.158 314.137 257.93 313.591C255.092 313.229 255.39 312.129 255.893 311.462C250.217 314.414 249.884 315.01 249.884 316.614C249.884 318.388 250.43 319.339 251.934 319.452C252.857 319.531 266.933 319.516 277.626 319.488C277.626 319.083 277.562 318.778 277.562 318.778C277.562 318.778 278.108 314.953 276.746 313.321Z" fill="white" stroke="#263238" stroke-miterlimit="10"/>
<path d="M289.695 319.459C289.695 319.459 294.605 320.169 296.514 317.55C298.117 315.364 295.861 308.062 295.095 305.805C292.966 307.225 290.376 309.091 288.184 310.865C285.083 313.363 284.118 317.458 283.813 319.473L289.695 319.459Z" fill="white" stroke="#263238" stroke-miterlimit="10"/>
<path d="M255.355 317.409C253.581 317.409 253.446 316.458 252.516 315.095C251.871 314.165 250.665 315.876 249.948 317.075C250.047 318.537 250.615 319.332 251.977 319.46C253.474 319.594 289.738 319.46 289.738 319.46C289.738 319.46 294.647 320.169 296.556 317.55C297.056 316.616 297.247 315.548 297.102 314.499C294.555 315.35 291.945 316.004 289.298 316.458C285.332 317.004 257.114 317.409 255.355 317.409Z" fill="white" stroke="#263238" stroke-miterlimit="10"/>
<path d="M255.482 303.776C255.482 303.776 251.225 306.366 243.484 310.319C235.743 314.272 235.303 314.818 235.303 316.593C235.303 318.367 235.85 319.318 237.347 319.431C238.844 319.545 275.107 319.431 275.107 319.431C275.107 319.431 280.017 320.141 281.926 317.522C283.834 314.904 280.294 305.11 280.294 305.11L255.482 303.776Z" fill="white" stroke="#263238" stroke-miterlimit="10"/>
<path d="M262.158 313.321C260.796 311.682 247.571 314.137 243.349 313.591C240.511 313.229 240.809 312.129 241.306 311.462C235.63 314.414 235.303 315.01 235.303 316.614C235.303 318.388 235.85 319.339 237.347 319.452C238.269 319.531 252.346 319.516 263.045 319.488C263.045 319.083 262.974 318.778 262.974 318.778C262.974 318.778 263.521 314.953 262.158 313.321Z" fill="white" stroke="#263238" stroke-miterlimit="10"/>
<path d="M275.107 319.459C275.107 319.459 280.017 320.169 281.926 317.55C283.536 315.364 281.273 308.062 280.507 305.805C278.378 307.225 275.795 309.091 273.596 310.865C270.502 313.363 269.53 317.458 269.232 319.473L275.107 319.459Z" fill="white" stroke="#263238" stroke-miterlimit="10"/>
<path d="M240.752 317.409C238.986 317.409 238.844 316.458 237.914 315.095C237.269 314.165 236.055 315.876 235.346 317.075C235.438 318.537 236.013 319.332 237.368 319.46C238.865 319.594 275.129 319.46 275.129 319.46C275.129 319.46 280.038 320.169 281.947 317.55C282.453 316.619 282.645 315.548 282.493 314.499C279.946 315.35 277.336 316.005 274.689 316.458C270.751 317.004 242.526 317.409 240.752 317.409Z" fill="white" stroke="#263238" stroke-miterlimit="10"/>
<path d="M255.887 304.457C255.482 304.457 247.848 308.005 248.791 309.638C249.735 311.27 254.517 310.049 258.611 308.545C262.705 307.04 263.514 306.366 263.514 306.366L255.887 304.457Z" fill="white" stroke="#263238" stroke-miterlimit="10"/>
<path d="M273.539 211.384L274.866 226.464C274.866 226.464 281.209 235.725 283.33 241.545C285.452 247.364 296.024 284.402 296.556 286.786C297.088 289.171 296.024 292.343 295.761 293.933C295.499 295.522 296.556 300.277 296.556 300.277L296.818 306.891C296.818 306.891 283.855 309.801 276.448 305.039C269.041 300.277 265.607 273.026 263.492 253.183C261.378 233.341 257.667 231.758 262.96 222.497C268.253 213.236 273.539 211.384 273.539 211.384Z" fill="#263238" stroke="#263238" stroke-miterlimit="10"/>
<path d="M227.513 160.621C227.513 160.621 231.77 182.848 234.92 191.044C238.071 199.241 243.654 217.501 243.654 217.501C243.654 217.501 240.738 231.794 242.065 234.966C243.392 238.138 254.496 279.675 255.823 283.933C257.149 288.191 257.142 290.285 257.142 291.073C257.142 291.86 255.291 293.457 255.823 296.367C256.097 297.674 256.272 299 256.348 300.334C256.348 300.334 254.496 303.243 254.496 304.308C254.496 305.372 269.836 310.652 272.745 311.185C275.654 311.717 282.004 310.39 282.004 309.595V297.105C282.004 294.195 280.152 287.844 278.832 282.557C277.513 277.27 274.334 252.388 273.014 244.717C271.695 237.045 269.836 228.04 269.836 228.04C269.836 228.04 287.034 179.881 287.297 169.847C287.559 159.812 281.741 144.71 281.741 144.71C281.741 144.71 246.564 159.265 240.213 159.265C233.863 159.265 226.456 158.492 226.456 158.492L227.513 160.621Z" fill="#263238" stroke="#263238" stroke-miterlimit="10"/>
<path d="M246.265 211.057C249.203 200.412 255.29 178.32 255.29 177.518" stroke="#737373" stroke-miterlimit="10"/>
<path d="M281.833 298.68C281.947 300.887 281.947 302.995 281.947 302.995" stroke="#737373" stroke-miterlimit="10"/>
<path d="M271.318 223.143L269.835 228.04C269.835 228.04 280.223 292.62 281.081 293.791C281.366 294.369 281.533 294.999 281.571 295.643" stroke="#737373" stroke-miterlimit="10"/>
<path d="M244.712 216.685C244.712 216.685 244.932 215.876 245.315 214.492" stroke="#737373" stroke-miterlimit="10"/>
<path d="M257.142 173.282C257.142 173.282 263.755 166.142 271.425 162.438" stroke="#737373" stroke-miterlimit="10"/>
<path d="M264.578 162.97C264.578 162.97 270.133 158.996 276.214 158.712" stroke="#737373" stroke-miterlimit="10"/>
<path d="M202.141 142.609C202.141 142.609 198.217 149.373 192.974 157.449C187.731 165.525 181.849 172.735 181.849 172.735L197.557 170.769C197.557 170.769 210.435 160.947 215.891 154.177C219.169 150.12 221.751 145.546 223.533 140.644L202.141 142.609Z" fill="white" stroke="#263238" stroke-miterlimit="10"/>
<path d="M203.255 132.788C202.815 132.99 202.463 133.343 202.262 133.784C202.061 134.224 202.026 134.722 202.162 135.186C202.602 136.932 200.637 142.61 201.289 143.482C201.942 144.355 210.598 149.16 217.8 147.159C225.001 145.157 224.647 141.084 224.86 139.991C225.072 138.898 223.114 131.915 223.114 131.915L203.255 132.788Z" fill="#CC7267" stroke="#263238" stroke-miterlimit="10"/>
<path d="M206.313 80.428C206.313 80.428 196.706 92.4285 196.706 95.9201C196.706 99.4116 203.035 110.113 203.475 112.079C203.914 114.045 204.347 117.97 203.907 119.715C203.467 121.461 201.729 125.613 203.475 127.791C205.22 129.97 202.822 131.503 203.255 132.816C203.501 133.559 203.792 134.287 204.127 134.995C204.127 134.995 206.965 139.146 213.514 139.799C220.063 140.452 222.461 137.833 222.461 137.833C222.461 137.833 224.647 157.264 225.952 160.103C227.258 162.941 241.668 167.519 248.217 165.56C254.765 163.601 265.891 156.576 270.254 154.617C274.618 152.658 283.565 147.847 284.225 145.448C284.884 143.049 281.606 135.186 280.947 134.533C280.287 133.88 258.689 86.5098 252.793 81.4854C246.897 76.4609 227.697 76.028 223.114 76.468C218.531 76.908 208.711 79.0867 206.313 80.428Z" fill="#CC7267" stroke="#263238" stroke-miterlimit="10"/>
<path d="M211.017 119.127C211.017 119.127 217.289 127.706 216.594 129.104C215.898 130.503 207.852 131.233 210.3 132.255C212.748 133.277 220.439 133.306 220.439 133.306C220.439 133.306 213.117 120.872 211.017 119.112" fill="#263238"/>
<path d="M211.017 119.127C211.017 119.127 217.289 127.706 216.594 129.104C215.898 130.503 207.852 131.233 210.3 132.255C212.748 133.277 220.439 133.306 220.439 133.306C220.439 133.306 213.117 120.872 211.017 119.112" stroke="#263238" stroke-linecap="round" stroke-linejoin="round"/>
<path d="M222.461 137.805C222.461 137.805 221.149 132.788 216.132 126.017C211.116 119.247 200.204 102.882 200.204 102.882" stroke="#263238" stroke-miterlimit="10"/>
<path d="M179.684 62.2818C179.684 62.2818 176.414 62.9347 176.414 65.9863C176.414 69.0379 178.379 77.7739 180.997 79.5268C183.615 81.2797 186.886 79.0868 186.886 79.0868L181.21 61.6218L179.684 62.2818Z" fill="#263238" stroke="#263238" stroke-linecap="round" stroke-linejoin="round"/>
<path d="M206.093 94.3661C206.093 94.3661 210.023 106.374 210.676 106.154L211.329 105.934L212.862 96.5519L206.093 94.3661Z" fill="#263238" stroke="#263238" stroke-linecap="round" stroke-linejoin="round"/>
<path d="M206.965 90.4345C206.965 90.4345 205.66 92.6203 206.093 94.3661C206.525 96.1118 218.97 106.374 218.97 106.374L213.074 88.6887C213.074 88.6887 208.278 87.6029 206.965 90.4345Z" fill="#CC7267" stroke="#263238" stroke-linecap="round" stroke-linejoin="round"/>
<path d="M204.78 89.3487C204.78 89.3487 211.329 93.7132 212.862 96.5519C214.394 99.3906 219.169 107.467 219.169 105.501C219.169 103.535 220.915 83.0185 221.567 81.2727C222.22 79.5269 215.693 71.9121 215.693 71.9121C215.693 71.9121 212.422 73.6579 209.584 78.4624C207.642 81.9308 206.033 85.576 204.78 89.3487Z" fill="white" stroke="#263238" stroke-linecap="round" stroke-linejoin="round"/>
<path d="M204.78 89.3486C204.78 89.3486 207.008 90.8318 209.165 92.6272L212.947 76.8796L209.562 78.4409C207.629 81.9184 206.028 85.5704 204.78 89.3486Z" fill="#263238" stroke="#263238" stroke-linecap="round" stroke-linejoin="round"/>
<path d="M178.812 61.1889C178.812 61.1889 171.177 55.2915 170.738 53.7657C170.298 52.2399 179.032 41.7581 184.268 40.0123C189.504 38.2665 201.076 40.0123 204.134 41.3252C207.192 42.6381 208.938 43.5039 210.031 47.8683C211.123 52.2328 211.336 53.9857 211.116 55.2915C210.896 56.5973 211.556 66.2062 211.556 66.2062C211.556 66.2062 203.702 56.8244 198.678 53.9857C193.655 51.147 188.66 54.8799 184.268 56.3844C179.876 57.8889 178.812 61.1889 178.812 61.1889Z" fill="#263238" stroke="#263238" stroke-linecap="round" stroke-linejoin="round"/>
<path d="M177.719 59.4432C177.719 59.4432 182.742 73.8495 183.835 77.994C184.928 82.1385 191.909 92.4003 194.308 93.2732C196.706 94.1461 202.162 93.0603 203.907 91.9674C205.653 90.8745 213.493 79.0869 214.202 76.2482C214.912 73.4095 212.237 67.5192 211.584 66.2063C210.932 64.8934 206.568 59.0032 204.816 56.6045C203.063 54.2058 203.694 52.0413 204.127 49.2026C204.56 46.3639 197.798 45.2711 194.528 47.2368C191.257 49.2026 188.851 52.2613 186.233 52.2613C183.615 52.2613 181.65 50.0755 178.592 51.3884C175.534 52.7013 177.719 59.4432 177.719 59.4432Z" fill="white" stroke="#263238" stroke-linecap="round" stroke-linejoin="round"/>
<path d="M188.851 67.952L190.597 79.5197L198.238 78.2139" stroke="#263238" stroke-linecap="round" stroke-linejoin="round"/>
<path d="M190.597 79.5269C190.597 79.5269 187.759 85.2043 187.759 87.383C187.759 89.5617 187.979 90.2217 190.377 88.9088L195.62 86.0701C195.62 86.0701 205.66 85.8572 206.313 84.5443C206.965 83.2314 203.474 81.7056 202.382 81.2727C201.289 80.8398 194.747 78.8669 194.747 78.8669L190.597 79.5269Z" fill="#263238" stroke="#263238" stroke-linecap="round" stroke-linejoin="round"/>
<path d="M191.69 62.4946C191.69 62.4946 194.528 59.0031 200.204 59.0031" stroke="#263238" stroke-width="2" stroke-linecap="round" stroke-linejoin="round"/>
<path d="M187.326 63.5879C187.326 63.5879 182.743 61.6216 179.436 63.3962" stroke="#263238" stroke-width="2" stroke-linecap="round" stroke-linejoin="round"/>
<path d="M177.506 67.7391C177.506 67.7391 178.812 73.8494 180.557 73.8494C182.705 73.6462 184.837 73.3096 186.943 72.8416C187.347 72.7588 187.708 72.5331 187.959 72.2061C188.211 71.879 188.336 71.4723 188.312 71.0603L187.95 65.5249C187.95 65.5249 182.274 65.1133 177.506 67.7391Z" stroke="#263238" stroke-linecap="round" stroke-linejoin="round"/>
<path d="M203.56 62.6436C203.56 62.6436 204.361 68.8745 202.538 69.57C200.329 70.2103 198.086 70.7245 195.819 71.11C195.28 71.2107 194.723 71.1093 194.255 70.8252C193.786 70.5411 193.439 70.0942 193.279 69.57L191.86 64.7727C191.86 64.7727 197.621 62.1043 203.56 62.6436Z" stroke="#263238" stroke-linecap="round" stroke-linejoin="round"/>
<path d="M187.979 65.5535L191.845 64.7727" stroke="#263238" stroke-linecap="round" stroke-linejoin="round"/>
<path d="M188.199 66.8663L192.122 66.2062" stroke="#263238" stroke-linecap="round" stroke-linejoin="round"/>
<path d="M203.574 62.6443L209.584 60.749" stroke="#263238" stroke-linecap="round" stroke-linejoin="round"/>
<path d="M186.191 69.7831C186.382 70.727 186.113 71.5786 185.581 71.685C185.048 71.7915 184.459 71.1173 184.268 70.1734C184.076 69.2296 184.353 68.3709 184.885 68.2644C185.417 68.1579 185.999 68.8108 186.191 69.7831Z" fill="#263238"/>
<path d="M199.303 66.9444C199.494 67.8882 199.218 68.7398 198.685 68.8463C198.153 68.9527 197.572 68.2785 197.38 67.3347C197.188 66.3908 197.458 65.5321 197.99 65.4257C198.522 65.3192 199.097 65.9721 199.303 66.9444Z" fill="#263238"/>
<path d="M196.706 71.2024C198.801 72.2601 201.216 72.4932 203.475 71.8554" stroke="#263238" stroke-linecap="round" stroke-linejoin="round"/>
<path d="M188.66 72.3165C188.66 72.3165 187.574 74.9429 185.169 75.3759" stroke="#263238" stroke-linecap="round" stroke-linejoin="round"/>
<path d="M210.236 52.8929C210.236 52.8929 208.931 43.291 203.255 40.4523C197.579 37.6137 189.291 39.3594 189.291 39.3594C189.291 39.3594 203.255 34.995 208.278 41.1052C213.301 47.2155 212.642 52.6729 212.642 52.6729L210.236 52.8929Z" fill="#808080" stroke="#263238" stroke-linecap="round" stroke-linejoin="round"/>
<path d="M213.947 52.0413C213.947 52.0413 205 52.6942 205.433 57.7187C205.866 62.7432 208.484 72.3379 210.669 74.5237C212.854 76.7095 220.056 73.6508 221.801 72.3379C223.547 71.025 222.596 65.3689 220.929 59.2445C219.623 54.4187 217.445 51.8 213.947 52.0413Z" fill="#525252" stroke="#263238" stroke-linecap="round" stroke-linejoin="round"/>
<path d="M220.936 59.2232C219.815 55.1071 218.048 52.6019 215.373 52.1265C213.734 52.4103 208.895 53.5032 208.711 56.3845C208.491 59.8761 212.422 72.1037 213.294 73.4166C214.167 74.7295 217.878 74.0766 221.808 72.3237C223.554 71.0108 222.603 65.3476 220.936 59.2232Z" fill="#263238" stroke="#263238" stroke-linecap="round" stroke-linejoin="round"/>
<path d="M217.005 93.2731L218.97 106.374L222.461 92.1802L217.005 93.2731Z" fill="#263238" stroke="#263238" stroke-linecap="round" stroke-linejoin="round"/>
<path d="M217.005 93.2732L225.732 100.476L224.64 74.9424L218.751 75.5953L217.005 93.2732Z" fill="#CC7267" stroke="#263238" stroke-linecap="round" stroke-linejoin="round"/>
<path d="M220.276 152.871C220.276 152.871 199.111 162.04 189.504 165.745C179.897 169.449 178.379 169.896 178.379 169.896C178.379 169.896 168.119 169.236 165.721 169.236C163.323 169.236 157.207 172.735 155.462 173.168C153.716 173.601 151.971 174.694 152.843 175.787C153.716 176.879 155.242 176.879 157.427 176.447C159.612 176.014 164.189 174.914 164.189 174.914C164.189 174.914 158.3 179.938 157.647 180.151C156.994 180.364 147.387 185.396 147.387 185.396C147.387 185.396 146.515 187.354 150.005 187.354C153.496 187.354 160.279 185.608 160.279 185.608C160.279 185.608 169.879 186.701 170.752 186.701C171.624 186.701 182.317 181.024 182.317 181.024C182.317 181.024 202.836 177.532 208.725 176.447C214.614 175.361 231.862 169.236 234.693 168.151C237.524 167.065 239.497 162.473 240.149 161.6C240.802 160.727 220.276 152.871 220.276 152.871Z" fill="white" stroke="#263238" stroke-miterlimit="10"/>
<path d="M240.355 92.1873C240.355 92.1873 232.061 98.2975 231.628 103.315C231.196 108.332 229.663 113.137 227.918 118.161C226.172 123.186 228.57 127.11 228.79 127.983C229.01 128.856 223.334 134.966 222.461 137.805C221.589 140.644 223.334 146.974 223.334 146.974C223.334 146.974 246.684 155.27 248.217 155.27C249.749 155.27 256.731 145.228 256.731 142.609C256.731 139.991 256.078 136.499 257.604 134.966C259.129 133.433 261.534 129.949 261.534 127.55C261.534 125.151 261.314 114.23 261.314 114.23" fill="#CC7267"/>
<path d="M240.355 92.1873C240.355 92.1873 232.061 98.2975 231.628 103.315C231.196 108.332 229.663 113.137 227.918 118.161C226.172 123.186 228.57 127.11 228.79 127.983C229.01 128.856 223.334 134.966 222.461 137.805C221.589 140.644 223.334 146.974 223.334 146.974C223.334 146.974 246.684 155.27 248.217 155.27C249.749 155.27 256.731 145.228 256.731 142.609C256.731 139.991 256.078 136.499 257.604 134.966C259.129 133.433 261.534 129.949 261.534 127.55C261.534 125.151 261.314 114.23 261.314 114.23" stroke="#263238" stroke-miterlimit="10"/>
<path d="M222.986 145.285L220.255 151.771C220.026 152.12 219.946 152.546 220.031 152.954C220.116 153.363 220.36 153.721 220.709 153.95C225.377 157.016 241.022 167.207 242.321 166.837C243.846 166.405 250.175 157.236 248.217 155.27C246.258 153.304 222.986 145.285 222.986 145.285Z" fill="#CC7267" stroke="#263238" stroke-miterlimit="10"/>
<path d="M257.483 130.503C257.483 130.503 235.814 128.757 242.108 131.212C246.14 132.715 250.393 133.54 254.694 133.653" stroke="#263238" stroke-linecap="round" stroke-linejoin="round"/>
<path d="M249.104 151.133C249.104 151.133 216.941 136.102 227.776 141.694C238.61 147.286 244.208 150.785 244.208 150.785" stroke="#263238" stroke-linecap="round" stroke-linejoin="round"/>
</svg>
