<svg width="446" height="312" viewBox="0 0 446 312" fill="none" xmlns="http://www.w3.org/2000/svg">
<path d="M419.209 304.896C422.266 293.714 432.223 256.18 438.986 218.165C447.048 172.778 454.104 110.264 421.837 84.0369C389.569 57.8102 347.208 89.0833 325.023 79.0009C302.838 68.9186 301.833 18.4859 242.312 3.36764C182.792 -11.7506 149.53 40.6713 123.313 68.9081C97.0972 97.145 67.8239 77.9854 29.5256 108.243C-8.37478 138.165 23.7673 273.665 51.7947 304.896H419.209Z" fill="#D4B753"/>
<path opacity="0.7" d="M419.209 304.896C422.266 293.714 432.223 256.18 438.986 218.165C447.048 172.778 454.104 110.264 421.837 84.0369C389.569 57.8102 347.208 89.0833 325.023 79.0009C302.838 68.9186 301.833 18.4859 242.312 3.36764C182.792 -11.7506 149.53 40.6713 123.313 68.9081C97.0972 97.145 67.8239 77.9854 29.5256 108.243C-8.37478 138.165 23.7673 273.665 51.7947 304.896H419.209Z" fill="white"/>
<path d="M429.647 92.5068H347.46C347.061 92.5096 346.679 92.6693 346.397 92.9514C346.114 93.2336 345.955 93.6155 345.952 94.0145V305.503C345.952 305.904 346.11 306.288 346.393 306.573C346.675 306.857 347.059 307.018 347.46 307.021H429.647C430.05 307.021 430.436 306.861 430.72 306.576C431.005 306.292 431.165 305.906 431.165 305.503V94.0145C431.162 93.6137 431.001 93.2302 430.717 92.9478C430.432 92.6653 430.048 92.5068 429.647 92.5068ZM428.139 303.995H348.978V95.5326H428.139V303.995Z" fill="white"/>
<path d="M354.715 139.045H422.402C422.601 139.045 422.798 139.006 422.982 138.929C423.165 138.853 423.332 138.741 423.472 138.6C423.612 138.458 423.723 138.291 423.798 138.107C423.873 137.923 423.911 137.726 423.91 137.527V101.794C423.911 101.595 423.873 101.399 423.798 101.215C423.723 101.031 423.612 100.865 423.471 100.724C423.331 100.584 423.164 100.473 422.981 100.398C422.797 100.323 422.601 100.285 422.402 100.286H354.715C354.517 100.285 354.319 100.323 354.135 100.398C353.951 100.473 353.784 100.584 353.643 100.724C353.501 100.864 353.389 101.031 353.313 101.214C353.237 101.398 353.197 101.595 353.197 101.794V137.527C353.197 137.929 353.357 138.316 353.642 138.6C353.927 138.885 354.313 139.045 354.715 139.045ZM356.223 103.28H420.884V135.988H356.223V103.28Z" fill="white"/>
<path d="M354.715 189.802H422.402C422.601 189.804 422.797 189.765 422.981 189.69C423.164 189.615 423.331 189.504 423.471 189.364C423.612 189.223 423.723 189.057 423.798 188.873C423.873 188.69 423.911 188.493 423.91 188.295V152.561C423.911 152.362 423.873 152.165 423.798 151.981C423.723 151.797 423.612 151.63 423.472 151.488C423.332 151.347 423.165 151.235 422.982 151.159C422.798 151.083 422.601 151.043 422.402 151.043H354.715C354.313 151.043 353.927 151.203 353.642 151.488C353.357 151.773 353.197 152.159 353.197 152.561V188.295C353.197 188.493 353.237 188.69 353.313 188.874C353.389 189.057 353.501 189.224 353.643 189.364C353.784 189.504 353.951 189.615 354.135 189.69C354.319 189.766 354.517 189.804 354.715 189.802ZM356.223 154.069H420.884V186.787H356.223V154.069Z" fill="white"/>
<path d="M354.715 240.57H422.402C422.802 240.57 423.185 240.411 423.468 240.128C423.751 239.845 423.91 239.462 423.91 239.062V203.318C423.91 202.919 423.751 202.535 423.468 202.252C423.185 201.97 422.802 201.811 422.402 201.811H354.715C354.315 201.811 353.93 201.969 353.646 202.252C353.361 202.534 353.2 202.918 353.197 203.318V239.062C353.2 239.463 353.361 239.846 353.646 240.129C353.93 240.411 354.315 240.57 354.715 240.57ZM356.223 204.837H420.884V237.544H356.223V204.837Z" fill="white"/>
<path d="M354.715 291.337H422.402C422.601 291.337 422.798 291.298 422.981 291.222C423.165 291.145 423.332 291.033 423.472 290.892C423.612 290.751 423.723 290.584 423.798 290.399C423.873 290.215 423.911 290.018 423.91 289.819V254.044C423.911 253.846 423.873 253.649 423.798 253.466C423.722 253.282 423.611 253.115 423.471 252.975C423.331 252.835 423.164 252.724 422.981 252.649C422.797 252.573 422.6 252.535 422.402 252.537H354.715C354.516 252.535 354.319 252.573 354.135 252.648C353.951 252.724 353.783 252.834 353.642 252.975C353.501 253.115 353.389 253.281 353.313 253.465C353.236 253.649 353.197 253.845 353.197 254.044V289.777C353.192 289.98 353.227 290.182 353.3 290.371C353.374 290.56 353.485 290.733 353.627 290.878C353.768 291.024 353.937 291.139 354.124 291.218C354.311 291.297 354.512 291.338 354.715 291.337ZM356.223 255.604H420.884V288.312H356.223V255.604Z" fill="white"/>
<path d="M326.698 17.4287H105.326C104.934 17.4286 104.556 17.5817 104.275 17.8554C103.993 18.1292 103.83 18.502 103.819 18.8945V129.162C103.819 129.361 103.858 129.557 103.934 129.741C104.011 129.925 104.123 130.091 104.264 130.231C104.405 130.372 104.573 130.482 104.757 130.558C104.941 130.633 105.138 130.671 105.337 130.669H326.698C326.897 130.671 327.093 130.633 327.277 130.557C327.46 130.482 327.627 130.371 327.767 130.231C327.908 130.091 328.019 129.924 328.094 129.74C328.169 129.557 328.207 129.36 328.206 129.162V18.8945C328.198 18.5011 328.035 18.1267 327.753 17.8524C327.471 17.5781 327.092 17.4259 326.698 17.4287ZM325.18 20.4545V122.765H106.834V20.4126L325.18 20.4545Z" fill="white"/>
<path d="M376.482 235.492L371.718 307.44C371.692 307.805 371.528 308.148 371.261 308.398C370.993 308.648 370.64 308.789 370.273 308.79C370.081 308.79 369.89 308.752 369.712 308.676C369.535 308.601 369.374 308.491 369.24 308.352C369.106 308.213 369.002 308.049 368.933 307.869C368.864 307.688 368.832 307.496 368.839 307.304L370.797 235.492H376.482Z" fill="#263238" stroke="#263238" stroke-linecap="round" stroke-linejoin="round"/>
<path d="M388.669 235.492L393.432 307.44C393.456 307.804 393.618 308.147 393.884 308.397C394.15 308.648 394.501 308.788 394.867 308.79C395.06 308.79 395.251 308.752 395.43 308.676C395.608 308.601 395.769 308.491 395.904 308.352C396.038 308.214 396.144 308.049 396.214 307.869C396.284 307.689 396.317 307.497 396.312 307.304L394.333 235.534L388.669 235.492Z" fill="#263238" stroke="#263238" stroke-linecap="round" stroke-linejoin="round"/>
<path d="M340.906 235.492L345.669 307.44C345.693 307.804 345.855 308.147 346.121 308.397C346.387 308.648 346.738 308.788 347.104 308.79C347.297 308.79 347.488 308.752 347.667 308.676C347.845 308.601 348.006 308.491 348.141 308.352C348.275 308.214 348.381 308.049 348.451 307.869C348.521 307.689 348.554 307.497 348.549 307.304L346.559 235.534L340.906 235.492Z" fill="#263238" stroke="#263238" stroke-linecap="round" stroke-linejoin="round"/>
<path d="M321.442 235.492L316.679 307.44C316.652 307.805 316.489 308.148 316.221 308.398C315.953 308.648 315.6 308.789 315.234 308.79C315.041 308.789 314.85 308.749 314.673 308.674C314.495 308.598 314.335 308.488 314.2 308.349C314.066 308.211 313.96 308.047 313.89 307.868C313.819 307.688 313.785 307.496 313.789 307.304L315.778 235.534L321.442 235.492Z" fill="#263238" stroke="#263238" stroke-linecap="round" stroke-linejoin="round"/>
<path d="M404.436 162.958C404.436 162.958 356.903 161.178 352.883 161.178C348.863 161.178 347.931 162.958 347.931 162.958L341.147 210.794C341.147 210.794 320.05 204.774 315.914 205.559C311.779 206.344 317.956 236.361 317.956 236.361H341.827L342.256 234.56H396.154L410.467 166.381C409.598 163.261 404.436 162.958 404.436 162.958Z" fill="white" stroke="#263238" stroke-linecap="round" stroke-linejoin="round"/>
<path d="M386.344 192.88C386.344 192.88 391.181 224.289 385.632 227.954C384.774 228.519 380.115 231.199 375.759 230.76C372.263 230.404 347.554 230.76 347.554 230.76C347.554 230.76 344.12 224.227 343.429 219.41C342.738 214.594 348.14 193.927 348.14 193.927L386.344 192.88Z" fill="white" stroke="#263238" stroke-linecap="round" stroke-linejoin="round"/>
<path d="M345.879 209.705C345.879 209.705 310.114 213.422 308.429 214.427C306.743 215.432 299.006 222.185 300.335 226.572C301.665 230.958 298.315 231.293 301.382 231.974C304.45 232.654 347.931 232.644 347.931 232.644" fill="#D4B753"/>
<path d="M345.879 209.705C345.879 209.705 310.114 213.422 308.429 214.427C306.743 215.432 299.006 222.185 300.335 226.572C301.665 230.958 298.315 231.293 301.382 231.974C304.45 232.654 347.931 232.644 347.931 232.644" stroke="#263238" stroke-linecap="round" stroke-linejoin="round"/>
<path d="M313.35 236.308H398.332V229.964H313.35V236.308Z" fill="white" stroke="#263238" stroke-linecap="round" stroke-linejoin="round"/>
<path d="M378.262 211.056H327.065C327.065 211.056 324.374 214.092 324.029 220.478C323.683 226.865 324.374 228.236 329.096 229.901C333.818 231.566 375.759 230.718 375.759 230.718" fill="#D4B753"/>
<path d="M378.262 211.056H327.065C327.065 211.056 324.374 214.092 324.029 220.478C323.683 226.865 324.374 228.236 329.096 229.901C333.818 231.566 375.759 230.718 375.759 230.718" stroke="#263238" stroke-linecap="round" stroke-linejoin="round"/>
<path d="M337.922 292.301L332.561 279.601L323.777 281.266L330.499 292.594L326.625 300.352L318.249 305.827C318.249 305.827 317.276 306.791 321.463 306.466C325.651 306.142 334.341 306.466 334.341 306.466L339.817 300.027C339.817 300.027 341.806 296.75 337.922 292.301Z" fill="white" stroke="#263238" stroke-linecap="round" stroke-linejoin="round"/>
<path d="M340.267 297.849L340.487 306.152H339.178L337.43 302.006L340.267 297.849Z" fill="#263238" stroke="#263238" stroke-linecap="round" stroke-linejoin="round"/>
<path d="M334.352 306.508L339.827 300.069C339.827 300.069 341.241 297.672 339.293 294.217C335.399 300.875 330.216 302.875 330.216 302.875L324.814 301.577L318.26 305.869C318.26 305.869 317.286 306.833 321.474 306.508C325.662 306.183 334.352 306.508 334.352 306.508Z" fill="#263238" stroke="#263238" stroke-linecap="round" stroke-linejoin="round"/>
<path d="M316.867 227.587L334.823 281.873L322.081 284.134L296.954 227.598C296.954 227.598 294.933 219.159 300.325 216.468C305.717 213.778 321.578 212.417 321.578 212.417" fill="#D4B753"/>
<path d="M316.867 227.587L334.823 281.873L322.081 284.134L296.954 227.598C296.954 227.598 294.933 219.159 300.325 216.468C305.717 213.778 321.578 212.417 321.578 212.417" stroke="#263238" stroke-linecap="round" stroke-linejoin="round"/>
<path d="M374.461 236.298C374.461 236.298 368.274 206.239 372.42 205.496C376.566 204.753 397.652 210.731 397.652 210.731L404.436 162.958C404.436 162.958 411.597 161.827 412.351 168.192C413.105 174.558 398.332 236.298 398.332 236.298H374.461Z" fill="#263238" stroke="#263238" stroke-linecap="round" stroke-linejoin="round"/>
<path d="M301.602 147.797L298.409 142.563C298.101 142.061 297.668 141.649 297.152 141.366C296.636 141.083 296.055 140.94 295.467 140.95L292.462 141.003L287.322 139.463C286.995 139.368 286.648 139.372 286.323 139.475C285.999 139.577 285.712 139.774 285.5 140.039L285.311 140.28L290.044 142.374L285.322 144.112L280.307 141.568C280.109 141.467 279.882 141.438 279.666 141.488C279.449 141.538 279.257 141.663 279.124 141.84C278.972 142.037 278.904 142.287 278.935 142.534C278.967 142.782 279.095 143.006 279.291 143.159L286.306 148.572C286.526 148.743 286.78 148.865 287.051 148.93C287.321 148.995 287.603 149.002 287.877 148.949L295.635 147.389L297.802 149.755L301.602 147.797Z" fill="white" stroke="#263238" stroke-linecap="round" stroke-linejoin="round"/>
<path d="M355.689 137.055L326.929 167.135L299.477 144.95L295.687 147.703L325.892 181.929L352.077 167.826L355.689 137.055Z" fill="white" stroke="#263238" stroke-linecap="round" stroke-linejoin="round"/>
<path d="M398.72 144.74L413.796 191.069L400.793 191.446L387.863 169.7C387.863 169.7 395.129 147.766 398.72 144.74Z" fill="white" stroke="#263238" stroke-linecap="round" stroke-linejoin="round"/>
<path d="M382.314 136.783L398.72 144.792L384.983 183.206L386.606 193.916L348.14 193.979L352.726 176.725L349.585 165.669C349.177 164.234 349.156 162.718 349.522 161.272L355.679 137.108L371.844 134.511L382.314 136.783Z" fill="white" stroke="#263238" stroke-linecap="round" stroke-linejoin="round"/>
<path d="M381.528 134.532C381.528 134.532 384.753 136.71 384.857 138.647C384.91 139.788 384.857 141.788 384.753 143.316C384.695 144.511 384.422 145.685 383.947 146.782L378.136 153.797L371.414 148.488L365.834 151.336C365.834 151.336 364.787 142.782 367.226 136.815C369.666 130.847 380.282 133.035 381.528 134.532Z" fill="white" stroke="#263238" stroke-linecap="round" stroke-linejoin="round"/>
<path d="M386.146 117.938C386.146 117.938 384.826 122.68 384.209 125.821C383.591 128.962 382.345 135.244 382.46 137.6C382.575 139.955 372.661 149.985 371.415 148.488C370.169 146.991 368.86 138.291 368.86 138.291L370.096 124.219C370.096 124.219 383.015 109.907 386.146 117.938Z" fill="white" stroke="#263238" stroke-linecap="round" stroke-linejoin="round"/>
<path d="M365.426 110.609C365.426 110.609 363.656 113.53 363.656 114.797C363.656 116.064 364.274 118.545 364.169 119.268C364.065 119.99 362.306 122.408 362.075 123.225C361.96 123.557 361.969 123.921 362.102 124.246C362.235 124.572 362.483 124.838 362.798 124.995C363.225 125.213 363.641 125.455 364.044 125.717C364.044 125.717 364.567 132.166 365.405 133.831C366.242 135.496 366.965 136.229 369.457 136.438C371.948 136.647 377.885 134.04 378.712 131.957C379.539 129.873 379.654 127.382 379.759 124.366C379.864 121.351 377.78 117.038 376.22 112.923C374.66 108.808 368.127 106.547 365.426 110.609Z" fill="white" stroke="#263238" stroke-linecap="round" stroke-linejoin="round"/>
<path d="M392.281 131.904C396.693 131.904 400.269 128.328 400.269 123.916C400.269 119.504 396.693 115.927 392.281 115.927C387.869 115.927 384.292 119.504 384.292 123.916C384.292 128.328 387.869 131.904 392.281 131.904Z" fill="#263238" stroke="#263238" stroke-linecap="round" stroke-linejoin="round"/>
<path d="M365.384 110.159C365.384 110.159 368.598 107.384 374.378 112.902C380.157 118.419 377.958 126.397 381.822 128.052C385.685 129.706 392.836 121.435 393.663 117.31C394.49 113.184 392.009 104.631 384.292 102.977C376.576 101.322 367.122 102.453 365.384 110.159Z" fill="#263238" stroke="#263238" stroke-linecap="round" stroke-linejoin="round"/>
<path d="M365.384 110.159C365.315 109.51 365.396 108.854 365.619 108.241C365.842 107.628 366.202 107.074 366.671 106.621C367.14 106.167 367.707 105.827 368.327 105.626C368.948 105.424 369.606 105.367 370.252 105.458C375.487 105.741 376.032 114.001 378.785 117.31C381.539 120.618 382.921 120.063 382.921 120.063C382.921 120.063 378.241 121.435 375.204 119.781C372.168 118.126 370.702 108.798 365.384 110.159Z" fill="#263238" stroke="#263238" stroke-linecap="round" stroke-linejoin="round"/>
<path d="M373.938 104.495C376.692 106.196 378.879 108.678 380.22 111.625C382.596 116.66 382.596 120.817 388.239 120.524C388.239 120.524 385.57 121.121 381.413 119.037C377.257 116.954 376.367 111.028 373.697 108.651C372.241 107.273 370.356 106.434 368.357 106.274" stroke="white" stroke-width="0.5" stroke-linecap="round" stroke-linejoin="round"/>
<path d="M393.663 117.31C393.663 117.31 393.422 124.869 387.622 126.46" stroke="white" stroke-width="0.5" stroke-linecap="round" stroke-linejoin="round"/>
<path d="M377.477 125.026C377.477 125.026 383.005 117.791 384.303 123.194C385.601 128.596 381.162 129.915 379.068 129.298C376.974 128.68 377.267 127.56 377.267 127.56" fill="white"/>
<path d="M377.477 125.026C377.477 125.026 383.005 117.791 384.303 123.194C385.601 128.596 381.162 129.915 379.068 129.298C376.974 128.68 377.267 127.56 377.267 127.56" stroke="#263238" stroke-linecap="round" stroke-linejoin="round"/>
<path d="M365.174 186.933C365.174 186.933 354.621 188.399 352.862 188.399C351.103 188.399 346.706 193.969 346.706 193.969H366.054L365.174 186.933Z" fill="white" stroke="#263238" stroke-linecap="round" stroke-linejoin="round"/>
<path d="M410.006 179.835L413.796 188.378C413.966 188.881 414.015 189.417 413.938 189.942C413.862 190.467 413.662 190.967 413.356 191.401C413.05 191.835 412.646 192.19 412.176 192.438C411.707 192.686 411.186 192.819 410.655 192.828L364.902 193.089L365.195 186.933L400.667 181.321" fill="white"/>
<path d="M410.006 179.835L413.796 188.378C413.966 188.881 414.015 189.417 413.938 189.942C413.862 190.467 413.662 190.967 413.356 191.401C413.05 191.835 412.646 192.19 412.176 192.438C411.707 192.686 411.186 192.819 410.655 192.828L364.902 193.089L365.195 186.933L400.667 181.321" stroke="#263238" stroke-linecap="round" stroke-linejoin="round"/>
<path d="M348.768 297.849L348.988 306.152H347.68L345.931 302.006L348.768 297.849Z" fill="#263238" stroke="#263238" stroke-linecap="round" stroke-linejoin="round"/>
<path d="M346.423 292.301L344.738 280.219L335.964 280.784L339 292.677L335.126 300.436L326.751 305.911C326.751 305.911 325.787 306.874 329.975 306.55C334.163 306.225 342.853 306.55 342.853 306.55L348.329 300.111C348.329 300.111 350.308 296.75 346.423 292.301Z" fill="white" stroke="#263238" stroke-linecap="round" stroke-linejoin="round"/>
<path d="M342.853 306.508L348.329 300.069C348.329 300.069 349.742 297.672 347.784 294.217C343.89 300.875 338.707 302.875 338.707 302.875L333.315 301.577L326.751 305.869C326.751 305.869 325.787 306.833 329.975 306.508C334.163 306.183 342.853 306.508 342.853 306.508Z" fill="#263238" stroke="#263238" stroke-linecap="round" stroke-linejoin="round"/>
<path d="M342.403 218.238L346.161 282.438L334.257 282.721L322.636 224.394C322.636 224.394 322.856 213.286 326.405 212.008C329.954 210.731 339.377 212.103 339.377 212.103" fill="#D4B753"/>
<path d="M342.403 218.238L346.161 282.438L334.257 282.721L322.636 224.394C322.636 224.394 322.856 213.286 326.405 212.008C329.954 210.731 339.377 212.103 339.377 212.103" stroke="#263238" stroke-linecap="round" stroke-linejoin="round"/>
<path d="M290.368 80.0476L305.141 121.455C305.141 121.455 303.194 130.826 297.331 130.438C291.468 130.051 289.908 121.843 288.348 120.67C286.788 119.498 284.442 110.515 284.442 110.515L290.368 80.0476Z" fill="white" stroke="#263238" stroke-linecap="round" stroke-linejoin="round"/>
<path d="M252.154 71.7451L228.136 80.414L237.35 147.012H280.684L290.368 80.0476L264.445 71.9336L252.154 71.7451Z" fill="white" stroke="#263238" stroke-linecap="round" stroke-linejoin="round"/>
<path d="M254.468 83.1571L257.933 88.3815L254.928 132.689L259.347 144.227L263.88 133.003L259.996 89.0411L263.116 81.4924L258.792 75.8074L254.468 83.1571Z" fill="#D4B753" stroke="#263238" stroke-linecap="round" stroke-linejoin="round"/>
<path d="M259.263 81.0003L253.075 85.6384L249.003 73.5458L251.84 67.421L264.498 67.1174L267.586 69.8919L266.969 85.3243L259.263 81.0003Z" fill="white" stroke="#263238" stroke-linecap="round" stroke-linejoin="round"/>
<path d="M265.806 64.2803L264.843 72.0593L257.912 81.0005L252.73 71.9337V57.3494C252.73 57.3494 261.807 59.6213 265.806 64.2803Z" fill="white" stroke="#263238" stroke-linecap="round" stroke-linejoin="round"/>
<path d="M249.17 48.1151C249.17 41.048 254.321 35.321 260.687 35.321C267.052 35.321 270.581 41.3621 270.581 48.4291C270.581 50.7115 270.109 54.6272 269.921 56.7107C269.596 60.2704 268.518 61.778 266.414 64.9713C259.514 75.441 253.85 60.0819 250.95 54.9204C249.776 52.8449 249.163 50.4995 249.17 48.1151Z" fill="white" stroke="#263238" stroke-linecap="round" stroke-linejoin="round"/>
<path d="M265.691 50.3347L266.665 57.6321L263.241 57.5379" fill="white"/>
<path d="M265.691 50.3347L266.665 57.6321L263.241 57.5379" stroke="#263238" stroke-linecap="round" stroke-linejoin="round"/>
<path d="M273.334 49.0676L256.876 49.1409C256.674 49.781 256.643 50.4629 256.786 51.1186C256.929 51.7744 257.242 52.3812 257.692 52.8786C258.739 53.9256 263.001 53.5591 263.681 53.2869C264.362 53.0147 264.728 50.0204 264.728 50.0204H265.953C265.953 50.0204 266.089 53.1613 267.848 53.423C269.607 53.6848 271.9 53.601 272.34 53.2869C274.287 51.9782 273.334 49.0676 273.334 49.0676Z" fill="white" stroke="#263238" stroke-linecap="round" stroke-linejoin="round"/>
<path d="M251.201 56.1034C251.201 56.1034 254.907 63.6939 255.787 66.3218C256.666 68.9497 261.022 71.0018 265.43 69.536C269.837 68.0703 268.644 61.5476 268.644 61.5476C268.644 61.5476 263.964 57.5482 263.095 58.4067C262.226 59.2652 257.535 63.0867 257.242 62.2072C256.949 61.3278 254.907 56.072 254.907 56.072L253.955 52.3447L255.913 51.0884C256.195 50.853 256.379 50.5199 256.427 50.1553C256.476 49.7907 256.386 49.4211 256.174 49.1201L255.253 47.7904C255.139 47.6276 255.059 47.4436 255.018 47.2494C254.977 47.0552 254.975 46.8547 255.012 46.6597C255.253 45.5185 255.913 43.1523 257.441 42.4718C259.535 41.6028 262.079 42.8696 264.424 43.4559C266.77 44.0422 269.314 41.9274 269.314 41.9274L270.361 45.4033C272.682 43.2248 274.331 40.4274 275.114 37.3416C276.287 32.3685 264.299 30.3269 260.456 30.3269C256.614 30.3269 250.521 32.4209 248.762 37.9279C247.003 43.435 250.165 55.1192 251.201 56.1034Z" fill="#263238" stroke="#263238" stroke-linecap="round" stroke-linejoin="round"/>
<path d="M260.687 37.373C260.687 37.373 262.864 40.6396 260.006 41.3201C257.148 42.0007 251.578 39.5507 249.128 40.5035" stroke="white" stroke-width="0.5" stroke-linecap="round" stroke-linejoin="round"/>
<path d="M255.787 44.5761C255.787 44.5761 251.306 44.0317 249.505 45.9372" stroke="white" stroke-width="0.5" stroke-linecap="round" stroke-linejoin="round"/>
<path d="M266.571 61.087C266.571 61.087 263.273 62.804 261.639 60.7625" stroke="white" stroke-width="0.5" stroke-linecap="round" stroke-linejoin="round"/>
<path d="M251.756 53.7897C251.756 53.7897 248.521 50.23 248.521 54.1143C248.521 57.9985 249.494 57.9985 251.431 59.3491C253.368 60.6997 254.028 59.0246 254.028 59.0246" fill="white"/>
<path d="M251.756 53.7897C251.756 53.7897 248.521 50.23 248.521 54.1143C248.521 57.9985 249.494 57.9985 251.431 59.3491C253.368 60.6997 254.028 59.0246 254.028 59.0246" stroke="#263238" stroke-linecap="round" stroke-linejoin="round"/>
<path d="M294.954 295.127H295.101L294.818 293.703L280.684 147.022H237.35L223.1 295.117H223.257L232.45 295.902C232.45 295.902 242.647 261.666 242.647 259.111C242.647 256.557 245.558 232.937 245.558 232.937L260.017 182.107L272.8 232.937C272.8 232.937 275.711 256.609 275.711 259.111C275.711 261.614 285.919 295.923 285.919 295.923L294.567 295.18H294.954V295.127Z" fill="#263238" stroke="#263238" stroke-linecap="round" stroke-linejoin="round"/>
<path d="M277.449 155.649L267.806 169.417" stroke="white" stroke-width="0.5" stroke-linecap="round" stroke-linejoin="round"/>
<path d="M272.287 158.749L266.435 168.391" stroke="white" stroke-width="0.5" stroke-linecap="round" stroke-linejoin="round"/>
<path d="M244.752 158.068L253.347 167.355" stroke="white" stroke-width="0.5" stroke-linecap="round" stroke-linejoin="round"/>
<path d="M244.061 161.502L256.446 173.898" stroke="white" stroke-width="0.5" stroke-linecap="round" stroke-linejoin="round"/>
<path d="M239.925 148.426H278.14" stroke="white" stroke-width="0.5" stroke-linecap="round" stroke-linejoin="round"/>
<path d="M223.257 295.117C223.257 295.117 217.74 299.462 214.557 300.655C211.374 301.849 205.427 305.021 205.427 305.021C205.427 305.021 205.427 307.01 210.589 307.01H230.848L230.502 295.117H223.257Z" fill="#263238" stroke="#263238" stroke-linecap="round" stroke-linejoin="round"/>
<path d="M230.775 304.843C222.685 305.213 214.58 305.083 206.506 304.456L205.459 305.021C205.459 305.021 205.459 307.01 210.621 307.01H230.879L230.775 304.843Z" fill="white" stroke="#263238" stroke-linecap="round" stroke-linejoin="round"/>
<path d="M294.116 295.117C294.116 295.117 299.644 299.462 302.817 300.655C305.989 301.849 311.957 305.021 311.957 305.021C311.957 305.021 311.957 307.01 306.785 307.01H286.536L286.903 295.117H294.116Z" fill="#263238" stroke="#263238" stroke-linecap="round" stroke-linejoin="round"/>
<path d="M286.599 304.843C294.689 305.213 302.794 305.083 310.868 304.456L311.915 305.021C311.915 305.021 311.915 307.01 306.743 307.01H286.536L286.599 304.843Z" fill="white" stroke="#263238" stroke-linecap="round" stroke-linejoin="round"/>
<path d="M228.136 80.4141L212.18 123.015H227.487L233.204 111.394L228.136 80.4141Z" fill="white" stroke="#263238" stroke-linecap="round" stroke-linejoin="round"/>
<path d="M297.938 116.419C291.551 113.781 271.062 112.472 269.994 112.472C268.926 112.472 235.622 109.729 232.89 109.331C230.157 108.934 227.026 115.194 227.026 115.194L241.475 114.797L259.053 118.314C259.053 118.314 294.65 131.203 297.331 130.428C297.696 130.306 298.027 130.098 298.294 129.821" fill="white"/>
<path d="M297.938 116.419C291.551 113.781 271.062 112.472 269.994 112.472C268.926 112.472 235.622 109.729 232.89 109.331C230.157 108.934 227.026 115.194 227.026 115.194L241.475 114.797L259.053 118.314C259.053 118.314 294.65 131.203 297.331 130.428C297.696 130.306 298.027 130.098 298.294 129.821" stroke="#263238" stroke-linecap="round" stroke-linejoin="round"/>
<path d="M223.509 114.42L278.579 108.955L278.977 113.635L231.319 128.093C231.319 128.093 222.734 130.041 216.086 128.868C209.437 127.695 212.578 121.058 214.138 117.152" fill="white"/>
<path d="M223.509 114.42L278.579 108.955L278.977 113.635L231.319 128.093C231.319 128.093 222.734 130.041 216.086 128.868C209.437 127.695 212.578 121.058 214.138 117.152" stroke="#263238" stroke-linecap="round" stroke-linejoin="round"/>
<path d="M278.59 108.954L289.133 108.557L292.253 114.807L278.977 113.645L278.59 108.954Z" fill="white" stroke="#263238" stroke-linecap="round" stroke-linejoin="round"/>
<path d="M348.81 200.816L357.804 307.89C357.827 308.05 357.884 308.203 357.969 308.34C358.054 308.477 358.166 308.595 358.298 308.688C358.43 308.78 358.58 308.844 358.738 308.876C358.896 308.908 359.059 308.908 359.217 308.874C359.487 308.808 359.723 308.646 359.883 308.419C360.042 308.192 360.114 307.915 360.086 307.639L353.961 200.848L348.81 200.816Z" fill="#263238" stroke="#263238" stroke-linecap="round" stroke-linejoin="round"/>
<path d="M409.252 200.816L418.277 308.246C418.3 308.406 418.355 308.56 418.439 308.698C418.524 308.836 418.636 308.955 418.769 309.047C418.902 309.14 419.052 309.204 419.211 309.235C419.369 309.267 419.533 309.265 419.691 309.23C419.96 309.164 420.196 309.002 420.356 308.775C420.516 308.548 420.588 308.271 420.56 307.995L414.414 200.816H409.252Z" fill="#263238" stroke="#263238" stroke-linecap="round" stroke-linejoin="round"/>
<path d="M159.821 200.816L155.121 306.958C155.095 307.237 155.169 307.515 155.33 307.744C155.491 307.972 155.729 308.136 156 308.204C156.156 308.244 156.318 308.25 156.476 308.222C156.634 308.194 156.784 308.132 156.916 308.041C157.048 307.949 157.159 307.831 157.241 307.693C157.323 307.555 157.375 307.401 157.393 307.241L165.004 200.816H159.821Z" fill="#263238" stroke="#263238" stroke-linecap="round" stroke-linejoin="round"/>
<path d="M104.112 200.816L99.3797 306.561C99.3563 306.84 99.433 307.119 99.596 307.347C99.759 307.575 99.9977 307.738 100.27 307.806C100.425 307.845 100.587 307.849 100.744 307.82C100.902 307.791 101.051 307.729 101.183 307.638C101.314 307.547 101.425 307.429 101.508 307.292C101.59 307.155 101.643 307.002 101.662 306.843L109.242 200.774L104.112 200.816Z" fill="#263238" stroke="#263238" stroke-linecap="round" stroke-linejoin="round"/>
<path d="M421.02 194.88H100.762V204.072H421.02V194.88Z" fill="#D4B753" stroke="#263238" stroke-linecap="round" stroke-linejoin="round"/>
<path d="M421.02 194.88H100.762V198.031H421.02V194.88Z" fill="#263238" stroke="#263238" stroke-linecap="round" stroke-linejoin="round"/>
<path d="M421.01 194.88H340.875V204.072H421.01V194.88Z" fill="#263238" stroke="#263238" stroke-linecap="round" stroke-linejoin="round"/>
<path d="M423.868 191.823H97.9036V195.33H423.868V191.823Z" fill="#D4B753" stroke="#263238" stroke-linecap="round" stroke-linejoin="round"/>
<path d="M423.858 191.823H344.214V195.33H423.858V191.823Z" fill="#263238" stroke="#263238" stroke-linecap="round" stroke-linejoin="round"/>
<path d="M170.511 191.509H214.254C214.42 191.51 214.584 191.462 214.724 191.371C214.863 191.279 214.973 191.149 215.039 190.996L227.152 163.376C227.208 163.247 227.231 163.106 227.218 162.965C227.205 162.825 227.158 162.69 227.08 162.572C227.002 162.455 226.896 162.359 226.771 162.293C226.647 162.226 226.508 162.192 226.367 162.193H182.625C182.461 162.193 182.3 162.241 182.163 162.33C182.025 162.419 181.917 162.546 181.85 162.696L169.778 190.315C169.722 190.441 169.697 190.579 169.706 190.717C169.715 190.854 169.757 190.988 169.83 191.105C169.902 191.223 170.002 191.321 170.12 191.391C170.239 191.462 170.373 191.502 170.511 191.509Z" fill="white" stroke="#263238" stroke-linecap="round" stroke-linejoin="round"/>
<path d="M174.615 189.352H211.94C212.079 189.352 212.216 189.311 212.333 189.235C212.45 189.159 212.543 189.05 212.599 188.923L222.933 165.355C222.989 165.244 223.015 165.12 223.009 164.996C223.003 164.871 222.965 164.751 222.899 164.645C222.833 164.54 222.74 164.454 222.631 164.395C222.521 164.336 222.398 164.306 222.273 164.308H184.949C184.806 164.307 184.667 164.348 184.547 164.427C184.428 164.505 184.335 164.617 184.279 164.748L173.966 188.336C173.918 188.445 173.897 188.565 173.906 188.684C173.915 188.803 173.953 188.918 174.018 189.019C174.082 189.119 174.17 189.202 174.274 189.26C174.379 189.319 174.496 189.35 174.615 189.352Z" fill="#D4B753" stroke="#263238" stroke-linecap="round" stroke-linejoin="round"/>
<path d="M214.861 189.676H149.142V191.823H214.861V189.676Z" fill="white" stroke="#263238" stroke-linecap="round" stroke-linejoin="round"/>
<path d="M214.871 189.676H183.012V191.823H214.871V189.676Z" fill="white" stroke="#263238" stroke-linecap="round" stroke-linejoin="round"/>
<path d="M235.978 174.736H224.388V191.865H235.978V174.736Z" fill="white" stroke="#263238" stroke-linecap="round" stroke-linejoin="round"/>
<path d="M235.465 189.53H234.251C233.998 189.53 233.756 189.429 233.577 189.251C233.398 189.072 233.298 188.83 233.298 188.577C233.298 188.324 233.398 188.082 233.577 187.903C233.756 187.725 233.998 187.624 234.251 187.624H235.465C235.945 187.622 236.404 187.43 236.743 187.091C237.082 186.752 237.274 186.293 237.277 185.813V181.625C237.274 181.146 237.082 180.687 236.743 180.347C236.404 180.008 235.945 179.817 235.465 179.814H233.905C233.78 179.814 233.656 179.789 233.541 179.741C233.425 179.694 233.32 179.623 233.232 179.535C233.143 179.446 233.073 179.341 233.025 179.226C232.977 179.11 232.953 178.986 232.953 178.861C232.953 178.736 232.977 178.612 233.025 178.497C233.073 178.381 233.143 178.276 233.232 178.188C233.32 178.099 233.425 178.029 233.541 177.981C233.656 177.933 233.78 177.908 233.905 177.908H235.465C235.953 177.908 236.437 178.005 236.888 178.191C237.339 178.378 237.748 178.652 238.093 178.997C238.439 179.342 238.712 179.752 238.899 180.203C239.086 180.654 239.182 181.137 239.182 181.625V185.813C239.182 186.301 239.086 186.785 238.899 187.235C238.712 187.686 238.439 188.096 238.093 188.441C237.748 188.786 237.339 189.06 236.888 189.247C236.437 189.434 235.953 189.53 235.465 189.53Z" fill="white" stroke="#263238" stroke-linecap="round" stroke-linejoin="round"/>
<path d="M326.531 191.509H282.789C282.623 191.508 282.462 191.459 282.325 191.368C282.187 191.277 282.079 191.147 282.014 190.996L269.9 163.376C269.845 163.248 269.822 163.107 269.834 162.968C269.847 162.828 269.893 162.694 269.97 162.577C270.047 162.46 270.151 162.363 270.274 162.296C270.397 162.229 270.535 162.194 270.675 162.193H314.418C314.583 162.193 314.745 162.24 314.884 162.329C315.024 162.418 315.134 162.545 315.203 162.696L327.316 190.315C327.371 190.445 327.394 190.587 327.381 190.728C327.368 190.868 327.321 191.004 327.243 191.122C327.165 191.24 327.06 191.337 326.935 191.405C326.811 191.472 326.672 191.508 326.531 191.509Z" fill="white" stroke="#263238" stroke-linecap="round" stroke-linejoin="round"/>
<path d="M282.181 191.823H347.9V189.676H282.181V191.823Z" fill="white" stroke="#263238" stroke-linecap="round" stroke-linejoin="round"/>
<path d="M282.181 191.823H327.494V189.676H282.181V191.823Z" fill="white" stroke="#263238" stroke-linecap="round" stroke-linejoin="round"/>
<path d="M299.331 173.658C299.568 174.106 299.667 174.614 299.617 175.119C299.566 175.623 299.367 176.102 299.046 176.494C298.725 176.886 298.295 177.175 297.81 177.324C297.325 177.473 296.807 177.475 296.321 177.331C295.835 177.187 295.402 176.902 295.077 176.513C294.752 176.124 294.549 175.647 294.494 175.143C294.438 174.639 294.533 174.13 294.766 173.679C294.999 173.229 295.359 172.857 295.802 172.611C296.409 172.283 297.121 172.209 297.783 172.405C298.444 172.602 299.001 173.052 299.331 173.658Z" fill="white" stroke="#263238" stroke-linecap="round" stroke-linejoin="round"/>
<path d="M94.7832 92.3601L98.0079 124.219L112.666 166.653L107.651 169.522L90.4383 130.679L81.8427 97.3332C81.8427 97.3332 81.1203 87.3032 84.7114 85.8165C88.3025 84.3298 93.3489 85.9107 94.7832 92.3601Z" fill="white" stroke="#263238" stroke-linecap="round" stroke-linejoin="round"/>
<path d="M112.708 166.695C112.708 166.695 115.932 173.511 116.299 175.301C116.665 177.092 117.032 180.746 115.618 182.379C113.912 184.347 112.352 182.829 112.352 182.829C112.352 182.829 108.048 181.782 108.048 178.17C108.048 174.558 107.693 169.564 107.693 169.564L112.708 166.695Z" fill="white" stroke="#263238" stroke-linecap="round" stroke-linejoin="round"/>
<path d="M109.19 177.385L115.231 178.955" stroke="#263238" stroke-linecap="round" stroke-linejoin="round"/>
<path d="M110.635 173.312L112.352 176.013C112.352 176.013 108.352 182.85 110.498 181.06C112.645 179.269 116.655 177.092 116.299 175.301C115.692 173.423 114.892 171.612 113.912 169.899" fill="white"/>
<path d="M110.635 173.312L112.352 176.013C112.352 176.013 108.352 182.85 110.498 181.06C112.645 179.269 116.655 177.092 116.299 175.301C115.692 173.423 114.892 171.612 113.912 169.899" stroke="#263238" stroke-linecap="round" stroke-linejoin="round"/>
<path d="M77.6444 54.0724C77.6444 54.0724 73.9591 50.0939 65.4577 52.6485C56.9562 55.2032 54.9879 68.8138 55.2497 75.6087C55.5114 82.4035 62.055 90.0673 60.0762 93.47C58.0974 96.8727 50.7163 104.809 51.2817 113.362C51.847 121.916 58.935 128.669 69.143 125.549C79.351 122.429 77.6444 109.939 75.6133 105.374C73.5822 100.809 77.8852 98.8514 79.2986 88.9261C80.712 79.0008 71.6453 70.7821 71.6453 63.6941C71.6453 56.6061 78.9741 57.7473 78.9741 57.7473L77.6444 54.0724Z" fill="#263238" stroke="#263238" stroke-linecap="round" stroke-linejoin="round"/>
<path d="M64.8713 80.9795C66.2115 83.7435 67.7714 86.696 69.321 89.8788C74.493 100.432 70.4517 104.243 62.5889 110.085C54.7262 115.927 56.527 123.11 58.5476 124.219" stroke="white" stroke-width="0.5" stroke-linecap="round" stroke-linejoin="round"/>
<path d="M74.9431 56.8679C74.9431 56.8679 64.3897 57.7683 61.6885 64.5004C60.0552 68.594 61.3116 73.1798 63.7196 78.5193" stroke="white" stroke-width="0.5" stroke-linecap="round" stroke-linejoin="round"/>
<path d="M67.2271 121.592C68.039 121.897 68.9049 122.032 69.7712 121.99" stroke="white" stroke-width="0.5" stroke-linecap="round" stroke-linejoin="round"/>
<path d="M77.6443 56.1665C77.6443 56.1665 67.7609 57.9568 65.5203 65.1391C63.2798 72.3213 76.524 82.9376 77.1941 90.748C77.8641 98.5584 68.4309 103.123 65.0806 109.185C62.7249 113.436 62.9867 118.116 65.468 120.472" stroke="white" stroke-width="0.5" stroke-linecap="round" stroke-linejoin="round"/>
<path d="M103.002 200.722C103.002 200.722 100.563 221.787 98.1127 228.509C95.6628 235.23 90.1766 288.05 89.873 291.107C89.5694 294.164 97.8091 301.179 101.17 303.325C104.531 305.472 103.002 306.068 99.3376 306.372C95.6732 306.676 91.4016 306.068 89.5694 302.708C87.7372 299.347 83.4551 298.436 83.4551 298.436L82.8478 305.765H81.6229L80.712 296.604C80.4007 294.524 80.7178 292.398 81.6229 290.5C83.1514 287.139 83.7168 280.114 83.7168 270.607C83.7168 261.101 81.8846 245.867 82.7955 238.539C83.7063 231.21 87.3812 225.713 87.3812 219.609C87.3812 213.505 87.6848 204.344 87.6848 204.344L103.002 200.722Z" fill="white" stroke="#263238" stroke-linecap="round" stroke-linejoin="round"/>
<path d="M80.712 296.603C80.4688 295.028 80.6015 293.417 81.0994 291.903C82.9944 295.106 88.4282 299.451 92.6161 301.179C94.8868 302.162 97.3623 302.579 99.8297 302.393C100.322 302.76 100.782 303.074 101.17 303.325C104.531 305.419 103.002 306.068 99.3376 306.372C95.6732 306.675 91.4016 306.068 89.5694 302.707C87.7372 299.347 83.4551 298.436 83.4551 298.436L82.8478 305.764H81.6229L80.712 296.603Z" fill="#263238" stroke="#263238" stroke-linecap="round" stroke-linejoin="round"/>
<path d="M85.2873 204.083C85.2873 204.083 80.0524 219.651 75.2154 233.084C70.3784 246.517 58.7256 277.36 57.5006 282.857C56.2757 288.354 55.6684 298.436 52.2658 303.629C48.8631 308.822 45.5442 311.261 46.1514 302.1C46.7587 292.939 52.2657 286.218 53.4802 279.193C54.6947 272.167 55.3124 246.831 59.5841 235.534C63.8557 224.237 68.4415 215.076 69.0068 211.715C69.4244 208.371 69.6272 205.003 69.6141 201.633L85.2873 204.083Z" fill="white" stroke="#263238" stroke-linecap="round" stroke-linejoin="round"/>
<path d="M46.7797 298.174C46.8248 299.901 47.3624 301.579 48.3292 303.011C50.0881 304.979 52.9254 301.158 54.4017 298.823C53.9187 300.507 53.2146 302.119 52.3077 303.618C48.947 308.801 45.5862 311.251 46.1934 302.09C46.2944 300.772 46.4904 299.463 46.7797 298.174Z" fill="#263238" stroke="#263238" stroke-linecap="round" stroke-linejoin="round"/>
<path d="M82.8793 81.189C82.8793 81.189 81.0471 82.7175 79.8222 93.1035C78.5972 103.489 86.2401 135.851 86.2401 135.851C86.2401 135.851 73.1111 157.356 70.0539 168.046C66.9968 178.735 65.1646 218.782 65.1646 218.782C65.1646 218.782 71.5825 221.232 84.7115 222.143C97.8406 223.054 104.866 219.703 104.866 219.703C104.866 219.703 105.473 162.549 105.473 153.744C105.473 144.939 106.091 124.911 107.002 122.471C107.912 120.032 110.666 113.614 110.666 111.174C110.666 108.735 92.3021 82.7176 92.3021 82.7176L82.8793 81.189Z" fill="white" stroke="#263238" stroke-linecap="round" stroke-linejoin="round"/>
<path d="M70.0224 168.046C72.4305 159.67 82.3976 137.391 85.9573 133.559C91.3702 135.359 101.243 137.139 105.651 135.82C105.515 138.961 105.441 150.687 105.441 153.692C105.441 162.549 104.834 219.651 104.834 219.651C104.834 219.651 97.8091 223.012 84.68 222.091C71.551 221.169 65.1331 218.73 65.1331 218.73C65.1331 218.73 66.9653 178.735 70.0224 168.046Z" fill="#263238" stroke="#263238" stroke-linecap="round" stroke-linejoin="round"/>
<path d="M89.6532 45.1941C89.6532 45.1941 92.9302 38.0537 99.411 38.0537C105.892 38.0537 108.771 43.8121 107.337 48.848C105.902 53.8839 111.65 52.4496 112.372 55.6952C113.095 58.9408 107.693 61.0871 104.813 61.0871C101.934 61.0871 89.6532 45.1941 89.6532 45.1941Z" fill="#263238" stroke="#263238" stroke-linecap="round" stroke-linejoin="round"/>
<path d="M99.1177 44.4611C101.044 43.4141 103.306 42.6603 104.353 44.2936C106.373 47.4345 100.091 49.9053 102.112 53.2766C104.133 56.6478 109.074 55.7474 108.844 56.8677C108.614 57.988 105.483 58.658 105.483 58.658" stroke="white" stroke-width="0.5" stroke-linecap="round" stroke-linejoin="round"/>
<path d="M95.8197 46.7436C95.8197 46.7436 96.4374 46.2097 97.3588 45.5605" stroke="white" stroke-width="0.5" stroke-linecap="round" stroke-linejoin="round"/>
<path d="M106.269 61.8094C105.81 61.4688 105.449 61.0139 105.222 60.4903C104.698 56.6269 103.567 52.8264 101.432 50.6906C98.2005 47.649 94.0799 45.7226 89.6741 45.194C88.3694 45.0017 87.0377 45.1237 85.7898 45.55C80.2304 47.4973 75.4562 51.3397 76.4822 60.6054C77.6129 70.8134 85.5595 73.368 85.5595 73.368L86.1248 79.6498L94.0609 83.3352L94.3436 76.5299C94.3436 76.5299 99.725 78.7913 101.672 78.5086C103.62 78.226 104.227 75.6714 105.075 71.986C105.386 70.3044 105.541 68.5975 105.536 66.8873L107.912 64.5211C109.263 63.1496 107.933 62.8145 106.269 61.8094Z" fill="white" stroke="#263238" stroke-linecap="round" stroke-linejoin="round"/>
<path d="M76.4613 60.6054C75.4143 51.3397 80.2094 47.4973 85.7688 45.55C87.0168 45.1237 88.3485 45.0017 89.6531 45.194C92.6568 45.5956 95.5485 46.5998 98.1545 48.1464C96.5631 47.8219 99.2748 52.5018 96.783 55.4753C94.601 58.2355 91.819 60.4625 88.648 61.9874C88.648 61.9874 85.8212 59.7155 84.9627 62.8355C84.1042 65.9554 84.3973 68.2169 86.6692 68.7927C88.9412 69.3686 89.8102 68.7927 89.8102 68.7927C89.8102 68.7927 88.3025 72.3629 85.6223 73.8392V73.3261C85.6223 73.3261 77.6443 70.8239 76.4613 60.6054Z" fill="#263238" stroke="#263238" stroke-linecap="round" stroke-linejoin="round"/>
<path d="M98.1126 81.4924L96.5945 89.7426L80.4083 81.1888L81.9369 73.5564L98.1126 81.4924Z" fill="white" stroke="#263238" stroke-linecap="round" stroke-linejoin="round"/>
<path d="M90.2918 151.054C91.968 151.412 93.6689 151.643 95.38 151.745C96.7097 151.661 98.521 150.164 99.8611 150.802C101.201 151.441 103.075 155.472 103.075 155.472C103.075 155.472 104.855 156.372 104.342 157.325C103.829 158.278 101.63 159.157 101.63 159.157C101.63 159.157 99.5365 161.136 98.322 161.335C97.1075 161.534 89.7054 156.1 89.7054 156.1L90.2918 151.054Z" fill="white" stroke="#263238" stroke-linecap="round" stroke-linejoin="round"/>
<path d="M91.077 154.969C91.3221 154.675 91.4981 154.329 91.5922 153.958C91.6863 153.587 91.6961 153.199 91.6208 152.824C91.5455 152.448 91.387 152.094 91.157 151.788C90.9271 151.482 90.6314 151.231 90.2918 151.054L69.9491 131.999L92.103 97.5532C93.0915 95.732 93.3315 93.5972 92.7722 91.602C92.2128 89.6067 90.8981 87.9078 89.1069 86.8658C87.3157 85.8238 85.1891 85.5206 83.1781 86.0206C81.1671 86.5206 79.43 87.7844 78.3354 89.5439L59.1339 127.706C58.1355 128.675 57.5583 129.998 57.527 131.388C57.4956 132.779 58.0127 134.127 58.9664 135.14L59.0397 135.213C60.9661 138.186 82.1568 153.734 88.3549 155.765C88.8364 155.917 89.3523 155.923 89.8371 155.782C90.3219 155.64 90.7535 155.357 91.077 154.969Z" fill="white" stroke="#263238" stroke-linecap="round" stroke-linejoin="round"/>
<path d="M171.568 102.233C171.568 102.233 174.196 110.368 174.196 111.949C174.177 113.091 174.09 114.231 173.935 115.362L176.248 118.953C176.384 119.184 176.426 119.458 176.366 119.719C176.305 119.98 176.147 120.208 175.924 120.356L172.354 122.45C172.354 122.45 171.83 130.826 171.307 131.873C170.783 132.92 161.884 132.669 161.884 132.669L158.994 138.176L144.023 132.407L147.959 121.633L147.143 105.374C147.143 105.374 156.335 97.2494 171.568 102.233Z" fill="white" stroke="#263238" stroke-linecap="round" stroke-linejoin="round"/>
<path d="M161.319 122.021C161.319 122.021 158.712 124.471 156.754 124.638C154.796 124.806 148.43 123.33 147.938 122.68C147.446 122.031 143.049 112.891 143.206 108.484C143.363 104.076 143.541 97.5531 148.263 95.4382C152.985 93.3233 160.502 93.962 164.418 91.5226C168.333 89.0831 174.531 87.1148 177.798 91.355C181.064 95.5953 178.614 101.469 176.008 103.919C173.401 106.369 170.134 107.06 170.459 108.107C170.783 109.154 172.741 110.389 171.6 112.022C170.459 113.656 166.365 115.163 166.365 115.77C166.365 116.378 167.349 118.712 166.208 119.037C165.067 119.362 163.915 116.755 162.774 116.755C161.633 116.755 159.204 119.906 161.319 122.021Z" fill="#263238" stroke="#263238" stroke-linecap="round" stroke-linejoin="round"/>
<path d="M154.503 114.535C154.032 115.061 153.631 115.645 153.309 116.273" stroke="white" stroke-width="0.5" stroke-linecap="round" stroke-linejoin="round"/>
<path d="M175.945 97.6265C175.738 99.4234 175.083 101.139 174.04 102.618C172.997 104.096 171.6 105.288 169.977 106.086C165.789 108.253 160.209 110.023 156.503 112.745" stroke="white" stroke-width="0.5" stroke-linecap="round" stroke-linejoin="round"/>
<path d="M170.459 108.159C170.459 108.159 166.742 111.3 162.763 114.535C160.049 116.636 157.03 118.313 153.812 119.508" stroke="white" stroke-width="0.5" stroke-linecap="round" stroke-linejoin="round"/>
<path d="M161.057 122.46L163.151 122.984C163.024 123.963 163.099 124.957 163.371 125.906C163.643 126.855 164.106 127.738 164.732 128.501" fill="white"/>
<path d="M161.057 122.46L163.151 122.984C163.024 123.963 163.099 124.957 163.371 125.906C163.643 126.855 164.106 127.738 164.732 128.501" stroke="#263238" stroke-linecap="round" stroke-linejoin="round"/>
<path d="M163.486 116.838L178.269 113.174" stroke="#263238" stroke-linecap="round" stroke-linejoin="round"/>
<path d="M174.469 112.881L177.84 113.027C177.84 113.027 179.002 116.838 175.495 117.278" stroke="#263238" stroke-linecap="round" stroke-linejoin="round"/>
<path d="M159.56 293.892C159.56 293.892 173.17 302.488 175.568 302.488C177.965 302.488 179.159 304.644 177.965 304.885C176.772 305.126 169.359 305.356 164.355 305.597C159.35 305.838 155.979 305.356 153.121 305.356C150.263 305.356 146.902 305.597 145.467 304.885C144.033 304.173 146.431 296.038 146.431 294.604C146.431 293.17 157.884 292.929 159.56 293.892Z" fill="#263238" stroke="#263238" stroke-linecap="round" stroke-linejoin="round"/>
<path d="M177.107 302.843C171.82 304.581 163.245 303.44 158.094 302.969C154.021 302.603 147.624 302.519 145.017 302.498C144.913 303.723 145.017 304.655 145.426 304.885C146.86 305.597 150.21 305.356 153.079 305.356C155.948 305.356 159.287 305.838 164.313 305.597C169.338 305.356 176.741 305.115 177.924 304.885C178.855 304.696 178.416 303.461 177.107 302.843Z" fill="white" stroke="#263238" stroke-linecap="round" stroke-linejoin="round"/>
<path d="M170.312 234.843L159.57 288.709L161.811 294.3C160.203 296.629 157.777 298.266 155.016 298.886C151.946 299.49 148.827 299.812 145.698 299.849C145.698 299.849 144.504 293.871 145.227 293.149C145.949 292.426 146.179 289.568 146.179 289.568L152.388 235.314L170.312 234.843Z" fill="#D4B753" stroke="#263238" stroke-linecap="round" stroke-linejoin="round"/>
<path d="M203.051 292.07C203.051 292.07 211.427 299.001 215.248 300.194C219.07 301.388 223.132 302.582 223.132 303.775C223.132 304.969 214.055 306.162 207.124 305.45C200.193 304.738 189.671 301.629 187.284 301.629C184.896 301.629 185.368 295.41 185.368 294.457C185.368 293.504 197.083 285.851 203.051 292.07Z" fill="#263238" stroke="#263238" stroke-linecap="round" stroke-linejoin="round"/>
<path d="M223.174 303.775C223.174 303.346 222.64 302.917 221.792 302.487C214.95 303.403 208.015 303.353 201.187 302.341C194.309 301.357 188.55 300.038 185.608 299.305C185.86 300.592 186.352 301.629 187.325 301.629C189.712 301.629 200.234 304.77 207.165 305.45C214.096 306.131 223.174 304.969 223.174 303.775Z" fill="white" stroke="#263238" stroke-linecap="round" stroke-linejoin="round"/>
<path d="M161.476 210.699C168.642 210.151 175.846 210.312 182.98 211.181C195.167 212.615 222.399 214.322 222.87 217.4C223.341 220.478 201.742 285.171 201.742 286.835C201.742 288.5 203.648 290.186 204.129 291.138C204.433 291.818 204.597 292.551 204.611 293.295C204.611 293.295 198.758 299.577 194.214 301.283C189.671 302.99 185.839 301.388 184.896 301.388C183.954 301.388 183.944 294.939 184.666 291.829C185.388 288.72 186.572 280.836 186.812 280.124C187.053 279.412 200.14 233.408 200.14 233.408C200.14 233.408 164.543 239.146 143.279 236.748C122.015 234.351 119.858 231.021 118.665 225.996C117.471 220.97 119.858 210.94 119.858 210.94L161.476 210.699Z" fill="#D4B753" stroke="#263238" stroke-linecap="round" stroke-linejoin="round"/>
<path d="M158.785 226.184C158.302 226.883 157.763 227.541 157.173 228.152" stroke="#263238" stroke-linecap="round" stroke-linejoin="round"/>
<path d="M165.297 213.327C163.923 216.768 162.339 220.121 160.554 223.368" stroke="#263238" stroke-linecap="round" stroke-linejoin="round"/>
<path d="M162.449 215.725C159.566 220.482 155.199 224.16 150.022 226.195" stroke="#263238" stroke-linecap="round" stroke-linejoin="round"/>
<path d="M216.703 228.917C217.52 228.602 218.305 228.278 219.049 227.943L216.703 228.917Z" fill="white"/>
<path d="M216.703 228.917C217.52 228.602 218.305 228.278 219.049 227.943" stroke="#263238" stroke-linecap="round" stroke-linejoin="round"/>
<path d="M200.14 233.408C204.739 232.52 209.283 231.37 213.751 229.964L200.14 233.408Z" fill="white"/>
<path d="M200.14 233.408C204.739 232.52 209.283 231.37 213.751 229.964" stroke="#263238" stroke-linecap="round" stroke-linejoin="round"/>
<path d="M227.77 154.037C228.273 152.038 229.11 152.195 228.44 151.535C227.519 150.614 226.775 151.703 224.106 153.2C221.436 154.697 218.777 156.529 218.777 156.529C218.835 155.973 219.066 155.45 219.436 155.032C220.111 153.928 220.473 152.661 220.483 151.368C220.483 150.321 219.645 150.53 219.31 151.535C218.975 152.54 215.981 154.362 215.814 155.199C215.646 156.037 215.049 159.325 215.049 159.325C214.097 160.759 214.097 167.449 214.097 167.449L194.696 182.023L184.896 193.54C184.896 193.54 189.2 200.471 191.587 199.518C193.974 198.565 195.167 197.602 200.905 192.817C205.763 188.765 217.939 170.077 217.939 170.077C220.06 168.745 222.066 167.239 223.938 165.575C226.097 163.132 227.373 160.035 227.561 156.78C227.516 155.861 227.586 154.939 227.77 154.037Z" fill="white" stroke="#263238" stroke-linecap="round" stroke-linejoin="round"/>
<path d="M138.003 131.925C138.003 131.925 139.845 125.015 147.677 126.397C155.508 127.779 161.497 134.228 162.879 136.532C164.261 138.835 137.542 135.61 137.542 135.61L138.003 131.925Z" fill="white" stroke="#263238" stroke-linecap="round" stroke-linejoin="round"/>
<path d="M183.148 192.273C183.148 192.273 181.326 194.241 183.148 197.34C184.394 199.486 186.592 201.13 190.801 200.408C194.738 199.717 200.653 189.938 200.653 183.059C200.653 176.181 195.586 175.731 193.743 177.071C191.901 178.411 183.148 192.273 183.148 192.273Z" fill="white" stroke="#263238" stroke-linecap="round" stroke-linejoin="round"/>
<path d="M141.395 131.119C141.395 131.119 122.758 139.966 120.131 141.589C117.503 143.212 115.828 164.046 115.828 167.637C115.828 171.229 118.455 206.375 119.167 212.322C119.879 218.269 142.829 222.363 150.482 220.206C158.136 218.049 165.59 212.615 165.59 210.699C165.59 208.783 164.868 192.545 165.349 189.435C165.831 186.326 170.124 173.186 170.124 173.186L183.169 194C183.169 194 184.54 196.555 189.388 194.545C196.319 191.676 196.895 180.589 196.895 180.589C196.895 180.589 189.252 167.208 187.095 160.518C184.938 153.828 183.954 148.802 183.033 147.609C182.111 146.415 160.565 136.375 156.743 133.747C154.58 132.117 152.058 131.028 149.388 130.571C146.718 130.114 143.977 130.302 141.395 131.119Z" fill="white" stroke="#263238" stroke-linecap="round" stroke-linejoin="round"/>
<path d="M170.071 173.186L163.863 164.099" stroke="#263238" stroke-linecap="round" stroke-linejoin="round"/>
<path d="M169.066 171.888L158.125 166.496" stroke="#263238" stroke-linecap="round" stroke-linejoin="round"/>
<path d="M136.641 240.434L146.19 308.298C146.212 308.456 146.266 308.606 146.35 308.741C146.434 308.876 146.545 308.993 146.676 309.082C146.807 309.172 146.955 309.233 147.111 309.262C147.267 309.291 147.428 309.287 147.582 309.251C147.851 309.185 148.087 309.025 148.248 308.801C148.409 308.576 148.485 308.301 148.462 308.026L141.73 239.313L136.641 240.434Z" fill="#263238" stroke="#263238" stroke-linecap="round" stroke-linejoin="round"/>
<path d="M109.211 240.967L93.2549 307.618C93.2184 307.772 93.2146 307.933 93.2436 308.089C93.2727 308.245 93.334 308.393 93.4237 308.524C93.5134 308.655 93.6294 308.766 93.7644 308.85C93.8994 308.933 94.0504 308.988 94.2076 309.01C94.4807 309.051 94.7591 308.99 94.9905 308.84C95.2219 308.689 95.3904 308.459 95.464 308.193L113.995 243.511L109.211 240.967Z" fill="#263238" stroke="#263238" stroke-linecap="round" stroke-linejoin="round"/>
<path d="M138.191 240.14L128.035 307.911C128.012 308.067 128.021 308.226 128.061 308.379C128.102 308.532 128.174 308.674 128.272 308.798C128.37 308.922 128.493 309.024 128.632 309.098C128.772 309.173 128.925 309.217 129.082 309.23C129.357 309.245 129.629 309.16 129.846 308.991C130.064 308.822 130.213 308.579 130.265 308.309L143.154 242.266L138.191 240.14Z" fill="#263238" stroke="#263238" stroke-linecap="round" stroke-linejoin="round"/>
<path d="M174.144 240.433L183.692 308.298C183.714 308.455 183.769 308.606 183.853 308.741C183.936 308.876 184.047 308.992 184.178 309.082C184.309 309.172 184.458 309.233 184.614 309.262C184.77 309.291 184.93 309.287 185.085 309.251C185.353 309.185 185.589 309.025 185.75 308.8C185.911 308.576 185.987 308.301 185.964 308.026L179.201 239.292L174.144 240.433Z" fill="#263238" stroke="#263238" stroke-linecap="round" stroke-linejoin="round"/>
<path d="M94.1029 170.004L105.724 245.564H188.372C188.372 245.564 189.597 223.787 185.954 216.091C182.31 208.396 137.322 224.896 135.699 224.467C134.495 224.164 136.275 185.153 138.484 169.909C138.639 168.836 138.561 167.743 138.255 166.702C137.95 165.662 137.425 164.7 136.715 163.88C136.005 163.061 135.127 162.404 134.14 161.954C133.154 161.504 132.082 161.271 130.998 161.272H101.578C100.486 161.271 99.406 161.507 98.4133 161.963C97.4207 162.419 96.5387 163.085 95.8282 163.915C95.1178 164.745 94.5956 165.719 94.2977 166.77C93.9999 167.821 93.9334 168.924 94.1029 170.004Z" fill="#D4B753" stroke="#263238" stroke-linecap="round" stroke-linejoin="round"/>
<path d="M185.954 216.091C182.31 208.396 137.322 224.896 135.699 224.467C134.495 224.164 136.275 185.153 138.484 169.909C138.677 168.85 138.634 167.761 138.359 166.72C138.083 165.679 137.582 164.712 136.89 163.886C136.198 163.061 135.333 162.399 134.356 161.946C133.379 161.493 132.314 161.261 131.237 161.267C130.16 161.272 129.098 161.515 128.125 161.978C127.153 162.44 126.294 163.112 125.611 163.944C124.927 164.776 124.436 165.748 124.171 166.792C123.906 167.836 123.874 168.925 124.078 169.983L135.699 245.543H188.372C188.372 245.543 189.597 223.787 185.954 216.091Z" fill="#263238" stroke="#263238" stroke-linecap="round" stroke-linejoin="round"/>
<path d="M227.77 154.037C227.77 154.037 226.44 155.367 224.441 157.702L227.77 154.037Z" fill="white"/>
<path d="M227.77 154.037C227.77 154.037 226.44 155.367 224.441 157.702" stroke="#263238" stroke-linecap="round" stroke-linejoin="round"/>
<path d="M227.561 156.738C227.561 156.738 225.938 160.036 224.943 161.533L227.561 156.738Z" fill="white"/>
<path d="M227.561 156.738C227.561 156.738 225.938 160.036 224.943 161.533" stroke="#263238" stroke-linecap="round" stroke-linejoin="round"/>
<path d="M3.68646 194.932C5.42444 195.686 9.66468 195.592 9.67515 195.592C9.68562 195.592 8.76428 192.817 8.68052 192.65C7.74872 190.692 4.79626 187.478 2.39869 187.802C2.00179 187.867 1.62301 188.015 1.2871 188.236C0.951185 188.457 0.665695 188.746 0.44929 189.085C0.232886 189.424 0.0904371 189.805 0.0312507 190.203C-0.0279357 190.6 -0.00252773 191.006 0.105817 191.393C0.503666 193.048 2.19976 194.283 3.68646 194.932Z" fill="#263238"/>
<path d="M59.3331 180.473C56.925 180.212 54.0982 183.51 53.1873 185.488C53.1141 185.656 52.2346 188.462 52.2765 188.462C51.8158 188.975 51.3342 189.509 50.8212 190.158C49.8789 191.31 48.8319 192.629 47.7745 194.136C46.6355 195.752 45.5869 197.43 44.6336 199.162C43.559 201.104 42.6552 203.136 41.9324 205.234C41.9369 205.258 41.9369 205.283 41.9324 205.308C41.9324 204.606 41.9324 202.617 41.9324 202.47C41.6497 200.324 39.8384 196.345 37.4723 195.906C37.0781 195.842 36.6749 195.862 36.2888 195.963C35.9027 196.065 35.5422 196.247 35.2305 196.496C34.9188 196.746 34.6628 197.058 34.4791 197.412C34.2954 197.767 34.188 198.156 34.1639 198.555C34.0173 200.261 35.2108 201.968 36.4567 203.036C37.8178 204.25 41.5869 205.423 41.8905 205.517C41.2059 207.693 40.6742 209.915 40.2991 212.165C40.0583 213.463 39.8699 214.772 39.6919 216.091C39.6919 215.474 39.6919 214.929 39.6919 214.856C39.4197 212.71 37.5979 208.731 35.2422 208.291C34.845 208.229 34.439 208.251 34.0508 208.356C33.6627 208.461 33.3008 208.646 32.9889 208.9C32.6769 209.154 32.4218 209.47 32.24 209.829C32.0582 210.188 31.9539 210.58 31.9338 210.982C31.7977 212.689 32.9808 214.395 34.2371 215.474C35.4935 216.552 38.6449 217.63 39.472 217.892C39.4092 218.405 39.3359 218.939 39.2731 219.41C38.9904 221.839 38.7077 224.268 38.3622 226.634C38.2366 227.472 38.09 228.289 37.9434 229.105C37.9434 228.561 37.9434 228.111 37.9434 228.058C37.6607 225.912 35.8495 221.933 33.4833 221.494C33.086 221.433 32.6804 221.457 32.2927 221.563C31.9051 221.669 31.5441 221.856 31.2332 222.11C30.9222 222.365 30.6683 222.682 30.4878 223.041C30.3073 223.4 30.2042 223.793 30.1854 224.195C30.0492 225.891 31.2323 227.598 32.4887 228.676C34.0519 229.709 35.7645 230.497 37.5665 231.011C37.3885 231.848 37.2105 232.675 37.0011 233.482C36.8441 234.026 36.7394 234.529 36.5509 235.094C36.3625 235.659 36.2054 236.141 36.0379 236.685C35.6715 237.68 35.305 238.716 34.9281 239.68C34.6664 240.36 34.4047 240.999 34.1534 241.637C34.279 240.81 34.4989 239.177 34.5094 239.041C34.4798 237.139 33.9645 235.275 33.0122 233.628C33.0381 233.42 33.0381 233.209 33.0122 233C32.9647 232.597 32.832 232.209 32.6228 231.861C32.4136 231.513 32.1328 231.214 31.799 230.983C31.4653 230.752 31.0862 230.595 30.687 230.523C30.2878 230.45 29.8777 230.463 29.4839 230.561C27.1387 231.178 25.6624 235.282 25.5473 237.439C25.5473 237.565 25.631 238.957 25.6938 239.837C25.5787 239.324 25.4635 238.79 25.3379 238.308C25.0971 237.261 24.8144 236.214 24.5317 235.167C24.3642 234.633 24.2071 234.12 24.0396 233.565C23.8721 233.01 23.6627 232.518 23.4743 231.932C23.0136 230.665 22.4901 229.409 21.9247 228.152C22.8251 227.933 26.0289 227.105 27.3167 226.132C28.6044 225.158 29.955 223.535 29.9446 221.829C29.957 221.422 29.8825 221.018 29.7262 220.642C29.5698 220.267 29.3352 219.929 29.0379 219.652C28.7406 219.374 28.3875 219.163 28.0022 219.033C27.6169 218.903 27.2083 218.857 26.8036 218.897C24.3956 219.159 22.3017 222.991 21.8724 225.106C21.8724 225.242 21.6944 226.791 21.6316 227.65C21.2966 226.896 20.9511 226.142 20.5846 225.388C19.5376 223.232 18.3441 221.064 17.2029 218.908L16.1559 216.918C16.4805 216.845 20.3438 215.966 21.7468 214.825C23.1497 213.683 24.3851 212.238 24.3747 210.521C24.3854 210.115 24.3098 209.712 24.1529 209.337C23.9959 208.963 23.7612 208.626 23.4643 208.348C23.1674 208.071 22.815 207.86 22.4305 207.73C22.046 207.599 21.638 207.551 21.2337 207.59C18.8257 207.852 16.7422 211.684 16.3025 213.798C16.3025 213.966 16.0617 216.196 16.0408 216.772C15.2869 215.317 14.5436 213.851 13.8735 212.385C12.9536 210.404 12.1633 208.365 11.5074 206.281C11.6539 206.281 15.6953 205.339 17.1401 204.187C18.4174 203.203 19.7784 201.591 19.7575 199.884C19.7699 199.478 19.6955 199.073 19.5392 198.698C19.3828 198.322 19.1481 197.985 18.8508 197.707C18.5535 197.43 18.2005 197.219 17.8152 197.089C17.4299 196.959 17.0212 196.912 16.6166 196.953C14.2086 197.214 12.1251 201.046 11.6854 203.161C11.6854 203.329 11.4341 205.737 11.4236 206.177C11.4236 206.051 11.3399 205.936 11.298 205.81C10.7029 203.704 10.2931 201.549 10.073 199.371C9.94738 198.167 9.88456 197.016 9.84268 195.885C10.607 195.791 14.0306 195.33 15.5277 194.461C17.0249 193.592 18.4383 192.168 18.6687 190.472C18.7231 190.074 18.6933 189.668 18.581 189.282C18.4687 188.896 18.2765 188.538 18.0169 188.231C17.7572 187.924 17.436 187.675 17.0739 187.5C16.7118 187.325 16.317 187.228 15.9151 187.216C13.4861 187.216 10.9944 190.796 10.3243 192.849C10.3243 192.964 10.0521 194.136 9.88456 194.995C9.88456 194.492 9.88456 193.948 9.88456 193.477C9.88456 191.645 9.99973 189.969 10.1149 188.493C10.1882 187.645 10.2719 186.881 10.3557 186.169C11.0572 185.687 13.8526 183.719 14.7111 182.306C15.5696 180.892 16.2397 178.934 15.6115 177.343C15.4766 176.965 15.2637 176.62 14.9865 176.329C14.7094 176.039 14.3742 175.811 14.0029 175.659C13.6315 175.506 13.2323 175.434 12.8312 175.447C12.4301 175.459 12.0361 175.556 11.6749 175.731C9.51812 176.84 8.95275 181.164 9.30872 183.3C9.30872 183.478 10.1568 186.305 10.1882 186.284C10.094 186.965 9.99973 187.697 9.91597 188.504C9.76939 189.99 9.62282 191.645 9.57047 193.508C9.50736 195.485 9.5563 197.463 9.71704 199.434C9.87126 201.645 10.2216 203.839 10.764 205.988C10.7686 206.012 10.7686 206.037 10.764 206.061C10.3871 205.465 9.26685 203.831 9.16215 203.716C7.74874 202.083 4.05292 199.748 1.83334 200.701C1.46738 200.867 1.14052 201.108 0.874091 201.409C0.607665 201.71 0.407662 202.063 0.28713 202.447C0.166599 202.83 0.128248 203.234 0.174583 203.634C0.220917 204.033 0.350896 204.418 0.556035 204.763C1.38314 206.26 3.35145 207.004 4.95332 207.234C6.75411 207.496 10.5442 206.396 10.8478 206.313C11.4705 208.483 12.2365 210.609 13.1406 212.678C13.6641 213.882 14.1876 215.086 14.8053 216.28C14.4598 215.767 14.1457 215.317 14.1039 215.233C12.6904 213.6 8.99463 211.265 6.77505 212.218C6.41527 212.401 6.0984 212.658 5.84534 212.973C5.59228 213.288 5.40876 213.652 5.30687 214.043C5.20499 214.434 5.18705 214.842 5.25423 215.24C5.32142 215.638 5.47221 216.017 5.69667 216.353C6.51331 217.85 8.49209 218.594 10.0835 218.824C11.6749 219.054 14.9519 218.196 15.8104 217.944C16.0408 218.405 16.2606 218.866 16.491 219.316C17.5379 221.504 18.7001 223.682 19.7156 225.849C20.0716 226.613 20.3962 227.378 20.7626 228.142L20.1449 227.263C18.7315 225.629 15.0357 223.305 12.8161 224.247C12.4507 224.415 12.1247 224.658 11.8593 224.961C11.5939 225.263 11.395 225.617 11.2755 226.001C11.1561 226.385 11.1187 226.79 11.1659 227.19C11.213 227.589 11.3436 227.974 11.5492 228.32C12.3764 229.817 14.3447 230.561 15.9361 230.791C17.8281 230.798 19.71 230.516 21.5164 229.953C21.8305 230.749 22.1446 231.545 22.4064 232.319C22.5843 232.864 22.7833 233.366 22.9194 233.921C23.0555 234.476 23.223 234.968 23.3696 235.534C23.6208 236.581 23.8826 237.628 24.1024 238.675C24.2595 239.376 24.3956 240.057 24.5317 240.768C24.1757 240.004 23.4847 238.517 23.3905 238.402C22.2388 236.57 18.9409 233.712 16.5957 234.309C16.2097 234.42 15.8515 234.611 15.5442 234.87C15.2369 235.129 14.9873 235.449 14.8116 235.81C14.6359 236.171 14.5381 236.565 14.5244 236.967C14.5107 237.368 14.5814 237.768 14.732 238.141C15.3183 239.742 17.1505 240.779 18.6896 241.281C20.3962 241.795 24.1548 241.281 24.6259 241.281C24.8563 242.402 25.0552 243.501 25.2436 244.538C25.8718 248.129 26.2906 251.154 26.5105 253.259C26.5105 253.636 26.5942 253.971 26.6256 254.306H19.2968L21.9562 306.204H34.3732L37.0326 254.306H30.2377L30.3948 254.002C31.3266 252.055 32.6143 249.27 34.0068 245.857C34.457 244.81 34.9072 243.627 35.3574 242.433C35.8181 242.527 39.5453 243.281 41.2728 242.883C42.8537 242.527 44.7592 241.637 45.4607 240.088C45.6397 239.728 45.7407 239.334 45.757 238.932C45.7733 238.53 45.7046 238.129 45.5554 237.756C45.4062 237.382 45.1798 237.044 44.8911 236.764C44.6023 236.484 44.2577 236.268 43.8798 236.13C41.5869 235.356 38.09 237.963 36.8022 239.701C36.7289 239.805 36.0275 241.009 35.5982 241.794L36.1531 240.329C36.5195 239.334 36.8546 238.319 37.2001 237.24L37.6712 235.638C37.8492 235.104 37.9644 234.529 38.1109 233.963C38.4146 232.654 38.6658 231.314 38.8962 229.953C39.7652 230.267 42.8956 231.356 44.5079 231.241C46.1203 231.126 48.1409 230.54 49.0727 229.147C49.3089 228.817 49.4722 228.44 49.5518 228.041C49.6314 227.643 49.6255 227.232 49.5344 226.836C49.4434 226.44 49.2693 226.068 49.0236 225.745C48.778 225.421 48.4664 225.153 48.1095 224.959C46.0156 223.912 42.0999 225.901 40.5713 227.42C40.4771 227.524 39.5243 228.739 38.9799 229.419C39.1056 228.603 39.2312 227.786 39.3359 226.948C39.6395 224.551 39.8594 222.111 40.1002 219.682C40.1735 218.939 40.2572 218.196 40.3305 217.452C40.6446 217.568 44.33 218.939 46.1412 218.813C47.7431 218.698 49.7637 218.112 50.6955 216.72C50.9318 216.389 51.0951 216.012 51.1746 215.614C51.2542 215.215 51.2483 214.805 51.1572 214.409C51.0662 214.013 50.8921 213.641 50.6464 213.317C50.4008 212.993 50.0892 212.726 49.7323 212.532C47.6384 211.432 43.7332 213.474 42.1941 214.992C42.079 215.107 40.676 216.866 40.341 217.327C40.519 215.693 40.7074 214.071 40.9587 212.469C41.2811 210.312 41.7463 208.178 42.3512 206.082C42.4978 206.082 46.3297 207.579 48.1933 207.454C49.7952 207.339 51.8158 206.742 52.7476 205.36C52.9855 205.03 53.1502 204.653 53.2307 204.254C53.3112 203.856 53.3057 203.444 53.2145 203.048C53.1234 202.651 52.9486 202.279 52.702 201.955C52.4554 201.632 52.1425 201.365 51.7844 201.172C49.6905 200.062 45.7852 202.104 44.2462 203.632C44.131 203.748 42.6234 205.643 42.3721 205.999L42.4663 205.632C43.1311 203.544 43.9789 201.519 45 199.581C45.5549 198.534 46.1412 197.487 46.7275 196.544C47.4185 196.89 50.5804 198.429 52.2555 198.492C53.9307 198.555 55.9409 198.188 57.0297 196.869C57.2885 196.568 57.4818 196.217 57.5973 195.837C57.7129 195.458 57.7482 195.058 57.7009 194.664C57.6536 194.27 57.5248 193.891 57.3228 193.549C57.1207 193.208 56.8498 192.912 56.5272 192.681C54.5065 191.341 50.4547 192.943 48.7691 194.293C48.6749 194.367 47.8164 195.215 47.2091 195.843C47.4813 195.414 47.7536 194.963 48.0258 194.566C49.0727 193.037 50.0569 191.707 50.9782 190.524C51.5017 189.865 52.0252 189.278 52.4545 188.734C53.3025 188.734 56.7261 188.608 58.2233 187.907C59.7204 187.205 61.3642 185.939 61.7097 184.274C61.8545 183.868 61.9055 183.434 61.8589 183.005C61.8124 182.577 61.6694 182.164 61.4408 181.799C61.2122 181.433 60.9038 181.124 60.5388 180.894C60.1738 180.665 59.7616 180.521 59.3331 180.473ZM32.6876 245.124C31.2323 248.474 29.8922 251.207 28.9395 253.102L28.4055 254.149H28.2485C28.2485 253.782 28.1438 253.374 28.0809 252.924C27.7878 250.83 27.3271 247.752 26.6047 244.14C26.3848 242.999 26.1231 241.784 25.8404 240.538C26.972 240.081 28.0766 239.561 29.1489 238.978C30.6054 240.242 32.2296 241.299 33.9754 242.119C33.5461 243.135 33.1064 244.161 32.6876 245.124Z" fill="#263238"/>
<path d="M46.6542 195.864C46.6542 195.864 47.429 193.048 47.4499 192.859C47.7535 190.713 47.073 186.41 44.8848 185.352C44.5212 185.19 44.1277 185.105 43.7294 185.102C43.3311 185.1 42.9367 185.181 42.5713 185.339C42.2059 185.498 41.8775 185.731 41.6071 186.023C41.3367 186.316 41.1301 186.661 41.0005 187.038C40.4142 188.64 41.1576 190.608 42.0475 191.969C43.0945 193.603 46.6542 195.864 46.6542 195.864Z" fill="#263238"/>
<path d="M440.871 305.953H15.0145V311.167H440.871V305.953Z" fill="#263238"/>
</svg>
