<svg width="14" height="13" viewBox="0 0 14 13" fill="none" xmlns="http://www.w3.org/2000/svg">
<path d="M8.43281 3.10243C8.99393 3.2026 9.50962 3.45368 9.91388 3.82354C10.3181 4.1934 10.5926 4.66521 10.702 5.17859M8.43281 1C9.59861 1.11849 10.6857 1.59613 11.5157 2.3545C12.3456 3.11286 12.869 4.10688 13 5.17333M12.4255 9.36769V10.9445C12.4262 11.0909 12.3934 11.2358 12.3293 11.3699C12.2652 11.504 12.1712 11.6244 12.0533 11.7234C11.9354 11.8224 11.7962 11.8977 11.6446 11.9446C11.4931 11.9915 11.3325 12.0089 11.1731 11.9957C9.40532 11.82 7.70723 11.2673 6.21528 10.3821C4.82722 9.57513 3.65038 8.49842 2.76835 7.22846C1.79745 5.85726 1.19324 4.29609 1.00466 2.67144C0.990307 2.52609 1.00919 2.3796 1.0601 2.24129C1.11102 2.10298 1.19285 1.97589 1.30039 1.86811C1.40793 1.76032 1.53883 1.6742 1.68474 1.61524C1.83065 1.55627 1.98838 1.52575 2.1479 1.52561H3.87136C4.15017 1.5231 4.42046 1.61343 4.63185 1.77976C4.84325 1.94609 4.98132 2.17707 5.02034 2.42966C5.09309 2.93427 5.22799 3.42975 5.42249 3.90662C5.49978 4.09474 5.51651 4.2992 5.47069 4.49576C5.42487 4.69232 5.31842 4.87274 5.16397 5.01565L4.43436 5.68317C5.25218 6.99906 6.44304 8.08859 7.8813 8.83683L8.6109 8.1693C8.7671 8.02799 8.9643 7.9306 9.17914 7.88868C9.39398 7.84676 9.61745 7.86206 9.82307 7.93278C10.3443 8.11072 10.8858 8.23415 11.4374 8.3007C11.7165 8.33672 11.9713 8.46533 12.1535 8.66206C12.3357 8.85879 12.4325 9.10992 12.4255 9.36769Z" stroke="black" stroke-linecap="round" stroke-linejoin="round"/>
</svg>
